<?xml version="1.0" standalone="no"?>
<!DOCTYPE svg PUBLIC "-//W3C//DTD SVG 1.1//EN" "http://www.w3.org/Graphics/SVG/1.1/DTD/svg11.dtd" >
<svg>
<metadata>
Created by FontForge 20090622 at Wed Dec  7 04:58:54 2016
 By deploy user
Copyright (c) 2014 Indian Type Foundry (info@indiantypefoundry.com)
</metadata>
<defs>
<font id="Hind-Bold" horiz-adv-x="281" >
  <font-face 
    font-family="Hind Bold"
    font-weight="700"
    font-stretch="normal"
    units-per-em="1000"
    panose-1="2 0 0 0 0 0 0 0 0 0"
    ascent="800"
    descent="-200"
    x-height="507"
    cap-height="674"
    bbox="-502 -546 2282 1055"
    underline-thickness="50"
    underline-position="-50"
    unicode-range="U+000D-U+FB04"
  />
<missing-glyph horiz-adv-x="518" 
d="M4 0v701h510v-701h-510zM59 649v-597h400v597h-400zM259 302h-4l-100 -209h-60l134 260l-134 255h60l105 -206h4l100 206h60l-135 -261l135 -254h-60z" />
    <glyph glyph-name=".notdef" horiz-adv-x="518" 
d="M4 0v701h510v-701h-510zM59 649v-597h400v597h-400zM259 302h-4l-100 -209h-60l134 260l-134 255h60l105 -206h4l100 206h60l-135 -261l135 -254h-60z" />
    <glyph glyph-name=".null" horiz-adv-x="0" 
 />
    <glyph glyph-name="nonmarkingreturn" horiz-adv-x="333" 
 />
    <glyph glyph-name="NULL" horiz-adv-x="0" 
 />
    <glyph glyph-name="NULL" horiz-adv-x="0" 
 />
    <glyph glyph-name="CR" unicode="&#xd;" horiz-adv-x="0" 
 />
    <glyph glyph-name="space" unicode=" " horiz-adv-x="250" 
 />
    <glyph glyph-name="exclam" unicode="!" horiz-adv-x="289" 
d="M75 236v438h139v-438h-139zM52 83q0 38 26.5 64.5t64.5 26.5t64.5 -26.5t26.5 -64.5t-26.5 -64.5t-64.5 -26.5t-64.5 26.5t-26.5 64.5z" />
    <glyph glyph-name="quotedbl" unicode="&#x22;" horiz-adv-x="387" 
d="M40 420v261h122v-261h-122zM225 420v261h122v-261h-122z" />
    <glyph glyph-name="numbersign" unicode="#" horiz-adv-x="757" 
d="M429 265l28 135h-136l-29 -135h137zM712 400h-131l-29 -135h126v-111h-149l-33 -154h-123l32 154h-136l-33 -154h-123l32 154h-100v111h124l28 135h-118v116h143l33 157h124l-33 -157h136l33 157h124l-33 -157h106v-116z" />
    <glyph glyph-name="dollar" unicode="$" horiz-adv-x="514" 
d="M449 644v-144q-81 47 -168 47q-39 0 -59.5 -16t-20.5 -41t25 -44.5t75 -41.5q31 -14 51.5 -24.5t47 -29t42 -39t26.5 -50.5t11 -65q0 -76 -48.5 -129t-131.5 -69v-116h-121v113q-83 8 -138 39v155q91 -66 194 -66q35 0 58 18.5t23 48.5q0 10 -3 19t-11 17t-15.5 13.5
t-22 13l-24.5 12.5t-29.5 14t-31.5 14q-65 30 -104.5 74t-39.5 117q0 77 51 128.5t142 62.5v115h122v-117q53 -8 100 -29z" />
    <glyph glyph-name="percent" unicode="%" horiz-adv-x="973" 
d="M227 -1l379 708h132l-380 -708h-131zM548 182q0 79 55.5 134.5t134.5 55.5t134.5 -55.5t55.5 -134.5t-55.5 -134.5t-134.5 -55.5t-134.5 55.5t-55.5 134.5zM45 532q0 79 55.5 134.5t134.5 55.5t134.5 -55.5t55.5 -134.5t-55.5 -134.5t-134.5 -55.5t-134.5 55.5
t-55.5 134.5zM162 532q0 -30 21.5 -51.5t51.5 -21.5t51.5 21.5t21.5 51.5t-21.5 51.5t-51.5 21.5t-51.5 -21.5t-21.5 -51.5zM665 182q0 -30 21.5 -51.5t51.5 -21.5t51.5 21.5t21.5 51.5t-21.5 51.5t-51.5 21.5t-51.5 -21.5t-21.5 -51.5z" />
    <glyph glyph-name="ampersand" unicode="&#x26;" horiz-adv-x="742" 
d="M425 130l-127 124q-3 3 -9.5 9l-10.5 10q-46 -16 -62.5 -36t-16.5 -48q0 -34 39 -55.5t98 -21.5q47 0 89 18zM339 569q-29 0 -48 -17t-19 -48q0 -44 69 -113q75 41 75 101q0 37 -20.5 57t-56.5 20zM737 0h-179l-39 39q-81 -47 -184 -47q-132 0 -208.5 56t-76.5 136
q0 124 142 170q-68 75 -68 148q0 89 61 137.5t154 48.5q105 0 164.5 -49.5t59.5 -138.5q0 -59 -33.5 -104.5t-108.5 -83.5l98 -96q18 39 18 85h131q0 -100 -56 -178z" />
    <glyph glyph-name="quotesingle" unicode="'" horiz-adv-x="202" 
d="M40 420v261h122v-261h-122z" />
    <glyph glyph-name="parenleft" unicode="(" horiz-adv-x="338" 
d="M358 -196h-155q-163 203 -163 455q0 260 157 448h151q-73 -89 -113.5 -216t-40.5 -236q0 -106 42 -229.5t122 -221.5z" />
    <glyph glyph-name="parenright" unicode=")" horiz-adv-x="338" 
d="M141 707q157 -188 157 -448q0 -252 -163 -455h-155q80 98 122 221.5t42 229.5q0 109 -40.5 236t-113.5 216h151z" />
    <glyph glyph-name="asterisk" unicode="*" horiz-adv-x="508" 
d="M339 428h-2q21 -16 36 -36l58 -80l-96 -69l-57 79q-16 22 -22 43q-8 -19 -24 -42l-59 -80l-95 70l58 79q15 20 35 35q-23 0 -49 9l-94 31l37 112l93 -30q26 -9 45 -23q-7 24 -7 50v98h118v-98q0 -26 -7 -50q18 13 44 22l94 30l36 -112l-92 -30q-25 -8 -50 -8z" />
    <glyph glyph-name="plus" unicode="+" horiz-adv-x="589" 
d="M544 404v-130h-183v-180h-134v180h-182v130h182v181h134v-181h183z" />
    <glyph glyph-name="comma" unicode="," horiz-adv-x="294" 
d="M-7 -127l101 261h161l-136 -261h-126z" />
    <glyph glyph-name="hyphen" unicode="-" horiz-adv-x="357" 
d="M45 202v120h267v-120h-267z" />
    <glyph glyph-name="period" unicode="." horiz-adv-x="258" 
d="M40 81q0 37 26 63t63 26t63 -26t26 -63t-26 -63t-63 -26t-63 26t-26 63z" />
    <glyph glyph-name="slash" unicode="/" horiz-adv-x="464" 
d="M-2 -103l359 810h152l-360 -810h-151z" />
    <glyph glyph-name="zero" unicode="0" horiz-adv-x="547" 
d="M35 330q0 156 60 247t178 91t178.5 -91t60.5 -247q0 -154 -60.5 -246t-178.5 -92t-178 91.5t-60 246.5zM184 330q0 -208 89 -208q90 0 90 208t-90 208q-89 0 -89 -208z" />
    <glyph glyph-name="one" unicode="1" horiz-adv-x="380" 
d="M10 398v149l184 107h126v-654h-145v497z" />
    <glyph glyph-name="two" unicode="2" horiz-adv-x="501" 
d="M234 124h232v-124h-436v113q108 74 190.5 164t82.5 159q0 42 -25 66.5t-76 24.5q-85 0 -161 -63v141q33 24 86 41t104 17q102 0 162.5 -53.5t60.5 -149.5q0 -173 -220 -336z" />
    <glyph glyph-name="three" unicode="3" horiz-adv-x="483" 
d="M56 490v136q74 37 149 37q106 0 168 -50.5t62 -131.5q0 -111 -101 -153q114 -27 114 -148q0 -84 -63.5 -134.5t-177.5 -50.5q-107 0 -177 34v140q80 -44 165 -44q49 0 76.5 21t27.5 53q0 73 -135 73h-35v120h35q53 0 87 18t34 54q0 69 -90 69q-69 0 -139 -43z" />
    <glyph glyph-name="four" unicode="4" horiz-adv-x="562" 
d="M173 263h144v296zM542 263v-124h-80v-139h-145v139h-287v124l200 393h232v-393h80z" />
    <glyph glyph-name="five" unicode="5" horiz-adv-x="500" 
d="M205 532v-111q22 3 44 3q107 0 164 -55t57 -150q0 -102 -67.5 -163.5t-191.5 -61.5q-109 0 -176 35v138q68 -42 152 -42q134 0 134 96q0 36 -27.5 57t-82.5 21q-77 0 -148 -33v390h367v-124h-225z" />
    <glyph glyph-name="six" unicode="6" horiz-adv-x="537" 
d="M280 110q39 0 61 27t22 72q0 41 -21.5 65.5t-60.5 24.5q-54 0 -95 -43q11 -146 94 -146zM461 650v-135q-39 21 -91 21q-71 0 -116.5 -43.5t-61.5 -116.5q54 46 129 46q86 0 138.5 -57t52.5 -153q0 -99 -62.5 -165.5t-170.5 -66.5q-121 0 -182.5 86.5t-61.5 232.5
q0 167 91.5 267t231.5 100q53 0 103 -16z" />
    <glyph glyph-name="seven" unicode="7" horiz-adv-x="480" 
d="M20 655h440v-124l-254 -531h-154l255 531h-287v124z" />
    <glyph glyph-name="eight" unicode="8" horiz-adv-x="545" 
d="M271 106q46 0 69.5 22.5t23.5 54.5q0 36 -24.5 59t-68.5 23q-45 0 -67.5 -25t-22.5 -59q0 -31 21.5 -53t68.5 -22zM270 550q-40 0 -59 -22.5t-19 -54.5q0 -38 23 -59t58 -21q34 0 57 21t23 59q0 77 -83 77zM417 333q93 -43 93 -151q0 -86 -66.5 -139t-173.5 -53
q-108 0 -171.5 50.5t-63.5 136.5q0 106 95 153q-85 49 -85 141t63.5 143.5t161.5 51.5q102 0 165.5 -49t63.5 -146q0 -90 -82 -138z" />
    <glyph glyph-name="nine" unicode="9" horiz-adv-x="533" 
d="M254 346q60 0 97 45q-12 142 -96 142q-39 0 -62.5 -25t-23.5 -70q0 -40 23 -66t62 -26zM67 11v138q52 -25 103 -25q78 0 121 35.5t56 111.5q-43 -43 -130 -43q-88 0 -142.5 56.5t-54.5 150.5q0 98 61.5 163t166.5 65q117 0 183.5 -84.5t66.5 -230.5q0 -179 -85 -267.5
t-227 -88.5q-68 0 -119 19z" />
    <glyph glyph-name="colon" unicode=":" horiz-adv-x="286" 
d="M55 419q0 37 25.5 62.5t62.5 25.5t62.5 -25.5t25.5 -62.5t-25.5 -62.5t-62.5 -25.5t-62.5 25.5t-25.5 62.5zM55 88q0 37 25.5 62.5t62.5 25.5t62.5 -25.5t25.5 -62.5t-25.5 -62.5t-62.5 -25.5t-62.5 25.5t-25.5 62.5z" />
    <glyph glyph-name="semicolon" unicode=";" horiz-adv-x="294" 
d="M73 419q0 37 25.5 62.5t62.5 25.5t62.5 -25.5t25.5 -62.5t-25.5 -62.5t-62.5 -25.5t-62.5 25.5t-25.5 62.5zM-7 -127l101 261h161l-136 -261h-126z" />
    <glyph glyph-name="less" unicode="&#x3c;" horiz-adv-x="589" 
d="M45 271v138l499 178v-144l-354 -103l354 -103v-144z" />
    <glyph glyph-name="equal" unicode="=" horiz-adv-x="589" 
d="M45 394v120h499v-120h-499zM45 166v120h499v-120h-499z" />
    <glyph glyph-name="greater" unicode="&#x3e;" horiz-adv-x="589" 
d="M544 409v-138l-499 -178v144l354 103l-354 103v144z" />
    <glyph glyph-name="question" unicode="?" horiz-adv-x="458" 
d="M65 517v137q60 28 153 28q94 0 152 -49.5t58 -133.5q0 -45 -18 -81.5t-45 -57t-53 -31.5t-47 -11l-3 -82h-133l-3 151q154 0 154 94q0 36 -21.5 57.5t-63.5 21.5q-65 0 -130 -43zM103 83q0 38 26.5 64.5t64.5 26.5t64.5 -26.5t26.5 -64.5t-26.5 -64.5t-64.5 -26.5
t-64.5 26.5t-26.5 64.5z" />
    <glyph glyph-name="at" unicode="@" horiz-adv-x="977" 
d="M476 105q33 0 61.5 25.5t38.5 73.5q0 6 0.5 20t0.5 20q-6 47 -31 71.5t-58 24.5q-42 0 -71.5 -35t-29.5 -98q0 -46 26.5 -74t62.5 -28zM668 -52l-4 -123q-92 -41 -196 -41q-134 0 -233 58.5t-147 151.5t-48 206q0 129 65 238t175 171t239 62q112 0 207.5 -46
t155.5 -137.5t60 -210.5q0 -118 -59.5 -197.5t-143.5 -79.5q-118 0 -153 109q-20 -53 -60.5 -80.5t-91.5 -27.5q-81 0 -128 61.5t-47 150.5q0 104 61 167.5t144 63.5q81 0 120 -73q4 49 5 71h116l-1 -20q-12 -180 -12 -201q0 -108 51 -108q35 0 57 41.5t22 112.5
q0 142 -86.5 214t-221.5 72q-103 0 -183.5 -51.5t-121.5 -132.5t-41 -173q0 -135 86 -214.5t213 -79.5q105 0 201 46z" />
    <glyph glyph-name="A" unicode="A" horiz-adv-x="690" 
d="M262 262h162l-7 24q-29 98 -47.5 167t-22.5 89l-4 20q-8 -55 -74 -276zM502 0l-41 138h-236l-41 -138h-161l225 674h194l225 -674h-165z" />
    <glyph glyph-name="B" unicode="B" horiz-adv-x="605" 
d="M219 123h81q114 0 114 78t-113 78h-82v-156zM219 551v-151h57q60 0 90.5 22t30.5 58q0 71 -96 71h-82zM65 674h262q111 0 169 -52.5t58 -133.5q0 -53 -28 -93t-73 -54q117 -35 117 -158q0 -80 -57.5 -131.5t-156.5 -51.5h-291v674z" />
    <glyph glyph-name="C" unicode="C" horiz-adv-x="613" 
d="M563 645v-148q-75 46 -167 46q-81 0 -136 -56.5t-55 -151.5q0 -93 55 -147.5t142 -54.5q94 0 161 48v-151q-61 -38 -176 -38q-148 0 -247.5 95.5t-99.5 247.5q0 154 96.5 251t251.5 97q114 0 175 -38z" />
    <glyph glyph-name="D" unicode="D" horiz-adv-x="683" 
d="M223 126h70q93 0 143.5 58t50.5 164q0 90 -51 144.5t-144 54.5h-69v-421zM65 674h232q152 0 249 -93.5t97 -232.5q0 -162 -95.5 -255t-252.5 -93h-230v674z" />
    <glyph glyph-name="E" unicode="E" horiz-adv-x="544" 
d="M220 123h264v-123h-419v674h415v-123h-260v-153h232v-122h-232v-153z" />
    <glyph glyph-name="F" unicode="F" horiz-adv-x="506" 
d="M476 551h-256v-174h223v-123h-223v-254h-155v674h411v-123z" />
    <glyph glyph-name="G" unicode="G" horiz-adv-x="706" 
d="M646 402v-340q-96 -70 -242 -70q-162 0 -263 93t-101 253q0 158 105.5 253t267.5 95q114 0 197 -42v-154q-96 55 -197 55q-95 0 -151 -56.5t-56 -150.5q0 -95 55 -151t150 -56q43 0 85 13v127h-109v131h259z" />
    <glyph glyph-name="H" unicode="H" horiz-adv-x="686" 
d="M466 674h155v-674h-155v269h-247v-269h-154v674h154v-274h247v274z" />
    <glyph glyph-name="I" unicode="I" horiz-adv-x="304" 
d="M75 0v674h154v-674h-154z" />
    <glyph glyph-name="J" unicode="J" horiz-adv-x="392" 
d="M30 19v136q37 -23 77 -23q71 0 71 76v465h154v-469q0 -97 -51.5 -151t-143.5 -54q-69 0 -107 20z" />
    <glyph glyph-name="K" unicode="K" horiz-adv-x="662" 
d="M65 0v674h154v-674h-154zM406 337l239 -337h-193l-226 335l218 339h183z" />
    <glyph glyph-name="L" unicode="L" horiz-adv-x="488" 
d="M219 135h249v-135h-403v674h154v-539z" />
    <glyph glyph-name="M" unicode="M" horiz-adv-x="893" 
d="M50 0l58 674h169l94 -244q24 -61 41 -112t22 -72l5 -20q16 66 70 204l95 244h169l70 -674h-154l-25 261l-13 197q-26 -75 -72 -197l-95 -254h-91l-94 254q-23 62 -39 111t-21 68l-5 18q0 -71 -9 -197l-21 -261h-154z" />
    <glyph glyph-name="N" unicode="N" horiz-adv-x="697" 
d="M65 0v674h169l157 -279q33 -59 57.5 -110.5t31.5 -72.5l8 -22q-10 74 -10 205v279h154v-674h-169l-161 279q-32 54 -56.5 106.5t-33.5 77.5l-8 25q15 -90 15 -209v-279h-154z" />
    <glyph glyph-name="O" unicode="O" horiz-adv-x="736" 
d="M40 339q0 155 89.5 250.5t238.5 95.5q150 0 239 -95t89 -251q0 -155 -89.5 -250.5t-238.5 -95.5q-150 0 -239 95t-89 251zM205 339q0 -95 44 -150.5t119 -55.5t119 55.5t44 150.5t-44 150.5t-119 55.5t-119 -55.5t-44 -150.5z" />
    <glyph glyph-name="P" unicode="P" horiz-adv-x="563" 
d="M219 340h76q47 6 72 36.5t25 74.5q0 37 -26 67t-71 33h-76v-211zM65 674h232q112 0 181.5 -63t69.5 -160q0 -111 -72.5 -172t-178.5 -61h-78v-218h-154v674z" />
    <glyph glyph-name="Q" unicode="Q" horiz-adv-x="741" 
d="M205 339q0 -95 44 -150.5t119 -55.5t119 55.5t44 150.5t-44 150.5t-119 55.5t-119 -55.5t-44 -150.5zM738 -84l-175 -67l-199 144q-148 1 -236 96t-88 250t89.5 250.5t238.5 95.5q150 0 239 -95t89 -251q0 -106 -43 -186t-121 -122z" />
    <glyph glyph-name="R" unicode="R" horiz-adv-x="614" 
d="M219 549v-190h73q100 0 100 98q0 43 -26 67.5t-71 24.5h-76zM412 0l-146 234h-47v-234h-154v674h233q113 0 181.5 -60t68.5 -156q0 -144 -123 -199l171 -259h-184z" />
    <glyph glyph-name="S" unicode="S" horiz-adv-x="514" 
d="M454 644v-144q-81 47 -168 47q-39 0 -59.5 -16t-20.5 -41t25 -44.5t75 -41.5q31 -14 51.5 -24.5t47 -29t42 -39t26.5 -50.5t11 -65q0 -91 -67 -147.5t-178 -56.5q-119 0 -194 42v155q91 -66 194 -66q35 0 58 18.5t23 48.5q0 10 -3 19t-11 17t-15.5 13.5t-22 13
l-24.5 12.5t-29.5 14t-31.5 14q-65 30 -104.5 74t-39.5 117q0 87 64 140.5t177 53.5q101 0 174 -34z" />
    <glyph glyph-name="T" unicode="T" horiz-adv-x="544" 
d="M514 674v-124h-164v-550h-155v550h-165v124h484z" />
    <glyph glyph-name="U" unicode="U" horiz-adv-x="668" 
d="M454 260v414h154v-413q0 -132 -74 -201.5t-200 -69.5q-124 0 -199 69t-75 195v420h154v-419q0 -125 120 -125t120 130z" />
    <glyph glyph-name="V" unicode="V" horiz-adv-x="659" 
d="M640 674l-227 -674h-170l-224 674h166l81 -269q22 -72 38 -138.5t21 -96.5l5 -31q16 104 65 266l81 269h164z" />
    <glyph glyph-name="W" unicode="W" horiz-adv-x="971" 
d="M431 664h114l66 -238q21 -75 37.5 -139.5t22.5 -91.5l6 -27q13 89 56 259l62 247h157l-180 -674h-172l-59 213l-34.5 130t-16.5 68l-2 15q-3 -41 -54 -213l-62 -213h-172l-181 674h162l62 -248q20 -80 33 -144.5t16 -89.5l4 -24q17 78 68 258z" />
    <glyph glyph-name="X" unicode="X" horiz-adv-x="663" 
d="M240 342l-203 332h179l112 -197l57 104.5l50 92.5h188l-204 -333l217 -341h-183l-122 210l-64 -114.5l-54 -95.5h-186z" />
    <glyph glyph-name="Y" unicode="Y" horiz-adv-x="643" 
d="M630 674l-233 -426v-248h-154v247l-230 427h180l41 -98l53 -130l27 -70l5 -16q10 45 88 216l44 98h179z" />
    <glyph glyph-name="Z" unicode="Z" horiz-adv-x="621" 
d="M549 674v-109l-304 -441h316v-124h-501v113l302 437h-296v124h483z" />
    <glyph glyph-name="bracketleft" unicode="[" horiz-adv-x="363" 
d="M348 580h-145v-648h145v-128h-283v903h283v-127z" />
    <glyph glyph-name="backslash" unicode="\" horiz-adv-x="464" 
d="M107 707l359 -810h-151l-360 810h152z" />
    <glyph glyph-name="bracketright" unicode="]" horiz-adv-x="363" 
d="M298 707v-903h-283v128h145v648h-145v127h283z" />
    <glyph glyph-name="asciicircum" unicode="^" horiz-adv-x="491" 
d="M458 332h-135l-77 146l-78 -146h-135l151 262h123z" />
    <glyph glyph-name="underscore" unicode="_" horiz-adv-x="546" 
d="M20 -166v121h506v-121h-506z" />
    <glyph glyph-name="grave" unicode="`" horiz-adv-x="500" 
d="M280 798l86 -177h-121l-111 177h146z" />
    <glyph glyph-name="a" unicode="a" horiz-adv-x="516" 
d="M311 208h-47q-37 0 -57 -16t-20 -41q0 -51 59 -51q31 0 48 19t17 52v37zM74 351v131q60 34 173 34q108 0 161 -46.5t53 -144.5v-325h-143v62q-32 -65 -126 -65q-74 0 -115.5 42t-41.5 105q0 73 53.5 113.5t158.5 40.5h64v35q0 64 -85 64q-82 0 -152 -46z" />
    <glyph glyph-name="b" unicode="b" horiz-adv-x="611" 
d="M318 116q46 0 78 37.5t32 98.5q0 66 -31.5 103t-77.5 37t-79.5 -35t-33.5 -98q0 -65 31 -104t81 -39zM206 707v-278q52 84 151 84q95 0 157 -69t62 -189q0 -107 -59.5 -184t-158.5 -77q-101 0 -152 85v-79h-146v707h146z" />
    <glyph glyph-name="c" unicode="c" horiz-adv-x="469" 
d="M183 252q4 -67 40 -104t95 -37q63 0 121 35v-122q-59 -32 -142 -32q-114 0 -188 72.5t-74 187.5q2 114 74 188.5t197 74.5q77 0 133 -29v-125q-53 33 -118 33q-61 0 -99 -36.5t-39 -105.5z" />
    <glyph glyph-name="d" unicode="d" horiz-adv-x="611" 
d="M293 116q50 0 81 39t31 104q0 63 -33.5 98t-79.5 35t-77.5 -37t-31.5 -103q0 -61 32 -98.5t78 -37.5zM405 707h146v-707h-146v79q-51 -85 -152 -85q-99 0 -158.5 77t-59.5 184q0 120 62 189t157 69q99 0 151 -84v278z" />
    <glyph glyph-name="e" unicode="e" horiz-adv-x="533" 
d="M353 300v12q-7 89 -78 89q-35 0 -62 -25.5t-36 -75.5h176zM458 151v-122q-52 -34 -159 -34q-125 0 -194.5 72.5t-69.5 186.5q0 121 67.5 189.5t166.5 68.5q102 0 161 -59.5t59 -177.5q0 -23 -8 -79h-298q15 -42 52 -65t89 -23q77 0 134 43z" />
    <glyph glyph-name="f" unicode="f" horiz-adv-x="346" 
d="M366 710v-118q-28 11 -52 11q-37 0 -55 -17t-18 -60v-19h95v-107h-95v-400h-145v400h-66v107h66v19q0 92 51.5 143t142.5 51q47 0 76 -10z" />
    <glyph glyph-name="g" unicode="g" horiz-adv-x="585" 
d="M285 133q47 0 73.5 35.5t26.5 85.5q0 136 -99 136q-44 0 -69 -34t-25 -94q0 -63 24 -96t69 -33zM385 507h145v-458q0 -122 -73 -183.5t-183 -61.5q-107 0 -187 38v149q70 -56 172 -56q66 0 96 28t30 88v34q-44 -68 -140 -68q-84 0 -144.5 62t-60.5 184q0 108 58.5 178.5
t153.5 70.5q90 0 133 -72v67z" />
    <glyph glyph-name="h" unicode="h" horiz-adv-x="580" 
d="M206 707v-286q39 91 152 91q74 0 120.5 -47t46.5 -142v-323h-146v300q0 44 -22 69t-57 25q-15 0 -28.5 -4.5t-29.5 -16t-26 -39t-10 -66.5v-268h-146v707h146z" />
    <glyph glyph-name="i" unicode="i" horiz-adv-x="276" 
d="M65 0v507h146v-507h-146zM53 654q0 35 25 60t60 25t60 -25t25 -60t-25 -60t-60 -25t-60 25t-25 60z" />
    <glyph glyph-name="j" unicode="j" horiz-adv-x="274" 
d="M-40 -182v111q33 -15 57 -15q52 0 52 67v526h145v-528q0 -80 -45 -128.5t-130 -48.5q-35 0 -79 16zM56 654q0 35 25 60t60 25t60 -25t25 -60t-25 -60t-60 -25t-60 25t-25 60z" />
    <glyph glyph-name="k" unicode="k" horiz-adv-x="548" 
d="M537 0h-169l-162 249v-249h-146v690h146v-410l160 227h168l-176 -243z" />
    <glyph glyph-name="l" unicode="l" horiz-adv-x="276" 
d="M65 0v707h146v-707h-146z" />
    <glyph glyph-name="m" unicode="m" horiz-adv-x="859" 
d="M206 507v-79q42 84 143 84q107 0 142 -96q17 45 57 70.5t94 25.5q75 0 118.5 -47.5t43.5 -139.5v-325h-146v301q0 43 -17 68t-49 25q-34 0 -60.5 -27.5t-26.5 -98.5v-268h-146v301q0 43 -17 68t-49 25q-34 0 -60.5 -27.5t-26.5 -98.5v-268h-146v507h146z" />
    <glyph glyph-name="n" unicode="n" horiz-adv-x="580" 
d="M206 507v-86q19 42 58.5 66.5t94.5 24.5q78 0 122 -46.5t44 -136.5v-329h-146v302q0 45 -21 68.5t-59 23.5q-40 0 -66.5 -31.5t-26.5 -94.5v-268h-146v507h146z" />
    <glyph glyph-name="o" unicode="o" horiz-adv-x="567" 
d="M284 -8q-119 0 -184 71.5t-65 183.5q0 117 68 192.5t181 75.5q118 0 183 -73t65 -186q0 -115 -65.5 -189.5t-182.5 -74.5zM283 400q-48 0 -72 -41t-24 -106t24.5 -106.5t73.5 -41.5q48 0 71.5 40.5t23.5 105.5q0 149 -97 149z" />
    <glyph glyph-name="p" unicode="p" horiz-adv-x="611" 
d="M320 116q48 0 78 36.5t30 99.5q0 69 -30.5 104.5t-77.5 35.5q-46 0 -80 -35t-34 -98q0 -65 32 -104t82 -39zM206 507v-78q53 84 153 84q98 0 157.5 -69.5t59.5 -188.5q0 -113 -57.5 -187t-159.5 -74q-103 0 -153 81v-262h-146v694h146z" />
    <glyph glyph-name="q" unicode="q" horiz-adv-x="611" 
d="M293 116q50 0 81 39t31 104q0 63 -33.5 98t-79.5 35t-77.5 -37t-31.5 -103q0 -61 32 -98.5t78 -37.5zM405 507h146v-694h-146v266q-51 -85 -152 -85q-102 0 -160 74t-58 187q0 119 60 188.5t159 69.5t151 -84v78z" />
    <glyph glyph-name="r" unicode="r" horiz-adv-x="370" 
d="M205 507v-94q14 44 46.5 70.5t75.5 26.5q24 0 38 -4v-138q-24 11 -55 11q-47 0 -76 -34.5t-29 -91.5v-253h-146l1 507h145z" />
    <glyph glyph-name="s" unicode="s" horiz-adv-x="436" 
d="M380 492v-125q-53 31 -124 31q-26 0 -40 -10.5t-14 -26.5q0 -9 5 -17t16.5 -15t22 -12.5t29 -13.5t29.5 -14q46 -24 74 -55.5t28 -80.5q0 -75 -54 -116t-143 -41q-92 0 -154 31v130q69 -48 146 -48q55 0 55 35q0 9 -5 17t-17 15t-22 11.5l-29 12.5t-29 13
q-101 48 -101 144q0 74 56.5 115t140.5 41q78 0 130 -21z" />
    <glyph glyph-name="t" unicode="t" horiz-adv-x="386" 
d="M229 400v-233q0 -27 15.5 -41t40.5 -14q40 0 71 20v-121q-37 -16 -100 -16q-173 0 -173 173v232h-73v107h73v120h146v-120h118v-107h-118z" />
    <glyph glyph-name="u" unicode="u" horiz-adv-x="580" 
d="M374 507h146v-507h-146v81q-40 -85 -154 -85q-78 0 -121.5 43.5t-43.5 128.5v339h146v-306q0 -89 78 -89q95 0 95 127v268z" />
    <glyph glyph-name="v" unicode="v" horiz-adv-x="536" 
d="M192 0l-187 507h153l66 -216q15 -50 26 -94.5t14 -64.5l4 -19q9 65 45 178l68 216h150l-189 -507h-150z" />
    <glyph glyph-name="w" unicode="w" horiz-adv-x="806" 
d="M168 0l-163 507h151l44 -167q16 -63 27 -113.5t13 -69.5l3 -19q7 60 49 202l49 167h126l48 -167q18 -64 30 -114.5t15 -69.5l3 -18q7 59 47 202l47 167h144l-162 -507h-150l-44 166q-14 54 -24.5 101t-13.5 67l-3 20q-10 -67 -42 -188l-44 -166h-150z" />
    <glyph glyph-name="x" unicode="x" horiz-adv-x="526" 
d="M340 253l169 -253h-159l-85 152l-91 -152h-158l181 254l-170 253h162l82 -151l91 151h160z" />
    <glyph glyph-name="y" unicode="y" horiz-adv-x="532" 
d="M201 8l-196 499h159l55 -158q21 -61 34.5 -105t16.5 -58l3 -14q11 40 54 177l50 158h150l-183 -492q-79 -213 -241 -213q-31 0 -56 5v116q16 -4 34 -4q83 0 120 89z" />
    <glyph glyph-name="z" unicode="z" horiz-adv-x="479" 
d="M427 507v-101l-222 -293h234v-113h-399v105l222 290h-213v112h378z" />
    <glyph glyph-name="braceleft" unicode="{" horiz-adv-x="380" 
d="M40 325h17q39 0 62 29t23 67q0 16 -6 54t-6 60q0 78 44.5 129t114.5 51q31 0 66 -12v-135q-15 9 -31 9q-21 0 -36 -15.5t-15 -39.5q0 -12 6 -51.5t6 -63.5q0 -61 -34.5 -103.5t-81.5 -48.5q47 -6 81.5 -49t34.5 -104q0 -24 -6 -63.5t-6 -51.5q0 -24 15 -39.5t36 -15.5
q16 0 31 9v-135q-35 -12 -66 -12q-70 0 -114.5 51t-44.5 129q0 22 6 60t6 54q0 38 -23 67.5t-62 29.5l-17 -1v141z" />
    <glyph glyph-name="bar" unicode="|" horiz-adv-x="280" 
d="M70 -194v889h140v-889h-140z" />
    <glyph glyph-name="braceright" unicode="}" horiz-adv-x="380" 
d="M323 325h17v-141q-7 1 -17 1q-39 0 -62 -29.5t-23 -67.5q0 -16 6 -54t6 -60q0 -78 -44.5 -129t-114.5 -51q-31 0 -66 12v135q15 -9 31 -9q21 0 36 15.5t15 39.5q0 12 -6 51.5t-6 63.5q0 61 34.5 104t81.5 49q-47 6 -81.5 48.5t-34.5 103.5q0 24 6 63.5t6 51.5
q0 24 -15 39.5t-36 15.5q-16 0 -31 -9v135q35 12 66 12q70 0 114.5 -51t44.5 -129q0 -22 -6 -60t-6 -54q0 -38 23 -67t62 -29z" />
    <glyph glyph-name="asciitilde" unicode="~" horiz-adv-x="654" 
d="M524 379l101 -81q-77 -109 -173 -109q-57 0 -121.5 24.5t-98.5 24.5q-33 0 -55 -14t-48 -44l-101 80q31 44 76 76.5t96 32.5q66 0 131.5 -24.5t89.5 -24.5q33 0 55 14t48 45z" />
    <glyph glyph-name="uni00A0" unicode="&#xa0;" horiz-adv-x="250" 
 />
    <glyph glyph-name="exclamdown" unicode="&#xa1;" horiz-adv-x="289" 
d="M52 426q0 38 26.5 64.5t64.5 26.5t64.5 -26.5t26.5 -64.5t-26.5 -64.5t-64.5 -26.5t-64.5 26.5t-26.5 64.5zM75 -165v438h139v-438h-139z" />
    <glyph glyph-name="cent" unicode="&#xa2;" horiz-adv-x="478" 
d="M438 483v-122q-53 33 -118 33q-62 0 -101.5 -37t-40.5 -105q4 -66 41.5 -103.5t97.5 -37.5q63 0 121 35v-122q-35 -18 -79 -26v-109h-121v108q-92 18 -150 87t-58 168q2 97 56.5 167t150.5 89v112h122v-110q43 -8 79 -27z" />
    <glyph glyph-name="sterling" unicode="&#xa3;" horiz-adv-x="540" 
d="M215 123h292v-123h-462v121q73 38 73 130v16h-74v106h60q-3 24 -3 47q0 113 59 176.5t175 63.5q85 0 137 -32v-138q-46 33 -104 33q-105 0 -105 -109q0 -13 2 -41h166v-106h-155v-17q0 -88 -61 -127z" />
    <glyph glyph-name="currency" unicode="&#xa4;" horiz-adv-x="571" 
d="M58 311q0 59 28 110l-58 57l85 82l58 -57q51 28 115 28q62 0 114 -27l58 56l85 -82l-58 -57q29 -53 29 -110q0 -59 -30 -112l59 -57l-85 -82l-59 56q-50 -26 -113 -26q-64 0 -115 27l-58 -57l-85 82l59 57q-29 52 -29 112zM180 311q0 -44 30 -75.5t76 -31.5t76 31.5
t30 75.5t-30 75.5t-76 31.5t-76 -31.5t-30 -75.5z" />
    <glyph glyph-name="yen" unicode="&#xa5;" horiz-adv-x="635" 
d="M626 655l-170 -294h112v-90h-164l-11 -19v-45h175v-90h-175v-117h-154v117h-173v90h173v45l-11 19h-162v90h111l-168 294h180l126 -246l132 246h179z" />
    <glyph glyph-name="brokenbar" unicode="&#xa6;" horiz-adv-x="280" 
d="M210 369h-140v338h140v-338zM210 -117h-140v338h140v-338z" />
    <glyph glyph-name="section" unicode="&#xa7;" horiz-adv-x="599" 
d="M228 322l-12 6q-11 -19 -11 -37q0 -28 26 -49t93 -50q33 -14 51 -24q8 16 8 32q0 14 -5.5 25.5t-13 20t-24 18.5t-29.5 16.5l-39 19.5zM479 645v-144q-83 48 -168 48q-77 0 -77 -49q0 -8 2.5 -15t10 -13.5t15 -12t23 -14l29 -15.5l37.5 -19t44 -23q69 -36 102.5 -78
t33.5 -113q0 -65 -42 -115q31 -41 31 -90q0 -83 -64.5 -131t-175.5 -48q-119 0 -194 42v155q91 -66 194 -66q82 0 82 48q0 26 -30 45.5t-154 73.5q-121 54 -121 183q0 62 46 117q-30 38 -30 88q0 82 61.5 131.5t170.5 49.5q98 0 174 -35z" />
    <glyph glyph-name="dieresis" unicode="&#xa8;" horiz-adv-x="500" 
d="M33 710q0 34 23.5 57.5t59.5 23.5q35 0 58.5 -23.5t23.5 -57.5q0 -35 -23.5 -58.5t-58.5 -23.5q-36 0 -59.5 23.5t-23.5 58.5zM301 710q0 34 23.5 57.5t59.5 23.5q35 0 59 -23.5t24 -57.5q0 -35 -24 -58.5t-59 -23.5q-36 0 -59.5 23.5t-23.5 58.5z" />
    <glyph glyph-name="copyright" unicode="&#xa9;" horiz-adv-x="761" 
d="M35 338q0 143 101.5 244t244.5 101t244 -101.5t101 -243.5q0 -143 -101 -244.5t-244 -101.5t-244.5 101.5t-101.5 244.5zM132 337q0 -109 70.5 -179t178.5 -70q107 0 177.5 70t70.5 179q0 107 -70.5 177.5t-177.5 70.5q-108 0 -178.5 -70.5t-70.5 -177.5zM334 337
q2 -35 22.5 -54.5t48.5 -19.5q43 0 82 24v-95q-39 -21 -96 -21q-69 0 -119.5 46t-50.5 120q1 75 48.5 122t127.5 47q49 0 90 -22v-94q-35 22 -80 22q-28 0 -50 -19t-23 -56z" />
    <glyph glyph-name="ordfeminine" unicode="&#xaa;" horiz-adv-x="400" 
d="M244 568h-41q-31 0 -48 -13.5t-17 -35.5q0 -43 51 -43q25 0 40 16.5t15 43.5v32zM42 689v111q52 28 147 28q92 0 136.5 -39t44.5 -121v-276h-120v52q-26 -55 -108 -55q-62 0 -97 35t-35 90q0 61 45 96t134 35h55v28q0 54 -73 54q-69 0 -129 -38z" />
    <glyph glyph-name="guillemotleft" unicode="&#xab;" horiz-adv-x="592" 
d="M330 415l-146 -162l146 -162h-152l-152 162l152 162h152zM550 415l-146 -162l146 -162h-152l-152 162l152 162h152z" />
    <glyph glyph-name="logicalnot" unicode="&#xac;" horiz-adv-x="603" 
d="M558 136h-120v165h-393v116h513v-281z" />
    <glyph glyph-name="uni00AD" unicode="&#xad;" horiz-adv-x="357" 
d="M45 202v120h267v-120h-267z" />
    <glyph glyph-name="registered" unicode="&#xae;" horiz-adv-x="492" 
d="M228 632v-61h22q13 0 20.5 9t7.5 22q0 30 -32 30h-18zM174 677h70q91 0 91 -75q0 -48 -38 -66l60 -96h-66l-50 86h-13v-86h-54v237zM247 376q79 0 126.5 48t47.5 127t-47.5 128t-126.5 49q-80 0 -127.5 -49t-47.5 -128t47.5 -127t127.5 -48zM246 786q102 0 169 -66.5
t67 -168.5t-67 -168t-169 -66q-103 0 -169.5 65.5t-66.5 168.5t66.5 169t169.5 66z" />
    <glyph glyph-name="macron" unicode="&#xaf;" horiz-adv-x="500" 
d="M428 651h-356v99h356v-99z" />
    <glyph glyph-name="degree" unicode="&#xb0;" horiz-adv-x="440" 
d="M30 495q0 79 55.5 134.5t134.5 55.5t134.5 -55.5t55.5 -134.5t-55.5 -134.5t-134.5 -55.5t-134.5 55.5t-55.5 134.5zM132 495q0 -36 26 -62t62 -26t62 26t26 62t-26 62t-62 26t-62 -26t-26 -62z" />
    <glyph glyph-name="plusminus" unicode="&#xb1;" horiz-adv-x="589" 
d="M45 28v120h499v-120h-499zM361 446h183v-120h-183v-140h-134v140h-182v120h182v139h134v-139z" />
    <glyph glyph-name="twosuperior" unicode="&#xb2;" horiz-adv-x="365" 
d="M35 392v77q72 52 121 108t49 100q0 51 -61 51q-47 0 -99 -37v105q52 33 117 33q69 0 111.5 -36.5t42.5 -100.5q0 -115 -148 -210h162v-90h-295z" />
    <glyph glyph-name="threesuperior" unicode="&#xb3;" horiz-adv-x="353" 
d="M109 654h14q77 0 77 41t-52 41q-51 0 -97 -35v101q47 27 107 27q71 0 112 -33.5t41 -87.5q0 -39 -21.5 -64.5t-59.5 -33.5q38 -4 63 -30t25 -70q0 -55 -41.5 -88.5t-111.5 -33.5q-80 0 -130 27v94q57 -30 113 -30q28 0 44.5 13t16.5 32q0 41 -85 41h-15v89z" />
    <glyph glyph-name="acute" unicode="&#xb4;" horiz-adv-x="500" 
d="M134 621l86 177h146l-111 -177h-121z" />
    <glyph glyph-name="uni00B5" unicode="&#xb5;" horiz-adv-x="585" 
d="M379 507h146v-507h-146v60q-34 -64 -104 -64q-36 0 -69 14v-190h-146v687h146v-306q0 -43 25 -66t63 -23q44 0 64.5 28.5t20.5 98.5v268z" />
    <glyph glyph-name="paragraph" unicode="&#xb6;" horiz-adv-x="592" 
d="M324 674v-822h-111v465q-97 0 -150 52.5t-53 127.5q0 74 54.5 125.5t167.5 51.5h92zM416 -148l1 822h110v-822h-111z" />
    <glyph glyph-name="periodcentered" unicode="&#xb7;" horiz-adv-x="268" 
d="M45 252q0 37 26 63t63 26t63 -26t26 -63t-26 -63t-63 -26t-63 26t-26 63z" />
    <glyph glyph-name="cedilla" unicode="&#xb8;" horiz-adv-x="500" 
d="M339 -125q0 -63 -45.5 -103t-133.5 -40v91q36 0 55.5 17t19.5 47q0 28 -26 62h113q17 -27 17 -74z" />
    <glyph glyph-name="onesuperior" unicode="&#xb9;" horiz-adv-x="279" 
d="M10 651v98l134 76h85v-433h-103v321z" />
    <glyph glyph-name="ordmasculine" unicode="&#xba;" horiz-adv-x="442" 
d="M222 386q-102 0 -157 61t-55 155q0 100 57.5 164t154.5 64q101 0 155.5 -62t54.5 -158q0 -98 -55.5 -161t-154.5 -63zM220 733q-41 0 -61 -35t-20 -91q0 -55 21 -90t63 -35q41 0 60.5 34t19.5 89q0 128 -83 128z" />
    <glyph glyph-name="guillemotright" unicode="&#xbb;" horiz-adv-x="591" 
d="M193 415l152 -162l-152 -162h-152l146 162l-146 162h152zM413 415l152 -162l-152 -162h-152l146 162l-146 162h152z" />
    <glyph glyph-name="questiondown" unicode="&#xbf;" horiz-adv-x="458" 
d="M428 -7v-137q-60 -28 -153 -28q-94 0 -152 49.5t-58 133.5q0 45 18 81.5t45 57t53 31.5t47 11l3 82h133l3 -151q-154 0 -154 -94q0 -36 21.5 -57.5t63.5 -21.5q65 0 130 43zM390 427q0 -38 -26.5 -64.5t-64.5 -26.5t-64.5 26.5t-26.5 64.5t26.5 64.5t64.5 26.5
t64.5 -26.5t26.5 -64.5z" />
    <glyph glyph-name="Agrave" unicode="&#xc0;" horiz-adv-x="690" 
d="M406 721h-121l-111 177h146zM262 262h162l-7 24q-29 98 -47.5 167t-22.5 89l-4 20q-8 -55 -74 -276zM502 0l-41 138h-236l-41 -138h-161l225 674h194l225 -674h-165z" />
    <glyph glyph-name="Aacute" unicode="&#xc1;" horiz-adv-x="690" 
d="M527 898l-111 -177h-121l86 177h146zM262 262h162l-7 24q-29 98 -47.5 167t-22.5 89l-4 20q-8 -55 -74 -276zM502 0l-41 138h-236l-41 -138h-161l225 674h194l225 -674h-165z" />
    <glyph glyph-name="Acircumflex" unicode="&#xc2;" horiz-adv-x="690" 
d="M346 817l-79 -96h-139l156 177h124l156 -177h-139zM262 262h162l-7 24q-29 98 -47.5 167t-22.5 89l-4 20q-8 -55 -74 -276zM502 0l-41 138h-236l-41 -138h-161l225 674h194l225 -674h-165z" />
    <glyph glyph-name="Atilde" unicode="&#xc3;" horiz-adv-x="690" 
d="M471 887l74 -61q-43 -85 -136 -85q-33 0 -69 17.5t-51 17.5q-25 0 -39 -8.5t-36 -34.5l-65 64q16 34 47.5 58t68.5 24q36 0 76.5 -17.5t59.5 -17.5q49 0 70 43zM262 262h162l-7 24q-29 98 -47.5 167t-22.5 89l-4 20q-8 -55 -74 -276zM502 0l-41 138h-236l-41 -138h-161
l225 674h194l225 -674h-165z" />
    <glyph glyph-name="Adieresis" unicode="&#xc4;" horiz-adv-x="690" 
d="M486 728q-36 0 -59.5 23.5t-23.5 58.5q0 34 23.5 57.5t59.5 23.5q35 0 59 -23.5t24 -57.5q0 -35 -24 -58.5t-59 -23.5zM218 728q-36 0 -59.5 23.5t-23.5 58.5q0 34 23.5 57.5t59.5 23.5q35 0 58.5 -23.5t23.5 -57.5q0 -35 -23.5 -58.5t-58.5 -23.5zM262 262h162l-7 24
q-29 98 -47.5 167t-22.5 89l-4 20q-8 -55 -74 -276zM502 0l-41 138h-236l-41 -138h-161l225 674h194l225 -674h-165z" />
    <glyph glyph-name="Aring" unicode="&#xc5;" horiz-adv-x="690" 
d="M349 905q-23 0 -38 -16.5t-15 -39.5t15 -39.5t38 -16.5t38 16.5t15 39.5t-15 39.5t-38 16.5zM349 710q-56 0 -96 40t-40 96t40 96t96 40t96 -40t40 -96t-40 -96t-96 -40zM262 262h162l-7 24q-29 98 -47.5 167t-22.5 89l-4 20q-8 -55 -74 -276zM502 0l-41 138h-236
l-41 -138h-161l225 674h194l225 -674h-165z" />
    <glyph glyph-name="AE" unicode="&#xc6;" horiz-adv-x="940" 
d="M301 262h166v352q-41 -106 -154 -328zM616 123h264v-123h-413v138h-229l-69 -138h-161l325 674h543v-123h-260v-153h232v-122h-232v-153z" />
    <glyph glyph-name="Ccedilla" unicode="&#xc7;" horiz-adv-x="613" 
d="M318 -51h113q17 -27 17 -74q0 -63 -45.5 -103t-133.5 -40v91q36 0 55.5 17t19.5 47q0 28 -26 62zM563 645v-148q-75 46 -167 46q-81 0 -136 -56.5t-55 -151.5q0 -93 55 -147.5t142 -54.5q94 0 161 48v-151q-61 -38 -176 -38q-148 0 -247.5 95.5t-99.5 247.5
q0 154 96.5 251t251.5 97q114 0 175 -38z" />
    <glyph glyph-name="Egrave" unicode="&#xc8;" horiz-adv-x="544" 
d="M346 721h-121l-111 177h146zM220 123h264v-123h-419v674h415v-123h-260v-153h232v-122h-232v-153z" />
    <glyph glyph-name="Eacute" unicode="&#xc9;" horiz-adv-x="544" 
d="M454 898l-111 -177h-121l86 177h146zM220 123h264v-123h-419v674h415v-123h-260v-153h232v-122h-232v-153z" />
    <glyph glyph-name="Ecircumflex" unicode="&#xca;" horiz-adv-x="544" 
d="M272 817l-79 -96h-139l156 177h124l156 -177h-139zM220 276v-153h264v-123h-419v674h415v-123h-260v-153h232v-122h-232z" />
    <glyph glyph-name="Edieresis" unicode="&#xcb;" horiz-adv-x="544" 
d="M406 727q-36 0 -59.5 23.5t-23.5 58.5q0 34 23.5 57.5t59.5 23.5q35 0 59 -23.5t24 -57.5q0 -35 -24 -58.5t-59 -23.5zM138 727q-36 0 -59.5 23.5t-23.5 58.5q0 34 23.5 57.5t59.5 23.5q35 0 58.5 -23.5t23.5 -57.5q0 -35 -23.5 -58.5t-58.5 -23.5zM220 276v-153h264
v-123h-419v674h415v-123h-260v-153h232v-122h-232z" />
    <glyph glyph-name="Igrave" unicode="&#xcc;" horiz-adv-x="304" 
d="M75 0v674h154v-674h-154zM122 898l86 -177h-121l-111 177h146z" />
    <glyph glyph-name="Iacute" unicode="&#xcd;" horiz-adv-x="304" 
d="M75 0v674h154v-674h-154zM94 721l86 177h146l-111 -177h-121z" />
    <glyph glyph-name="Icircumflex" unicode="&#xce;" horiz-adv-x="304" 
d="M92 898h124l156 -177h-139l-79 96l-79 -96h-139zM75 0v674h154v-674h-154z" />
    <glyph glyph-name="Idieresis" unicode="&#xcf;" horiz-adv-x="304" 
d="M75 0v674h154v-674h-154zM-59 810q0 34 23.5 57.5t59.5 23.5q35 0 58.5 -23.5t23.5 -57.5q0 -35 -23.5 -58.5t-58.5 -23.5q-36 0 -59.5 23.5t-23.5 58.5zM209 810q0 34 23.5 57.5t59.5 23.5q35 0 59 -23.5t24 -57.5q0 -35 -24 -58.5t-59 -23.5q-36 0 -59.5 23.5
t-23.5 58.5z" />
    <glyph glyph-name="Eth" unicode="&#xd0;" horiz-adv-x="749" 
d="M289 126h70q93 0 143.5 58t50.5 164q0 90 -51 144.5t-144 54.5h-69v-154h138v-124h-138v-143zM131 674h232q152 0 249 -93.5t97 -232.5q0 -162 -95.5 -255t-252.5 -93h-230v269h-66v124h66v281z" />
    <glyph glyph-name="Ntilde" unicode="&#xd1;" horiz-adv-x="697" 
d="M65 0v674h169l157 -279q33 -59 57.5 -110.5t31.5 -72.5l8 -22q-10 74 -10 205v279h154v-674h-169l-161 279q-32 54 -56.5 106.5t-33.5 77.5l-8 25q15 -90 15 -209v-279h-154zM478 887l74 -61q-42 -85 -136 -85q-33 0 -69 17.5t-51 17.5q-25 0 -39 -8.5t-36 -34.5l-65 64
q16 34 47.5 58t68.5 24q36 0 76.5 -17.5t59.5 -17.5q48 0 70 43z" />
    <glyph glyph-name="Ograve" unicode="&#xd2;" horiz-adv-x="736" 
d="M40 339q0 155 89.5 250.5t238.5 95.5q150 0 239 -95t89 -251q0 -155 -89.5 -250.5t-238.5 -95.5q-150 0 -239 95t-89 251zM205 339q0 -95 44 -150.5t119 -55.5t119 55.5t44 150.5t-44 150.5t-119 55.5t-119 -55.5t-44 -150.5zM352 898l86 -177h-121l-111 177h146z" />
    <glyph glyph-name="Oacute" unicode="&#xd3;" horiz-adv-x="736" 
d="M311 721l86 177h146l-111 -177h-121zM40 339q0 155 89.5 250.5t238.5 95.5q150 0 239 -95t89 -251q0 -155 -89.5 -250.5t-238.5 -95.5q-150 0 -239 95t-89 251zM205 339q0 -95 44 -150.5t119 -55.5t119 55.5t44 150.5t-44 150.5t-119 55.5t-119 -55.5t-44 -150.5z" />
    <glyph glyph-name="Ocircumflex" unicode="&#xd4;" horiz-adv-x="736" 
d="M205 339q0 -95 44 -150.5t119 -55.5t119 55.5t44 150.5t-44 150.5t-119 55.5t-119 -55.5t-44 -150.5zM40 339q0 155 89.5 250.5t238.5 95.5q150 0 239 -95t89 -251q0 -155 -89.5 -250.5t-238.5 -95.5q-150 0 -239 95t-89 251zM310 898h124l156 -177h-139l-79 96l-79 -96
h-139z" />
    <glyph glyph-name="Otilde" unicode="&#xd5;" horiz-adv-x="736" 
d="M40 339q0 155 89.5 250.5t238.5 95.5q150 0 239 -95t89 -251q0 -155 -89.5 -250.5t-238.5 -95.5q-150 0 -239 95t-89 251zM205 339q0 -95 44 -150.5t119 -55.5t119 55.5t44 150.5t-44 150.5t-119 55.5t-119 -55.5t-44 -150.5zM492 886l74 -61q-42 -85 -136 -85
q-33 0 -69 17.5t-51 17.5q-25 0 -39 -8.5t-36 -34.5l-65 64q16 34 47.5 58t68.5 24q36 0 76.5 -17.5t59.5 -17.5q48 0 70 43z" />
    <glyph glyph-name="Odieresis" unicode="&#xd6;" horiz-adv-x="736" 
d="M160 810q0 34 23.5 57.5t59.5 23.5q35 0 58.5 -23.5t23.5 -57.5q0 -35 -23.5 -58.5t-58.5 -23.5q-36 0 -59.5 23.5t-23.5 58.5zM428 810q0 34 23.5 57.5t59.5 23.5q35 0 59 -23.5t24 -57.5q0 -35 -24 -58.5t-59 -23.5q-36 0 -59.5 23.5t-23.5 58.5zM40 339
q0 155 89.5 250.5t238.5 95.5q150 0 239 -95t89 -251q0 -155 -89.5 -250.5t-238.5 -95.5q-150 0 -239 95t-89 251zM205 339q0 -95 44 -150.5t119 -55.5t119 55.5t44 150.5t-44 150.5t-119 55.5t-119 -55.5t-44 -150.5z" />
    <glyph glyph-name="multiply" unicode="&#xd7;" horiz-adv-x="530" 
d="M487 209l-92 -92l-130 129l-127 -127l-95 94l128 128l-129 128l92 92l129 -128l127 127l95 -94l-128 -128z" />
    <glyph glyph-name="Oslash" unicode="&#xd8;" horiz-adv-x="714" 
d="M519 445l-225 -305q32 -15 72 -15q78 0 124 58t46 156q0 61 -17 106zM214 230l227 307q-35 16 -75 16q-78 0 -124 -58t-46 -156q0 -64 18 -109zM695 684l-79 -107q78 -92 78 -238q0 -155 -89.5 -250.5t-238.5 -95.5q-86 0 -156 34l-25 -34h-146l78 106q-79 93 -79 240
q0 155 89.5 250.5t238.5 95.5q89 0 159 -35l25 34h145z" />
    <glyph glyph-name="Ugrave" unicode="&#xd9;" horiz-adv-x="668" 
d="M454 260v414h154v-413q0 -132 -74 -201.5t-200 -69.5q-124 0 -199 69t-75 195v420h154v-419q0 -125 120 -125t120 130zM316 898l86 -177h-121l-111 177h146z" />
    <glyph glyph-name="Uacute" unicode="&#xda;" horiz-adv-x="668" 
d="M287 721l86 177h146l-111 -177h-121zM454 260v414h154v-413q0 -132 -74 -201.5t-200 -69.5q-124 0 -199 69t-75 195v420h154v-419q0 -125 120 -125t120 130z" />
    <glyph glyph-name="Ucircumflex" unicode="&#xdb;" horiz-adv-x="668" 
d="M454 260v414h154v-413q0 -132 -74 -201.5t-200 -69.5q-124 0 -199 69t-75 195v420h154v-419q0 -125 120 -125t120 130zM270 898h124l156 -177h-139l-79 96l-79 -96h-139z" />
    <glyph glyph-name="Udieresis" unicode="&#xdc;" horiz-adv-x="668" 
d="M122 809q0 34 23.5 57.5t59.5 23.5q35 0 58.5 -23.5t23.5 -57.5q0 -35 -23.5 -58.5t-58.5 -23.5q-36 0 -59.5 23.5t-23.5 58.5zM390 809q0 34 23.5 57.5t59.5 23.5q35 0 59 -23.5t24 -57.5q0 -35 -24 -58.5t-59 -23.5q-36 0 -59.5 23.5t-23.5 58.5zM454 260v414h154v-413
q0 -132 -74 -201.5t-200 -69.5q-124 0 -199 69t-75 195v420h154v-419q0 -125 120 -125t120 130z" />
    <glyph glyph-name="Yacute" unicode="&#xdd;" horiz-adv-x="643" 
d="M507 898l-111 -177h-121l86 177h146zM630 674l-233 -426v-248h-154v247l-230 427h180l41 -98l53 -130l27 -70l5 -16q10 45 88 216l44 98h179z" />
    <glyph glyph-name="Thorn" unicode="&#xde;" horiz-adv-x="563" 
d="M219 232h66q53 0 80 29t27 75q0 43 -25 74t-82 31h-66v-209zM219 564h78q113 0 182 -62.5t69 -159.5q0 -111 -72.5 -171.5t-178.5 -60.5h-78v-110h-154v674h154v-110z" />
    <glyph glyph-name="germandbls" unicode="&#xdf;" horiz-adv-x="598" 
d="M280 15v123q51 -33 101 -33q27 0 44 14t17 38q0 20 -15 38t-36 33l-42.5 31t-36.5 39.5t-15 52.5q0 38 28.5 84.5t28.5 70.5q0 57 -62 57q-90 0 -90 -93v-470h-142v461q0 109 58 169t165 60q98 0 158.5 -50.5t60.5 -120.5q0 -38 -14 -68t-27.5 -50t-13.5 -35
q0 -11 20.5 -28t45 -35t45 -56.5t20.5 -87.5q0 -76 -49.5 -122t-131.5 -46q-81 0 -117 24z" />
    <glyph glyph-name="agrave" unicode="&#xe0;" horiz-adv-x="516" 
d="M326 554h-121l-111 177h146zM311 208h-47q-37 0 -57 -16t-20 -41q0 -51 59 -51q31 0 48 19t17 52v37zM74 351v131q60 34 173 34q108 0 161 -46.5t53 -144.5v-325h-143v62q-32 -65 -126 -65q-74 0 -115.5 42t-41.5 105q0 73 53.5 113.5t158.5 40.5h64v35q0 64 -85 64
q-82 0 -152 -46z" />
    <glyph glyph-name="aacute" unicode="&#xe1;" horiz-adv-x="516" 
d="M426 731l-111 -177h-121l86 177h146zM311 208h-47q-37 0 -57 -16t-20 -41q0 -51 59 -51q31 0 48 19t17 52v37zM74 351v131q60 34 173 34q108 0 161 -46.5t53 -144.5v-325h-143v62q-32 -65 -126 -65q-74 0 -115.5 42t-41.5 105q0 73 53.5 113.5t158.5 40.5h64v35
q0 64 -85 64q-82 0 -152 -46z" />
    <glyph glyph-name="acircumflex" unicode="&#xe2;" horiz-adv-x="516" 
d="M256 650l-79 -96h-139l156 177h124l156 -177h-139zM311 208h-47q-37 0 -57 -16t-20 -41q0 -51 59 -51q31 0 48 19t17 52v37zM74 351v131q60 34 173 34q108 0 161 -46.5t53 -144.5v-325h-143v62q-32 -65 -126 -65q-74 0 -115.5 42t-41.5 105q0 73 53.5 113.5t158.5 40.5
h64v35q0 64 -85 64q-82 0 -152 -46z" />
    <glyph glyph-name="atilde" unicode="&#xe3;" horiz-adv-x="516" 
d="M380 720l74 -61q-42 -85 -136 -85q-33 0 -69 17.5t-51 17.5q-25 0 -39 -8.5t-36 -34.5l-65 64q16 34 47.5 58t68.5 24q36 0 76.5 -17.5t59.5 -17.5q48 0 70 43zM311 208h-47q-37 0 -57 -16t-20 -41q0 -51 59 -51q31 0 48 19t17 52v37zM74 351v131q60 34 173 34
q108 0 161 -46.5t53 -144.5v-325h-143v62q-32 -65 -126 -65q-74 0 -115.5 42t-41.5 105q0 73 53.5 113.5t158.5 40.5h64v35q0 64 -85 64q-82 0 -152 -46z" />
    <glyph glyph-name="adieresis" unicode="&#xe4;" horiz-adv-x="516" 
d="M399 561q-36 0 -59.5 23.5t-23.5 58.5q0 34 23.5 57.5t59.5 23.5q35 0 59 -23.5t24 -57.5q0 -35 -24 -58.5t-59 -23.5zM131 561q-36 0 -59.5 23.5t-23.5 58.5q0 34 23.5 57.5t59.5 23.5q35 0 58.5 -23.5t23.5 -57.5q0 -35 -23.5 -58.5t-58.5 -23.5zM311 208h-47
q-37 0 -57 -16t-20 -41q0 -51 59 -51q31 0 48 19t17 52v37zM74 351v131q60 34 173 34q108 0 161 -46.5t53 -144.5v-325h-143v62q-32 -65 -126 -65q-74 0 -115.5 42t-41.5 105q0 73 53.5 113.5t158.5 40.5h64v35q0 64 -85 64q-82 0 -152 -46z" />
    <glyph glyph-name="aring" unicode="&#xe5;" horiz-adv-x="516" 
d="M260 738q-23 0 -38 -16.5t-15 -39.5t15 -39.5t38 -16.5t38 16.5t15 39.5t-15 39.5t-38 16.5zM260 543q-56 0 -96 40t-40 96t40 96t96 40t96 -40t40 -96t-40 -96t-96 -40zM311 208h-47q-37 0 -57 -16t-20 -41q0 -51 59 -51q31 0 48 19t17 52v37zM74 351v131q60 34 173 34
q108 0 161 -46.5t53 -144.5v-325h-143v62q-32 -65 -126 -65q-74 0 -115.5 42t-41.5 105q0 73 53.5 113.5t158.5 40.5h64v35q0 64 -85 64q-82 0 -152 -46z" />
    <glyph glyph-name="ae" unicode="&#xe6;" horiz-adv-x="808" 
d="M316 171v37h-47q-37 0 -57 -16t-20 -41q0 -51 59 -51q31 0 48 19t17 52zM632 300v11q-7 90 -78 90q-34 0 -61.5 -26t-36.5 -75h176zM760 196h-299q16 -42 53 -65t89 -23q77 0 134 43v-122q-53 -34 -152 -34q-57 0 -111 23t-82 70q-16 -38 -59 -65t-115 -27
q-85 0 -131.5 40t-46.5 108q0 73 53.5 113.5t158.5 40.5h64v35q0 64 -85 64q-82 0 -152 -46v131q60 34 163 34q54 0 93.5 -20t55.5 -54q23 33 65 51.5t92 18.5q102 0 161 -59.5t59 -177.5q0 -23 -8 -79z" />
    <glyph glyph-name="ccedilla" unicode="&#xe7;" horiz-adv-x="469" 
d="M183 252q4 -67 40 -104t95 -37q63 0 121 35v-122q-59 -32 -142 -32q-114 0 -188 72.5t-74 187.5q2 114 74 188.5t197 74.5q77 0 133 -29v-125q-53 33 -118 33q-61 0 -99 -36.5t-39 -105.5zM369 -125q0 -63 -45.5 -103t-133.5 -40v91q36 0 55.5 17t19.5 47q0 28 -26 62
h113q17 -27 17 -74z" />
    <glyph glyph-name="egrave" unicode="&#xe8;" horiz-adv-x="533" 
d="M336 554h-121l-111 177h146zM353 300v12q-7 89 -78 89q-35 0 -62 -25.5t-36 -75.5h176zM458 151v-122q-52 -34 -159 -34q-125 0 -194.5 72.5t-69.5 186.5q0 121 67.5 189.5t166.5 68.5q102 0 161 -59.5t59 -177.5q0 -23 -8 -79h-298q15 -42 52 -65t89 -23q77 0 134 43z
" />
    <glyph glyph-name="eacute" unicode="&#xe9;" horiz-adv-x="533" 
d="M457 730l-111 -177h-121l86 177h146zM353 300v12q-7 89 -78 89q-35 0 -62 -25.5t-36 -75.5h176zM458 151v-122q-52 -34 -159 -34q-125 0 -194.5 72.5t-69.5 186.5q0 121 67.5 189.5t166.5 68.5q102 0 161 -59.5t59 -177.5q0 -23 -8 -79h-298q15 -42 52 -65t89 -23
q77 0 134 43z" />
    <glyph glyph-name="ecircumflex" unicode="&#xea;" horiz-adv-x="533" 
d="M269 650l-79 -96h-139l156 177h124l156 -177h-139zM353 300v12q-7 89 -78 89q-35 0 -62 -25.5t-36 -75.5h176zM458 151v-122q-52 -34 -159 -34q-125 0 -194.5 72.5t-69.5 186.5q0 121 67.5 189.5t166.5 68.5q102 0 161 -59.5t59 -177.5q0 -23 -8 -79h-298q15 -42 52 -65
t89 -23q77 0 134 43z" />
    <glyph glyph-name="edieresis" unicode="&#xeb;" horiz-adv-x="533" 
d="M418 561q-36 0 -59.5 23.5t-23.5 58.5q0 34 23.5 57.5t59.5 23.5q35 0 59 -23.5t24 -57.5q0 -35 -24 -58.5t-59 -23.5zM150 561q-36 0 -59.5 23.5t-23.5 58.5q0 34 23.5 57.5t59.5 23.5q35 0 58.5 -23.5t23.5 -57.5q0 -35 -23.5 -58.5t-58.5 -23.5zM353 300v12
q-7 89 -78 89q-35 0 -62 -25.5t-36 -75.5h176zM458 151v-122q-52 -34 -159 -34q-125 0 -194.5 72.5t-69.5 186.5q0 121 67.5 189.5t166.5 68.5q102 0 161 -59.5t59 -177.5q0 -23 -8 -79h-298q15 -42 52 -65t89 -23q77 0 134 43z" />
    <glyph glyph-name="igrave" unicode="&#xec;" horiz-adv-x="276" 
d="M65 0v507h146v-507h-146zM103 731l86 -177h-121l-111 177h146z" />
    <glyph glyph-name="iacute" unicode="&#xed;" horiz-adv-x="276" 
d="M65 0v507h146v-507h-146zM85 554l86 177h146l-111 -177h-121z" />
    <glyph glyph-name="icircumflex" unicode="&#xee;" horiz-adv-x="276" 
d="M77 731h124l156 -177h-139l-79 96l-79 -96h-139zM65 0v507h146v-507h-146z" />
    <glyph glyph-name="idieresis" unicode="&#xef;" horiz-adv-x="276" 
d="M65 0v507h146v-507h-146zM-78 643q0 34 23.5 57.5t59.5 23.5q35 0 58.5 -23.5t23.5 -57.5q0 -35 -23.5 -58.5t-58.5 -23.5q-36 0 -59.5 23.5t-23.5 58.5zM190 643q0 34 23.5 57.5t59.5 23.5q35 0 59 -23.5t24 -57.5q0 -35 -24 -58.5t-59 -23.5q-36 0 -59.5 23.5
t-23.5 58.5z" />
    <glyph glyph-name="eth" unicode="&#xf0;" horiz-adv-x="557" 
d="M267 120q38 0 63 25t33 90q-42 44 -97 44q-39 0 -60.5 -22.5t-21.5 -62.5q0 -33 22.5 -53.5t60.5 -20.5zM482 601l-65 -32q45 -63 69 -137.5t24 -142.5q0 -135 -62 -217t-180 -82q-109 0 -171 62t-62 152q0 89 53.5 143.5t137.5 54.5q82 0 136 -51q-13 86 -62 161
l-143 -70v81l97 47q-50 54 -126 104h184q28 -20 57 -47l113 55v-81z" />
    <glyph glyph-name="ntilde" unicode="&#xf1;" horiz-adv-x="580" 
d="M416 720l74 -61q-42 -85 -136 -85q-33 0 -69 17.5t-51 17.5q-25 0 -39 -8.5t-36 -34.5l-65 64q16 34 47.5 58t68.5 24q36 0 76.5 -17.5t59.5 -17.5q48 0 70 43zM206 507v-86q19 42 58.5 66.5t94.5 24.5q78 0 122 -46.5t44 -136.5v-329h-146v302q0 45 -21 68.5t-59 23.5
q-40 0 -66.5 -31.5t-26.5 -94.5v-268h-146v507h146z" />
    <glyph glyph-name="ograve" unicode="&#xf2;" horiz-adv-x="567" 
d="M284 -8q-119 0 -184 71.5t-65 183.5q0 117 68 192.5t181 75.5q118 0 183 -73t65 -186q0 -115 -65.5 -189.5t-182.5 -74.5zM283 400q-48 0 -72 -41t-24 -106t24.5 -106.5t73.5 -41.5q48 0 71.5 40.5t23.5 105.5q0 149 -97 149zM268 730l86 -177h-121l-111 177h146z" />
    <glyph glyph-name="oacute" unicode="&#xf3;" horiz-adv-x="567" 
d="M235 553l86 177h146l-111 -177h-121zM284 -8q-119 0 -184 71.5t-65 183.5q0 117 68 192.5t181 75.5q118 0 183 -73t65 -186q0 -115 -65.5 -189.5t-182.5 -74.5zM283 400q-48 0 -72 -41t-24 -106t24.5 -106.5t73.5 -41.5q48 0 71.5 40.5t23.5 105.5q0 149 -97 149z" />
    <glyph glyph-name="ocircumflex" unicode="&#xf4;" horiz-adv-x="567" 
d="M283 400q-48 0 -72 -41t-24 -106t24.5 -106.5t73.5 -41.5q48 0 71.5 40.5t23.5 105.5q0 149 -97 149zM284 -8q-119 0 -184 71.5t-65 183.5q0 117 68 192.5t181 75.5q118 0 183 -73t65 -186q0 -115 -65.5 -189.5t-182.5 -74.5zM225 730h124l156 -177h-139l-79 96l-79 -96
h-139z" />
    <glyph glyph-name="otilde" unicode="&#xf5;" horiz-adv-x="567" 
d="M284 -8q-119 0 -184 71.5t-65 183.5q0 117 68 192.5t181 75.5q118 0 183 -73t65 -186q0 -115 -65.5 -189.5t-182.5 -74.5zM283 400q-48 0 -72 -41t-24 -106t24.5 -106.5t73.5 -41.5q48 0 71.5 40.5t23.5 105.5q0 149 -97 149zM411 720l74 -61q-43 -85 -136 -85
q-33 0 -69 17.5t-51 17.5q-25 0 -39 -8.5t-36 -34.5l-65 64q16 34 47.5 58t68.5 24q36 0 76.5 -17.5t59.5 -17.5q49 0 70 43z" />
    <glyph glyph-name="odieresis" unicode="&#xf6;" horiz-adv-x="567" 
d="M78 644q0 34 23.5 57.5t59.5 23.5q35 0 58.5 -23.5t23.5 -57.5q0 -35 -23.5 -58.5t-58.5 -23.5q-36 0 -59.5 23.5t-23.5 58.5zM346 644q0 34 23.5 57.5t59.5 23.5q35 0 59 -23.5t24 -57.5q0 -35 -24 -58.5t-59 -23.5q-36 0 -59.5 23.5t-23.5 58.5zM284 -8
q-119 0 -184 71.5t-65 183.5q0 117 68 192.5t181 75.5q118 0 183 -73t65 -186q0 -115 -65.5 -189.5t-182.5 -74.5zM283 400q-48 0 -72 -41t-24 -106t24.5 -106.5t73.5 -41.5q48 0 71.5 40.5t23.5 105.5q0 149 -97 149z" />
    <glyph glyph-name="divide" unicode="&#xf7;" horiz-adv-x="589" 
d="M214 516q0 31 22.5 53.5t53.5 22.5t53.5 -22.5t22.5 -53.5t-22.5 -53.5t-53.5 -22.5t-53.5 22.5t-22.5 53.5zM45 275v130h499v-130h-499zM214 164q0 31 22.5 53.5t53.5 22.5t53.5 -22.5t22.5 -53.5t-22.5 -53.5t-53.5 -22.5t-53.5 22.5t-22.5 53.5z" />
    <glyph glyph-name="oslash" unicode="&#xf8;" horiz-adv-x="562" 
d="M391 319l-156 -218q21 -12 50 -12q57 0 85 45t28 117q0 39 -7 68zM176 189l156 217q-23 10 -49 10q-56 0 -85 -45.5t-29 -117.5q0 -36 7 -64zM532 515l-58 -81q58 -68 58 -178q0 -115 -65.5 -189.5t-182.5 -74.5q-63 0 -112 22l-16 -22h-121l57 80q-57 69 -57 175
q0 117 68 192.5t181 75.5q59 0 111 -21l15 21h122z" />
    <glyph glyph-name="ugrave" unicode="&#xf9;" horiz-adv-x="580" 
d="M351 553h-121l-111 177h146zM374 507h146v-507h-146v81q-40 -85 -154 -85q-78 0 -121.5 43.5t-43.5 128.5v339h146v-306q0 -89 78 -89q95 0 95 127v268z" />
    <glyph glyph-name="uacute" unicode="&#xfa;" horiz-adv-x="580" 
d="M470 730l-111 -177h-121l86 177h146zM374 507h146v-507h-146v81q-40 -85 -154 -85q-78 0 -121.5 43.5t-43.5 128.5v339h146v-306q0 -89 78 -89q95 0 95 127v268z" />
    <glyph glyph-name="ucircumflex" unicode="&#xfb;" horiz-adv-x="580" 
d="M288 650l-79 -96h-139l156 177h124l156 -177h-139zM374 507h146v-507h-146v81q-40 -85 -154 -85q-78 0 -121.5 43.5t-43.5 128.5v339h146v-306q0 -89 78 -89q95 0 95 127v268z" />
    <glyph glyph-name="udieresis" unicode="&#xfc;" horiz-adv-x="580" 
d="M421 561q-36 0 -59.5 23.5t-23.5 58.5q0 34 23.5 57.5t59.5 23.5q35 0 59 -23.5t24 -57.5q0 -35 -24 -58.5t-59 -23.5zM153 561q-36 0 -59.5 23.5t-23.5 58.5q0 34 23.5 57.5t59.5 23.5q35 0 58.5 -23.5t23.5 -57.5q0 -35 -23.5 -58.5t-58.5 -23.5zM374 507h146v-507
h-146v81q-40 -85 -154 -85q-78 0 -121.5 43.5t-43.5 128.5v339h146v-306q0 -89 78 -89q95 0 95 127v268z" />
    <glyph glyph-name="yacute" unicode="&#xfd;" horiz-adv-x="532" 
d="M224 554l86 177h146l-111 -177h-121zM201 8l-196 499h159l55 -158q21 -61 34.5 -105t16.5 -58l3 -14q11 40 54 177l50 158h150l-183 -492q-79 -213 -241 -213q-31 0 -56 5v116q16 -4 34 -4q83 0 120 89z" />
    <glyph glyph-name="thorn" unicode="&#xfe;" horiz-adv-x="611" 
d="M320 116q48 0 78 36.5t30 99.5q0 69 -30.5 104.5t-77.5 35.5q-46 0 -80 -35t-34 -98q0 -65 32 -104t82 -39zM206 707v-278q53 84 153 84q98 0 157.5 -69.5t59.5 -188.5q0 -113 -57.5 -187t-159.5 -74q-103 0 -153 81v-262h-146v894h146z" />
    <glyph glyph-name="ydieresis" unicode="&#xff;" horiz-adv-x="532" 
d="M327 643q0 34 23.5 57.5t59.5 23.5q35 0 59 -23.5t24 -57.5q0 -35 -24 -58.5t-59 -23.5q-36 0 -59.5 23.5t-23.5 58.5zM59 643q0 34 23.5 57.5t59.5 23.5q35 0 58.5 -23.5t23.5 -57.5q0 -35 -23.5 -58.5t-58.5 -23.5q-36 0 -59.5 23.5t-23.5 58.5zM201 8l-196 499h159
l55 -158q21 -61 34.5 -105t16.5 -58l3 -14q11 40 54 177l50 158h150l-183 -492q-79 -213 -241 -213q-31 0 -56 5v116q16 -4 34 -4q83 0 120 89z" />
    <glyph glyph-name="Amacron" unicode="&#x100;" horiz-adv-x="690" 
d="M527 860v-99h-356v99h356zM262 262h162l-7 24q-29 98 -47.5 167t-22.5 89l-4 20q-8 -55 -74 -276zM502 0l-41 138h-236l-41 -138h-161l225 674h194l225 -674h-165z" />
    <glyph glyph-name="amacron" unicode="&#x101;" horiz-adv-x="516" 
d="M436 692v-99h-356v99h356zM311 208h-47q-37 0 -57 -16t-20 -41q0 -51 59 -51q31 0 48 19t17 52v37zM74 351v131q60 34 173 34q108 0 161 -46.5t53 -144.5v-325h-143v62q-32 -65 -126 -65q-74 0 -115.5 42t-41.5 105q0 73 53.5 113.5t158.5 40.5h64v35q0 64 -85 64
q-82 0 -152 -46z" />
    <glyph glyph-name="Abreve" unicode="&#x102;" horiz-adv-x="690" 
d="M428 898h112q0 -93 -54.5 -137t-143.5 -44t-143.5 44t-54.5 137h112q0 -42 23.5 -65.5t62.5 -23.5t62.5 23.5t23.5 65.5zM262 262h162l-7 24q-29 98 -47.5 167t-22.5 89l-4 20q-8 -55 -74 -276zM502 0l-41 138h-236l-41 -138h-161l225 674h194l225 -674h-165z" />
    <glyph glyph-name="abreve" unicode="&#x103;" horiz-adv-x="516" 
d="M343 730h112q0 -93 -54.5 -137t-143.5 -44t-143.5 44t-54.5 137h112q0 -42 23.5 -65.5t62.5 -23.5t62.5 23.5t23.5 65.5zM311 208h-47q-37 0 -57 -16t-20 -41q0 -51 59 -51q31 0 48 19t17 52v37zM74 351v131q60 34 173 34q108 0 161 -46.5t53 -144.5v-325h-143v62
q-32 -65 -126 -65q-74 0 -115.5 42t-41.5 105q0 73 53.5 113.5t158.5 40.5h64v35q0 64 -85 64q-82 0 -152 -46z" />
    <glyph glyph-name="Aogonek" unicode="&#x104;" horiz-adv-x="680" 
d="M257 262h162l-7 24q-29 98 -47.5 167t-22.5 89l-4 20q-8 -55 -74 -276zM437 674l225 -674q-118 -73 -118 -130q0 -34 43 -34q44 0 87 30v-101q-48 -25 -109 -25q-70 0 -103.5 33t-33.5 84q0 79 69 143l-41 138h-236l-41 -138h-161l225 674h194z" />
    <glyph glyph-name="aogonek" unicode="&#x105;" horiz-adv-x="511" 
d="M311 208h-47q-37 0 -57 -16t-20 -41q0 -51 59 -51q31 0 48 19t17 52v37zM461 325v-325q-118 -73 -118 -130q0 -34 43 -34q44 0 87 30v-101q-48 -25 -109 -25q-70 0 -103.5 33t-33.5 84q0 85 91 153v52q-32 -65 -126 -65q-74 0 -115.5 42t-41.5 105q0 73 53.5 113.5
t158.5 40.5h64v35q0 64 -85 64q-82 0 -152 -46v131q60 34 173 34q108 0 161 -46.5t53 -144.5z" />
    <glyph glyph-name="Cacute" unicode="&#x106;" horiz-adv-x="613" 
d="M563 645v-148q-75 46 -167 46q-81 0 -136 -56.5t-55 -151.5q0 -93 55 -147.5t142 -54.5q94 0 161 48v-151q-61 -38 -176 -38q-148 0 -247.5 95.5t-99.5 247.5q0 154 96.5 251t251.5 97q114 0 175 -38zM304 721l86 177h146l-111 -177h-121z" />
    <glyph glyph-name="cacute" unicode="&#x107;" horiz-adv-x="469" 
d="M237 553l86 177h146l-111 -177h-121zM183 252q4 -67 40 -104t95 -37q63 0 121 35v-122q-59 -32 -142 -32q-114 0 -188 72.5t-74 187.5q2 114 74 188.5t197 74.5q77 0 133 -29v-125q-53 33 -118 33q-61 0 -99 -36.5t-39 -105.5z" />
    <glyph glyph-name="Ccircumflex" unicode="&#x108;" horiz-adv-x="613" 
d="M563 645v-148q-75 46 -167 46q-81 0 -136 -56.5t-55 -151.5q0 -93 55 -147.5t142 -54.5q94 0 161 48v-151q-61 -38 -176 -38q-148 0 -247.5 95.5t-99.5 247.5q0 154 96.5 251t251.5 97q114 0 175 -38zM286 898h124l156 -177h-139l-79 96l-79 -96h-139z" />
    <glyph glyph-name="ccircumflex" unicode="&#x109;" horiz-adv-x="469" 
d="M439 486v-125q-53 33 -118 33q-61 0 -99 -36.5t-39 -105.5q4 -67 40 -104t95 -37q63 0 121 35v-122q-59 -32 -142 -32q-114 0 -188 72.5t-74 187.5q2 114 74 188.5t197 74.5q77 0 133 -29zM208 731h124l156 -177h-139l-79 96l-79 -96h-139z" />
    <glyph glyph-name="Cdotaccent" unicode="&#x10a;" horiz-adv-x="613" 
d="M292 811q0 34 23.5 57.5t59.5 23.5q35 0 58.5 -23.5t23.5 -57.5q0 -35 -23.5 -58.5t-58.5 -23.5q-36 0 -59.5 23.5t-23.5 58.5zM563 645v-148q-75 46 -167 46q-81 0 -136 -56.5t-55 -151.5q0 -93 55 -147.5t142 -54.5q94 0 161 48v-151q-61 -38 -176 -38
q-148 0 -247.5 95.5t-99.5 247.5q0 154 96.5 251t251.5 97q114 0 175 -38z" />
    <glyph glyph-name="cdotaccent" unicode="&#x10b;" horiz-adv-x="469" 
d="M183 252q4 -67 40 -104t95 -37q63 0 121 35v-122q-59 -32 -142 -32q-114 0 -188 72.5t-74 187.5q2 114 74 188.5t197 74.5q77 0 133 -29v-125q-53 33 -118 33q-61 0 -99 -36.5t-39 -105.5zM205 643q0 34 23.5 57.5t59.5 23.5q35 0 58.5 -23.5t23.5 -57.5
q0 -35 -23.5 -58.5t-58.5 -23.5q-36 0 -59.5 23.5t-23.5 58.5z" />
    <glyph glyph-name="Ccaron" unicode="&#x10c;" horiz-adv-x="613" 
d="M563 645v-148q-75 46 -167 46q-81 0 -136 -56.5t-55 -151.5q0 -93 55 -147.5t142 -54.5q94 0 161 48v-151q-61 -38 -176 -38q-148 0 -247.5 95.5t-99.5 247.5q0 154 96.5 251t251.5 97q114 0 175 -38zM422 721h-124l-156 177h139l79 -96l79 96h139z" />
    <glyph glyph-name="ccaron" unicode="&#x10d;" horiz-adv-x="469" 
d="M439 486v-125q-53 33 -118 33q-61 0 -99 -36.5t-39 -105.5q4 -67 40 -104t95 -37q63 0 121 35v-122q-59 -32 -142 -32q-114 0 -188 72.5t-74 187.5q2 114 74 188.5t197 74.5q77 0 133 -29zM337 553h-124l-156 177h139l79 -96l79 96h139z" />
    <glyph glyph-name="Dcaron" unicode="&#x10e;" horiz-adv-x="683" 
d="M382 721h-124l-156 177h139l79 -96l79 96h139zM223 126h70q93 0 143.5 58t50.5 164q0 90 -51 144.5t-144 54.5h-69v-421zM65 674h232q152 0 249 -93.5t97 -232.5q0 -162 -95.5 -255t-252.5 -93h-230v674z" />
    <glyph glyph-name="dcaron" unicode="&#x10f;" horiz-adv-x="745" 
d="M293 116q50 0 81 39t31 104q0 63 -33.5 98t-79.5 35t-77.5 -37t-31.5 -103q0 -61 32 -98.5t78 -37.5zM405 429v278h146v-707h-146v79q-51 -85 -152 -85q-99 0 -158.5 77t-59.5 184q0 120 62 189t157 69q99 0 151 -84zM670 708h151l-116 -211h-106z" />
    <glyph glyph-name="Dcroat" unicode="&#x110;" horiz-adv-x="749" 
d="M289 126h70q93 0 143.5 58t50.5 164q0 90 -51 144.5t-144 54.5h-69v-154h138v-124h-138v-143zM131 674h232q152 0 249 -93.5t97 -232.5q0 -162 -95.5 -255t-252.5 -93h-230v269h-66v124h66v281z" />
    <glyph glyph-name="dcroat" unicode="&#x111;" horiz-adv-x="611" 
d="M293 116q50 0 81 39t31 104q0 63 -33.5 98t-79.5 35t-77.5 -37t-31.5 -103q0 -61 32 -98.5t78 -37.5zM608 646v-82h-57v-564h-146v79q-51 -85 -152 -85q-99 0 -158.5 77t-59.5 184q0 120 62 189t157 69q99 0 151 -84v135h-151v82h151v61h146v-61h57z" />
    <glyph glyph-name="Emacron" unicode="&#x112;" horiz-adv-x="544" 
d="M450 863v-99h-356v99h356zM220 123h264v-123h-419v674h415v-123h-260v-153h232v-122h-232v-153z" />
    <glyph glyph-name="emacron" unicode="&#x113;" horiz-adv-x="533" 
d="M448 692v-99h-356v99h356zM353 300v12q-7 89 -78 89q-35 0 -62 -25.5t-36 -75.5h176zM458 151v-122q-52 -34 -159 -34q-125 0 -194.5 72.5t-69.5 186.5q0 121 67.5 189.5t166.5 68.5q102 0 161 -59.5t59 -177.5q0 -23 -8 -79h-298q15 -42 52 -65t89 -23q77 0 134 43z" />
    <glyph glyph-name="Ebreve" unicode="&#x114;" horiz-adv-x="544" 
d="M370 898h112q0 -93 -54.5 -137t-143.5 -44t-143.5 44t-54.5 137h112q0 -42 23.5 -65.5t62.5 -23.5t62.5 23.5t23.5 65.5zM220 123h264v-123h-419v674h415v-123h-260v-153h232v-122h-232v-153z" />
    <glyph glyph-name="ebreve" unicode="&#x115;" horiz-adv-x="533" 
d="M356 731h112q0 -93 -54.5 -137t-143.5 -44t-143.5 44t-54.5 137h112q0 -42 23.5 -65.5t62.5 -23.5t62.5 23.5t23.5 65.5zM353 300v12q-7 89 -78 89q-35 0 -62 -25.5t-36 -75.5h176zM458 151v-122q-52 -34 -159 -34q-125 0 -194.5 72.5t-69.5 186.5q0 121 67.5 189.5
t166.5 68.5q102 0 161 -59.5t59 -177.5q0 -23 -8 -79h-298q15 -42 52 -65t89 -23q77 0 134 43z" />
    <glyph glyph-name="Edotaccent" unicode="&#x116;" horiz-adv-x="544" 
d="M282 728q-36 0 -59.5 23.5t-23.5 58.5q0 34 23.5 57.5t59.5 23.5q35 0 58.5 -23.5t23.5 -57.5q0 -35 -23.5 -58.5t-58.5 -23.5zM220 123h264v-123h-419v674h415v-123h-260v-153h232v-122h-232v-153z" />
    <glyph glyph-name="edotaccent" unicode="&#x117;" horiz-adv-x="533" 
d="M280 561q-36 0 -59.5 23.5t-23.5 58.5q0 34 23.5 57.5t59.5 23.5q35 0 58.5 -23.5t23.5 -57.5q0 -35 -23.5 -58.5t-58.5 -23.5zM353 300v12q-7 89 -78 89q-35 0 -62 -25.5t-36 -75.5h176zM458 151v-122q-52 -34 -159 -34q-125 0 -194.5 72.5t-69.5 186.5
q0 121 67.5 189.5t166.5 68.5q102 0 161 -59.5t59 -177.5q0 -23 -8 -79h-298q15 -42 52 -65t89 -23q77 0 134 43z" />
    <glyph glyph-name="Eogonek" unicode="&#x118;" horiz-adv-x="544" 
d="M484 123v-123q-118 -73 -118 -130q0 -34 43 -34q44 0 87 30v-101q-48 -25 -109 -25q-70 0 -103.5 33t-33.5 84q0 79 79 143h-264v674h415v-123h-260v-153h232v-122h-232v-153h264z" />
    <glyph glyph-name="eogonek" unicode="&#x119;" horiz-adv-x="533" 
d="M353 300v12q-7 89 -78 89q-35 0 -62 -25.5t-36 -75.5h176zM457 -112v-101q-48 -25 -109 -25q-70 0 -103.5 33t-33.5 84q0 63 52 118q-109 10 -168.5 81t-59.5 176q0 121 67.5 189.5t166.5 68.5q102 0 161 -59.5t59 -177.5q0 -23 -8 -79h-298q15 -42 52 -65t89 -23
q77 0 134 43v-122q-7 -5 -15 -8q-116 -73 -116 -129q0 -34 43 -34q44 0 87 30z" />
    <glyph glyph-name="Ecaron" unicode="&#x11a;" horiz-adv-x="544" 
d="M341 721h-124l-156 177h139l79 -96l79 96h139zM220 276v-153h264v-123h-419v674h415v-123h-260v-153h232v-122h-232z" />
    <glyph glyph-name="ecaron" unicode="&#x11b;" horiz-adv-x="533" 
d="M334 553h-124l-156 177h139l79 -96l79 96h139zM353 300v12q-7 89 -78 89q-35 0 -62 -25.5t-36 -75.5h176zM458 151v-122q-52 -34 -159 -34q-125 0 -194.5 72.5t-69.5 186.5q0 121 67.5 189.5t166.5 68.5q102 0 161 -59.5t59 -177.5q0 -23 -8 -79h-298q15 -42 52 -65
t89 -23q77 0 134 43z" />
    <glyph glyph-name="Gcircumflex" unicode="&#x11c;" horiz-adv-x="706" 
d="M385 817l-79 -96h-139l156 177h124l156 -177h-139zM646 402v-340q-96 -70 -242 -70q-162 0 -263 93t-101 253q0 158 105.5 253t267.5 95q114 0 197 -42v-154q-96 55 -197 55q-95 0 -151 -56.5t-56 -150.5q0 -95 55 -151t150 -56q43 0 85 13v127h-109v131h259z" />
    <glyph glyph-name="gcircumflex" unicode="&#x11d;" horiz-adv-x="585" 
d="M309 650l-79 -96h-139l156 177h124l156 -177h-139zM285 133q47 0 73.5 35.5t26.5 85.5q0 136 -99 136q-44 0 -69 -34t-25 -94q0 -63 24 -96t69 -33zM385 507h145v-458q0 -122 -73 -183.5t-183 -61.5q-107 0 -187 38v149q70 -56 172 -56q66 0 96 28t30 88v34
q-44 -68 -140 -68q-84 0 -144.5 62t-60.5 184q0 108 58.5 178.5t153.5 70.5q90 0 133 -72v67z" />
    <glyph glyph-name="Gbreve" unicode="&#x11e;" horiz-adv-x="706" 
d="M464 898h112q0 -93 -54.5 -137t-143.5 -44t-143.5 44t-54.5 137h112q0 -42 23.5 -65.5t62.5 -23.5t62.5 23.5t23.5 65.5zM646 402v-340q-96 -70 -242 -70q-162 0 -263 93t-101 253q0 158 105.5 253t267.5 95q114 0 197 -42v-154q-96 55 -197 55q-95 0 -151 -56.5
t-56 -150.5q0 -95 55 -151t150 -56q43 0 85 13v127h-109v131h259z" />
    <glyph glyph-name="gbreve" unicode="&#x11f;" horiz-adv-x="585" 
d="M397 731h112q0 -93 -54.5 -137t-143.5 -44t-143.5 44t-54.5 137h112q0 -42 23.5 -65.5t62.5 -23.5t62.5 23.5t23.5 65.5zM285 133q47 0 73.5 35.5t26.5 85.5q0 136 -99 136q-44 0 -69 -34t-25 -94q0 -63 24 -96t69 -33zM385 507h145v-458q0 -122 -73 -183.5t-183 -61.5
q-107 0 -187 38v149q70 -56 172 -56q66 0 96 28t30 88v34q-44 -68 -140 -68q-84 0 -144.5 62t-60.5 184q0 108 58.5 178.5t153.5 70.5q90 0 133 -72v67z" />
    <glyph glyph-name="Gdotaccent" unicode="&#x120;" horiz-adv-x="706" 
d="M386 728q-36 0 -59.5 23.5t-23.5 58.5q0 34 23.5 57.5t59.5 23.5q35 0 58.5 -23.5t23.5 -57.5q0 -35 -23.5 -58.5t-58.5 -23.5zM646 402v-340q-96 -70 -242 -70q-162 0 -263 93t-101 253q0 158 105.5 253t267.5 95q114 0 197 -42v-154q-96 55 -197 55q-95 0 -151 -56.5
t-56 -150.5q0 -95 55 -151t150 -56q43 0 85 13v127h-109v131h259z" />
    <glyph glyph-name="gdotaccent" unicode="&#x121;" horiz-adv-x="585" 
d="M321 561q-36 0 -59.5 23.5t-23.5 58.5q0 34 23.5 57.5t59.5 23.5q35 0 58.5 -23.5t23.5 -57.5q0 -35 -23.5 -58.5t-58.5 -23.5zM285 133q47 0 73.5 35.5t26.5 85.5q0 136 -99 136q-44 0 -69 -34t-25 -94q0 -63 24 -96t69 -33zM385 507h145v-458q0 -122 -73 -183.5
t-183 -61.5q-107 0 -187 38v149q70 -56 172 -56q66 0 96 28t30 88v34q-44 -68 -140 -68q-84 0 -144.5 62t-60.5 184q0 108 58.5 178.5t153.5 70.5q90 0 133 -72v67z" />
    <glyph glyph-name="uni0122" unicode="&#x122;" horiz-adv-x="706" 
d="M229 -262l71 211h151l-116 -211h-106zM646 402v-340q-96 -70 -242 -70q-162 0 -263 93t-101 253q0 158 105.5 253t267.5 95q114 0 197 -42v-154q-96 55 -197 55q-95 0 -151 -56.5t-56 -150.5q0 -95 55 -151t150 -56q43 0 85 13v127h-109v131h259z" />
    <glyph glyph-name="uni0123" unicode="&#x123;" horiz-adv-x="585" 
d="M471 765l-71 -211h-151l116 211h106zM285 133q47 0 73.5 35.5t26.5 85.5q0 136 -99 136q-44 0 -69 -34t-25 -94q0 -63 24 -96t69 -33zM385 507h145v-458q0 -122 -73 -183.5t-183 -61.5q-107 0 -187 38v149q70 -56 172 -56q66 0 96 28t30 88v34q-44 -68 -140 -68
q-84 0 -144.5 62t-60.5 184q0 108 58.5 178.5t153.5 70.5q90 0 133 -72v67z" />
    <glyph glyph-name="Hcircumflex" unicode="&#x124;" horiz-adv-x="686" 
d="M341 817l-79 -96h-139l156 177h124l156 -177h-139zM466 674h155v-674h-155v269h-247v-269h-154v674h154v-274h247v274z" />
    <glyph glyph-name="hcircumflex" unicode="&#x125;" horiz-adv-x="580" 
d="M214 754l-79 96l-79 -96h-139l156 177h124l156 -177h-139zM206 707v-286q39 91 152 91q74 0 120.5 -47t46.5 -142v-323h-146v300q0 44 -22 69t-57 25q-15 0 -28.5 -4.5t-29.5 -16t-26 -39t-10 -66.5v-268h-146v707h146z" />
    <glyph glyph-name="Hbar" unicode="&#x126;" horiz-adv-x="794" 
d="M520 400v95h-247v-95h247zM749 577v-82h-74v-495h-155v269h-247v-269h-154v495h-74v82h74v97h154v-97h247v97h155v-97h74z" />
    <glyph glyph-name="hbar" unicode="&#x127;" horiz-adv-x="580" 
d="M206 564v-143q39 91 152 91q74 0 120.5 -47t46.5 -142v-323h-146v300q0 44 -22 69t-57 25q-15 0 -28.5 -4.5t-29.5 -16t-26 -39t-10 -66.5v-268h-146v564h-57v82h57v61h146v-61h151v-82h-151z" />
    <glyph glyph-name="Itilde" unicode="&#x128;" horiz-adv-x="304" 
d="M75 0v674h154v-674h-154zM270 887l74 -61q-42 -85 -136 -85q-33 0 -69 17.5t-51 17.5q-25 0 -39 -8.5t-36 -34.5l-65 64q16 34 47.5 58t68.5 24q36 0 76.5 -17.5t59.5 -17.5q48 0 70 43z" />
    <glyph glyph-name="itilde" unicode="&#x129;" horiz-adv-x="276" 
d="M65 0v507h146v-507h-146zM261 719l74 -61q-43 -85 -136 -85q-33 0 -69 17.5t-51 17.5q-25 0 -39 -8.5t-36 -34.5l-65 64q16 34 47.5 58t68.5 24q36 0 76.5 -17.5t59.5 -17.5q49 0 70 43z" />
    <glyph glyph-name="Imacron" unicode="&#x12a;" horiz-adv-x="304" 
d="M75 0v674h154v-674h-154zM330 760h-356v99h356v-99z" />
    <glyph glyph-name="imacron" unicode="&#x12b;" horiz-adv-x="276" 
d="M65 0v507h146v-507h-146zM316 593h-356v99h356v-99z" />
    <glyph glyph-name="Ibreve" unicode="&#x12c;" horiz-adv-x="304" 
d="M-44 898h112q0 -42 23.5 -65.5t62.5 -23.5t62.5 23.5t23.5 65.5h112q0 -93 -54.5 -137t-143.5 -44t-143.5 44t-54.5 137zM75 0v674h154v-674h-154z" />
    <glyph glyph-name="ibreve" unicode="&#x12d;" horiz-adv-x="276" 
d="M-60 730h112q0 -42 23.5 -65.5t62.5 -23.5t62.5 23.5t23.5 65.5h112q0 -93 -54.5 -137t-143.5 -44t-143.5 44t-54.5 137zM65 0v507h146v-507h-146z" />
    <glyph glyph-name="Iogonek" unicode="&#x12e;" horiz-adv-x="304" 
d="M229 674v-674q-118 -73 -118 -130q0 -34 43 -34q44 0 87 30v-101q-48 -25 -109 -25q-70 0 -103.5 33t-33.5 84q0 79 80 144v673h154z" />
    <glyph glyph-name="iogonek" unicode="&#x12f;" horiz-adv-x="276" 
d="M138 569q-35 0 -60 25t-25 60t25 60t60 25t60 -25t25 -60t-25 -60t-60 -25zM211 507v-507q-118 -73 -118 -130q0 -34 43 -34q44 0 87 30v-101q-48 -25 -109 -25q-70 0 -103.5 33t-33.5 84q0 81 88 150v500h146z" />
    <glyph glyph-name="Idotaccent" unicode="&#x130;" horiz-adv-x="304" 
d="M75 0v674h154v-674h-154zM71 810q0 34 23.5 57.5t59.5 23.5q35 0 58.5 -23.5t23.5 -57.5q0 -35 -23.5 -58.5t-58.5 -23.5q-36 0 -59.5 23.5t-23.5 58.5z" />
    <glyph glyph-name="dotlessi" unicode="&#x131;" horiz-adv-x="276" 
d="M65 0v507h146v-507h-146z" />
    <glyph glyph-name="IJ" unicode="&#x132;" horiz-adv-x="672" 
d="M75 0v674h154v-674h-154zM310 19v136q37 -23 77 -23q71 0 71 76v465h154v-469q0 -97 -51.5 -151t-143.5 -54q-69 0 -107 20z" />
    <glyph glyph-name="ij" unicode="&#x133;" horiz-adv-x="534" 
d="M65 0v507h146v-507h-146zM53 654q0 35 25 60t60 25t60 -25t25 -60t-25 -60t-60 -25t-60 25t-25 60zM220 -182v111q33 -15 57 -15q52 0 52 67v526h145v-528q0 -80 -45 -128.5t-130 -48.5q-35 0 -79 16zM316 654q0 35 25 60t60 25t60 -25t25 -60t-25 -60t-60 -25t-60 25
t-25 60z" />
    <glyph glyph-name="Jcircumflex" unicode="&#x134;" horiz-adv-x="392" 
d="M30 19v136q37 -23 77 -23q71 0 71 76v465h154v-469q0 -97 -51.5 -151t-143.5 -54q-69 0 -107 20zM195 898h124l156 -177h-139l-79 96l-79 -96h-139z" />
    <glyph glyph-name="jcircumflex" unicode="&#x135;" horiz-adv-x="274" 
d="M80 730h124l156 -177h-139l-79 96l-79 -96h-139zM-40 -182v111q33 -15 57 -15q52 0 52 67v526h145v-528q0 -80 -45 -128.5t-130 -48.5q-35 0 -79 16z" />
    <glyph glyph-name="uni0136" unicode="&#x136;" horiz-adv-x="662" 
d="M219 674v-674h-154v674h154zM189 -262l71 211h151l-116 -211h-106zM406 337l239 -337h-193l-226 335l218 339h183z" />
    <glyph glyph-name="uni0137" unicode="&#x137;" horiz-adv-x="548" 
d="M206 249v-249h-146v690h146v-410l160 227h168l-176 -243l179 -264h-169zM148 -262l71 211h151l-116 -211h-106z" />
    <glyph glyph-name="kgreenlandic" unicode="&#x138;" horiz-adv-x="548" 
d="M537 0h-169l-162 249v-249h-146v507h146v-227l160 227h168l-176 -243z" />
    <glyph glyph-name="Lacute" unicode="&#x139;" horiz-adv-x="488" 
d="M488 898l-111 -177h-121l86 177h146zM219 674v-539h249v-135h-403v674h154z" />
    <glyph glyph-name="lacute" unicode="&#x13a;" horiz-adv-x="276" 
d="M75 754l86 177h146l-111 -177h-121zM65 0v707h146v-707h-146z" />
    <glyph glyph-name="uni013B" unicode="&#x13b;" horiz-adv-x="488" 
d="M139 -262l71 211h151l-116 -211h-106zM219 135h249v-135h-403v674h154v-539z" />
    <glyph glyph-name="uni013C" unicode="&#x13c;" horiz-adv-x="276" 
d="M65 0v707h146v-707h-146zM-11 -262l71 211h151l-116 -211h-106z" />
    <glyph glyph-name="Lcaron" unicode="&#x13d;" horiz-adv-x="488" 
d="M501 699l-116 -211h-106l71 211h151zM219 674v-539h249v-135h-403v674h154z" />
    <glyph glyph-name="lcaron" unicode="&#x13e;" horiz-adv-x="276" 
d="M65 0v707h146v-707h-146zM269 498l71 211h151l-116 -211h-106z" />
    <glyph glyph-name="Ldot" unicode="&#x13f;" horiz-adv-x="506" 
d="M389 312q-36 0 -59.5 23.5t-23.5 58.5q0 34 23.5 57.5t59.5 23.5q35 0 58.5 -23.5t23.5 -57.5q0 -35 -23.5 -58.5t-58.5 -23.5zM219 674v-539h249v-135h-403v674h154z" />
    <glyph glyph-name="ldot" unicode="&#x140;" horiz-adv-x="501" 
d="M60 0v707h146v-707h-146zM306 371q0 34 23.5 57.5t59.5 23.5q35 0 58.5 -23.5t23.5 -57.5q0 -35 -23.5 -58.5t-58.5 -23.5q-36 0 -59.5 23.5t-23.5 58.5z" />
    <glyph glyph-name="Lslash" unicode="&#x141;" horiz-adv-x="563" 
d="M279 135h249v-135h-403v205l-80 -45v121l80 45v348h154v-262l164 92v-121l-164 -92v-156z" />
    <glyph glyph-name="lslash" unicode="&#x142;" horiz-adv-x="341" 
d="M331 540v-121l-83 -57v-362h-146v263l-77 -53v121l77 53v323h146v-224z" />
    <glyph glyph-name="Nacute" unicode="&#x143;" horiz-adv-x="697" 
d="M302 721l86 177h146l-111 -177h-121zM65 0v674h169l157 -279q33 -59 57.5 -110.5t31.5 -72.5l8 -22q-10 74 -10 205v279h154v-674h-169l-161 279q-32 54 -56.5 106.5t-33.5 77.5l-8 25q15 -90 15 -209v-279h-154z" />
    <glyph glyph-name="nacute" unicode="&#x144;" horiz-adv-x="580" 
d="M490 731l-111 -177h-121l86 177h146zM206 507v-86q19 42 58.5 66.5t94.5 24.5q78 0 122 -46.5t44 -136.5v-329h-146v302q0 45 -21 68.5t-59 23.5q-40 0 -66.5 -31.5t-26.5 -94.5v-268h-146v507h146z" />
    <glyph glyph-name="uni0145" unicode="&#x145;" horiz-adv-x="697" 
d="M209 -262l71 211h151l-116 -211h-106zM65 0v674h169l157 -279q33 -59 57.5 -110.5t31.5 -72.5l8 -22q-10 74 -10 205v279h154v-674h-169l-161 279q-32 54 -56.5 106.5t-33.5 77.5l-8 25q15 -90 15 -209v-279h-154z" />
    <glyph glyph-name="uni0146" unicode="&#x146;" horiz-adv-x="580" 
d="M149 -262l71 211h151l-116 -211h-106zM206 507v-86q19 42 58.5 66.5t94.5 24.5q78 0 122 -46.5t44 -136.5v-329h-146v302q0 45 -21 68.5t-59 23.5q-40 0 -66.5 -31.5t-26.5 -94.5v-268h-146v507h146z" />
    <glyph glyph-name="Ncaron" unicode="&#x147;" horiz-adv-x="697" 
d="M65 0v674h169l157 -279q33 -59 57.5 -110.5t31.5 -72.5l8 -22q-10 74 -10 205v279h154v-674h-169l-161 279q-32 54 -56.5 106.5t-33.5 77.5l-8 25q15 -90 15 -209v-279h-154zM415 721h-124l-156 177h139l79 -96l79 96h139z" />
    <glyph glyph-name="ncaron" unicode="&#x148;" horiz-adv-x="580" 
d="M361 554h-124l-156 177h139l79 -96l79 96h139zM206 507v-86q19 42 58.5 66.5t94.5 24.5q78 0 122 -46.5t44 -136.5v-329h-146v302q0 45 -21 68.5t-59 23.5q-40 0 -66.5 -31.5t-26.5 -94.5v-268h-146v507h146z" />
    <glyph glyph-name="napostrophe" unicode="&#x149;" horiz-adv-x="668" 
d="M61 694h129l-109 -210h-102zM294 507v-86q19 42 58.5 66.5t94.5 24.5q78 0 122 -46.5t44 -136.5v-329h-146v302q0 45 -21 68.5t-59 23.5q-40 0 -66.5 -31.5t-26.5 -94.5v-268h-146v507h146z" />
    <glyph glyph-name="Eng" unicode="&#x14a;" horiz-adv-x="697" 
d="M478 674h154v-674q-2 -94 -53.5 -145.5t-141.5 -51.5q-69 0 -107 20v136q37 -23 77 -23q65 0 71 64h-15l-161 279q-32 54 -56.5 106.5t-33.5 77.5l-8 25q15 -90 15 -209v-279h-154v674h169l157 -279q33 -59 57.5 -110.5t31.5 -72.5l8 -22q-10 74 -10 205v279z" />
    <glyph glyph-name="eng" unicode="&#x14b;" horiz-adv-x="580" 
d="M206 507v-86q19 42 58.5 66.5t94.5 24.5q78 0 122 -46.5t44 -136.5v-350q0 -80 -45 -128.5t-130 -48.5q-35 0 -79 16v111q33 -15 57 -15q51 0 51 67v321q0 45 -21 68.5t-59 23.5q-40 0 -66.5 -31.5t-26.5 -94.5v-268h-146v507h146z" />
    <glyph glyph-name="Omacron" unicode="&#x14c;" horiz-adv-x="736" 
d="M545 760h-356v99h356v-99zM40 339q0 155 89.5 250.5t238.5 95.5q150 0 239 -95t89 -251q0 -155 -89.5 -250.5t-238.5 -95.5q-150 0 -239 95t-89 251zM205 339q0 -95 44 -150.5t119 -55.5t119 55.5t44 150.5t-44 150.5t-119 55.5t-119 -55.5t-44 -150.5z" />
    <glyph glyph-name="omacron" unicode="&#x14d;" horiz-adv-x="567" 
d="M462 593h-356v99h356v-99zM284 -8q-119 0 -184 71.5t-65 183.5q0 117 68 192.5t181 75.5q118 0 183 -73t65 -186q0 -115 -65.5 -189.5t-182.5 -74.5zM283 400q-48 0 -72 -41t-24 -106t24.5 -106.5t73.5 -41.5q48 0 71.5 40.5t23.5 105.5q0 149 -97 149z" />
    <glyph glyph-name="Obreve" unicode="&#x14e;" horiz-adv-x="736" 
d="M183 898h112q0 -42 23.5 -65.5t62.5 -23.5t62.5 23.5t23.5 65.5h112q0 -93 -54.5 -137t-143.5 -44t-143.5 44t-54.5 137zM205 339q0 -95 44 -150.5t119 -55.5t119 55.5t44 150.5t-44 150.5t-119 55.5t-119 -55.5t-44 -150.5zM40 339q0 155 89.5 250.5t238.5 95.5
q150 0 239 -95t89 -251q0 -155 -89.5 -250.5t-238.5 -95.5q-150 0 -239 95t-89 251z" />
    <glyph glyph-name="obreve" unicode="&#x14f;" horiz-adv-x="567" 
d="M90 731h112q0 -42 23.5 -65.5t62.5 -23.5t62.5 23.5t23.5 65.5h112q0 -93 -54.5 -137t-143.5 -44t-143.5 44t-54.5 137zM283 400q-48 0 -72 -41t-24 -106t24.5 -106.5t73.5 -41.5q48 0 71.5 40.5t23.5 105.5q0 149 -97 149zM284 -8q-119 0 -184 71.5t-65 183.5
q0 117 68 192.5t181 75.5q118 0 183 -73t65 -186q0 -115 -65.5 -189.5t-182.5 -74.5z" />
    <glyph glyph-name="Ohungarumlaut" unicode="&#x150;" horiz-adv-x="736" 
d="M415 721l94 177h145l-131 -177h-108zM228 721l86 177h133l-111 -177h-108zM40 339q0 155 89.5 250.5t238.5 95.5q150 0 239 -95t89 -251q0 -155 -89.5 -250.5t-238.5 -95.5q-150 0 -239 95t-89 251zM205 339q0 -95 44 -150.5t119 -55.5t119 55.5t44 150.5t-44 150.5
t-119 55.5t-119 -55.5t-44 -150.5z" />
    <glyph glyph-name="ohungarumlaut" unicode="&#x151;" horiz-adv-x="567" 
d="M338 554l94 177h145l-131 -177h-108zM151 554l86 177h133l-111 -177h-108zM284 -8q-119 0 -184 71.5t-65 183.5q0 117 68 192.5t181 75.5q118 0 183 -73t65 -186q0 -115 -65.5 -189.5t-182.5 -74.5zM283 400q-48 0 -72 -41t-24 -106t24.5 -106.5t73.5 -41.5
q48 0 71.5 40.5t23.5 105.5q0 149 -97 149z" />
    <glyph glyph-name="OE" unicode="&#x152;" horiz-adv-x="1000" 
d="M363 133q74 0 116 55.5t42 150.5t-42 150.5t-116 55.5t-116 -55.5t-42 -150.5t42 -150.5t116 -55.5zM666 123h274v-123h-419v44q-70 -51 -158 -51q-149 0 -236 94.5t-87 251.5q0 156 87 251t236 95q88 0 158 -50v39h415v-123h-270v-153h242v-122h-242v-153z" />
    <glyph glyph-name="oe" unicode="&#x153;" horiz-adv-x="879" 
d="M529 300h176q0 4 -0.5 11t-0.5 10q-9 80 -77 80q-35 0 -62 -25.5t-36 -75.5zM285 105q49 0 75.5 41t26.5 105q0 65 -26 107t-78 42q-48 0 -72 -41t-24 -106t24.5 -106.5t73.5 -41.5zM810 151v-122q-52 -34 -159 -34q-117 0 -191 74q-67 -77 -176 -77q-119 0 -184 71.5
t-65 183.5q0 117 68 192.5t181 75.5q108 0 174 -72q69 69 163 69q102 0 161 -59.5t59 -177.5q0 -23 -8 -79h-298q15 -42 52 -65t89 -23q77 0 134 43z" />
    <glyph glyph-name="Racute" unicode="&#x154;" horiz-adv-x="614" 
d="M466 898l-111 -177h-121l86 177h146zM219 549v-190h73q100 0 100 98q0 43 -26 67.5t-71 24.5h-76zM412 0l-146 234h-47v-234h-154v674h233q113 0 181.5 -60t68.5 -156q0 -144 -123 -199l171 -259h-184z" />
    <glyph glyph-name="racute" unicode="&#x155;" horiz-adv-x="370" 
d="M391 731l-111 -177h-121l86 177h146zM205 507v-94q14 44 46.5 70.5t75.5 26.5q24 0 38 -4v-138q-24 11 -55 11q-47 0 -76 -34.5t-29 -91.5v-253h-146l1 507h145z" />
    <glyph glyph-name="uni0156" unicode="&#x156;" horiz-adv-x="614" 
d="M165 -262l71 211h151l-116 -211h-106zM219 549v-190h73q100 0 100 98q0 43 -26 67.5t-71 24.5h-76zM425 259l171 -259h-184l-146 234h-47v-234h-154v674h233q113 0 181.5 -60t68.5 -156q0 -144 -123 -199z" />
    <glyph glyph-name="uni0157" unicode="&#x157;" horiz-adv-x="370" 
d="M-20 -262l71 211h151l-116 -211h-106zM205 507v-94q14 44 46.5 70.5t75.5 26.5q24 0 38 -4v-138q-24 11 -55 11q-47 0 -76 -34.5t-29 -91.5v-253h-146l1 507h145z" />
    <glyph glyph-name="Rcaron" unicode="&#x158;" horiz-adv-x="614" 
d="M378 721h-124l-156 177h139l79 -96l79 96h139zM219 549v-190h73q100 0 100 98q0 43 -26 67.5t-71 24.5h-76zM412 0l-146 234h-47v-234h-154v674h233q113 0 181.5 -60t68.5 -156q0 -144 -123 -199l171 -259h-184z" />
    <glyph glyph-name="rcaron" unicode="&#x159;" horiz-adv-x="370" 
d="M274 554h-124l-156 177h139l79 -96l79 96h139zM205 507v-94q14 44 46.5 70.5t75.5 26.5q24 0 38 -4v-138q-24 11 -55 11q-47 0 -76 -34.5t-29 -91.5v-253h-146l1 507h145z" />
    <glyph glyph-name="Sacute" unicode="&#x15a;" horiz-adv-x="514" 
d="M202 721l86 177h146l-111 -177h-121zM454 644v-144q-81 47 -168 47q-39 0 -59.5 -16t-20.5 -41t25 -44.5t75 -41.5q31 -14 51.5 -24.5t47 -29t42 -39t26.5 -50.5t11 -65q0 -91 -67 -147.5t-178 -56.5q-119 0 -194 42v155q91 -66 194 -66q35 0 58 18.5t23 48.5q0 10 -3 19
t-11 17t-15.5 13.5t-22 13l-24.5 12.5t-29.5 14t-31.5 14q-65 30 -104.5 74t-39.5 117q0 87 64 140.5t177 53.5q101 0 174 -34z" />
    <glyph glyph-name="sacute" unicode="&#x15b;" horiz-adv-x="436" 
d="M181 554l86 177h146l-111 -177h-121zM380 492v-125q-53 31 -124 31q-26 0 -40 -10.5t-14 -26.5q0 -9 5 -17t16.5 -15t22 -12.5t29 -13.5t29.5 -14q46 -24 74 -55.5t28 -80.5q0 -75 -54 -116t-143 -41q-92 0 -154 31v130q69 -48 146 -48q55 0 55 35q0 9 -5 17t-17 15
t-22 11.5l-29 12.5t-29 13q-101 48 -101 144q0 74 56.5 115t140.5 41q78 0 130 -21z" />
    <glyph glyph-name="Scircumflex" unicode="&#x15c;" horiz-adv-x="514" 
d="M454 644v-144q-81 47 -168 47q-39 0 -59.5 -16t-20.5 -41t25 -44.5t75 -41.5q31 -14 51.5 -24.5t47 -29t42 -39t26.5 -50.5t11 -65q0 -91 -67 -147.5t-178 -56.5q-119 0 -194 42v155q91 -66 194 -66q35 0 58 18.5t23 48.5q0 10 -3 19t-11 17t-15.5 13.5t-22 13
l-24.5 12.5t-29.5 14t-31.5 14q-65 30 -104.5 74t-39.5 117q0 87 64 140.5t177 53.5q101 0 174 -34zM209 898h124l156 -177h-139l-79 96l-79 -96h-139z" />
    <glyph glyph-name="scircumflex" unicode="&#x15d;" horiz-adv-x="436" 
d="M380 492v-125q-53 31 -124 31q-26 0 -40 -10.5t-14 -26.5q0 -9 5 -17t16.5 -15t22 -12.5t29 -13.5t29.5 -14q46 -24 74 -55.5t28 -80.5q0 -75 -54 -116t-143 -41q-92 0 -154 31v130q69 -48 146 -48q55 0 55 35q0 9 -5 17t-17 15t-22 11.5l-29 12.5t-29 13
q-101 48 -101 144q0 74 56.5 115t140.5 41q78 0 130 -21zM178 731h124l156 -177h-139l-79 96l-79 -96h-139z" />
    <glyph glyph-name="uni015E" unicode="&#x15e;" horiz-adv-x="514" 
d="M454 644v-144q-81 47 -168 47q-39 0 -59.5 -16t-20.5 -41t25 -44.5t75 -41.5q31 -14 51.5 -24.5t47 -29t42 -39t26.5 -50.5t11 -65q0 -91 -67 -147.5t-178 -56.5q-119 0 -194 42v155q91 -66 194 -66q35 0 58 18.5t23 48.5q0 10 -3 19t-11 17t-15.5 13.5t-22 13
l-24.5 12.5t-29.5 14t-31.5 14q-65 30 -104.5 74t-39.5 117q0 87 64 140.5t177 53.5q101 0 174 -34zM339 -125q0 -63 -45.5 -103t-133.5 -40v91q36 0 55.5 17t19.5 47q0 28 -26 62h113q17 -27 17 -74z" />
    <glyph glyph-name="uni015F" unicode="&#x15f;" horiz-adv-x="436" 
d="M380 492v-125q-53 31 -124 31q-26 0 -40 -10.5t-14 -26.5q0 -9 5 -17t16.5 -15t22 -12.5t29 -13.5t29.5 -14q46 -24 74 -55.5t28 -80.5q0 -75 -54 -116t-143 -41q-92 0 -154 31v130q69 -48 146 -48q55 0 55 35q0 9 -5 17t-17 15t-22 11.5l-29 12.5t-29 13
q-101 48 -101 144q0 74 56.5 115t140.5 41q78 0 130 -21zM299 -125q0 -63 -45.5 -103t-133.5 -40v91q36 0 55.5 17t19.5 47q0 28 -26 62h113q17 -27 17 -74z" />
    <glyph glyph-name="Scaron" unicode="&#x160;" horiz-adv-x="514" 
d="M454 644v-144q-81 47 -168 47q-39 0 -59.5 -16t-20.5 -41t25 -44.5t75 -41.5q31 -14 51.5 -24.5t47 -29t42 -39t26.5 -50.5t11 -65q0 -91 -67 -147.5t-178 -56.5q-119 0 -194 42v155q91 -66 194 -66q35 0 58 18.5t23 48.5q0 10 -3 19t-11 17t-15.5 13.5t-22 13
l-24.5 12.5t-29.5 14t-31.5 14q-65 30 -104.5 74t-39.5 117q0 87 64 140.5t177 53.5q101 0 174 -34zM328 721h-124l-156 177h139l79 -96l79 96h139z" />
    <glyph glyph-name="scaron" unicode="&#x161;" horiz-adv-x="436" 
d="M380 492v-125q-53 31 -124 31q-26 0 -40 -10.5t-14 -26.5q0 -9 5 -17t16.5 -15t22 -12.5t29 -13.5t29.5 -14q46 -24 74 -55.5t28 -80.5q0 -75 -54 -116t-143 -41q-92 0 -154 31v130q69 -48 146 -48q55 0 55 35q0 9 -5 17t-17 15t-22 11.5l-29 12.5t-29 13
q-101 48 -101 144q0 74 56.5 115t140.5 41q78 0 130 -21zM301 553h-124l-156 177h139l79 -96l79 96h139z" />
    <glyph glyph-name="uni0162" unicode="&#x162;" horiz-adv-x="544" 
d="M122 -262l71 211h151l-116 -211h-106zM514 674v-124h-164v-550h-155v550h-165v124h484z" />
    <glyph glyph-name="uni0163" unicode="&#x163;" horiz-adv-x="386" 
d="M85 -262l71 211h151l-116 -211h-106zM229 400v-233q0 -27 15.5 -41t40.5 -14q40 0 71 20v-121q-37 -16 -100 -16q-173 0 -173 173v232h-73v107h73v120h146v-120h118v-107h-118z" />
    <glyph glyph-name="Tcaron" unicode="&#x164;" horiz-adv-x="544" 
d="M334 721h-124l-156 177h139l79 -96l79 96h139zM514 674v-124h-164v-550h-155v550h-165v124h484z" />
    <glyph glyph-name="tcaron" unicode="&#x165;" horiz-adv-x="386" 
d="M229 400v-233q0 -27 15.5 -41t40.5 -14q40 0 71 20v-121q-37 -16 -100 -16q-173 0 -173 173v232h-73v107h73v120h146v-120h118v-107h-118zM351 799h151l-116 -211h-106z" />
    <glyph glyph-name="Tbar" unicode="&#x166;" horiz-adv-x="544" 
d="M514 550h-164v-165h110v-113h-110v-272h-155v272h-110v113h110v165h-165v124h484v-124z" />
    <glyph glyph-name="tbar" unicode="&#x167;" horiz-adv-x="426" 
d="M249 220v-53q0 -27 15.5 -41t40.5 -14q40 0 71 20v-121q-37 -16 -100 -16q-173 0 -173 173v52h-73v102h73v83h-73v102h73v120h146v-120h118v-102h-118v-83h118v-102h-118z" />
    <glyph glyph-name="Utilde" unicode="&#x168;" horiz-adv-x="668" 
d="M454 260v414h154v-413q0 -132 -74 -201.5t-200 -69.5q-124 0 -199 69t-75 195v420h154v-419q0 -125 120 -125t120 130zM466 886l74 -61q-42 -85 -136 -85q-33 0 -69 17.5t-51 17.5q-25 0 -39 -8.5t-36 -34.5l-65 64q16 34 47.5 58t68.5 24q36 0 76.5 -17.5t59.5 -17.5
q48 0 70 43z" />
    <glyph glyph-name="utilde" unicode="&#x169;" horiz-adv-x="580" 
d="M418 719l74 -61q-42 -85 -136 -85q-33 0 -69 17.5t-51 17.5q-25 0 -39 -8.5t-36 -34.5l-65 64q16 34 47.5 58t68.5 24q36 0 76.5 -17.5t59.5 -17.5q48 0 70 43zM374 507h146v-507h-146v81q-40 -85 -154 -85q-78 0 -121.5 43.5t-43.5 128.5v339h146v-306q0 -89 78 -89
q95 0 95 127v268z" />
    <glyph glyph-name="Umacron" unicode="&#x16a;" horiz-adv-x="668" 
d="M454 260v414h154v-413q0 -132 -74 -201.5t-200 -69.5q-124 0 -199 69t-75 195v420h154v-419q0 -125 120 -125t120 130zM520 760h-356v99h356v-99z" />
    <glyph glyph-name="umacron" unicode="&#x16b;" horiz-adv-x="580" 
d="M464 692v-99h-356v99h356zM374 507h146v-507h-146v81q-40 -85 -154 -85q-78 0 -121.5 43.5t-43.5 128.5v339h146v-306q0 -89 78 -89q95 0 95 127v268z" />
    <glyph glyph-name="Ubreve" unicode="&#x16c;" horiz-adv-x="668" 
d="M132 898h112q0 -42 23.5 -65.5t62.5 -23.5t62.5 23.5t23.5 65.5h112q0 -93 -54.5 -137t-143.5 -44t-143.5 44t-54.5 137zM454 260v414h154v-413q0 -132 -74 -201.5t-200 -69.5q-124 0 -199 69t-75 195v420h154v-419q0 -125 120 -125t120 130z" />
    <glyph glyph-name="ubreve" unicode="&#x16d;" horiz-adv-x="580" 
d="M378 731h112q0 -93 -54.5 -137t-143.5 -44t-143.5 44t-54.5 137h112q0 -42 23.5 -65.5t62.5 -23.5t62.5 23.5t23.5 65.5zM374 507h146v-507h-146v81q-40 -85 -154 -85q-78 0 -121.5 43.5t-43.5 128.5v339h146v-306q0 -89 78 -89q95 0 95 127v268z" />
    <glyph glyph-name="Uring" unicode="&#x16e;" horiz-adv-x="668" 
d="M200 846q0 56 40 96t96 40t96 -40t40 -96t-40 -96t-96 -40t-96 40t-40 96zM283 849q0 -23 15 -39.5t38 -16.5t38 16.5t15 39.5t-15 39.5t-38 16.5t-38 -16.5t-15 -39.5zM454 260v414h154v-413q0 -132 -74 -201.5t-200 -69.5q-124 0 -199 69t-75 195v420h154v-419
q0 -125 120 -125t120 130z" />
    <glyph glyph-name="uring" unicode="&#x16f;" horiz-adv-x="580" 
d="M291 738q-23 0 -38 -16.5t-15 -39.5t15 -39.5t38 -16.5t38 16.5t15 39.5t-15 39.5t-38 16.5zM291 543q-56 0 -96 40t-40 96t40 96t96 40t96 -40t40 -96t-40 -96t-96 -40zM374 507h146v-507h-146v81q-40 -85 -154 -85q-78 0 -121.5 43.5t-43.5 128.5v339h146v-306
q0 -89 78 -89q95 0 95 127v268z" />
    <glyph glyph-name="Uhungarumlaut" unicode="&#x170;" horiz-adv-x="668" 
d="M454 260v414h154v-413q0 -132 -74 -201.5t-200 -69.5q-124 0 -199 69t-75 195v420h154v-419q0 -125 120 -125t120 130zM377 721l94 177h145l-131 -177h-108zM190 721l86 177h133l-111 -177h-108z" />
    <glyph glyph-name="uhungarumlaut" unicode="&#x171;" horiz-adv-x="580" 
d="M445 554h-108l94 177h145zM369 731l-111 -177h-108l86 177h133zM374 239v268h146v-507h-146v81q-40 -85 -154 -85q-78 0 -121.5 43.5t-43.5 128.5v339h146v-306q0 -89 78 -89q95 0 95 127z" />
    <glyph glyph-name="Uogonek" unicode="&#x172;" horiz-adv-x="668" 
d="M454 674h154v-413q0 -98 -42.5 -162.5t-117.5 -90.5q-118 -73 -118 -130q0 -34 43 -34q44 0 87 30v-101q-48 -25 -109 -25q-70 0 -103.5 33t-33.5 84q0 68 63 129q-100 15 -158.5 82t-58.5 178v420h154v-419q0 -125 120 -125t120 130v414z" />
    <glyph glyph-name="uogonek" unicode="&#x173;" horiz-adv-x="580" 
d="M520 507v-507q-118 -73 -118 -130q0 -34 43 -34q44 0 87 30v-101q-48 -25 -109 -25q-70 0 -103.5 33t-33.5 84q0 81 88 150v74q-40 -85 -154 -85q-78 0 -121.5 43.5t-43.5 128.5v339h146v-306q0 -89 78 -89q95 0 95 127v268h146z" />
    <glyph glyph-name="Wcircumflex" unicode="&#x174;" horiz-adv-x="971" 
d="M431 664h114l66 -238q21 -75 37.5 -139.5t22.5 -91.5l6 -27q13 89 56 259l62 247h157l-180 -674h-172l-59 213l-34.5 130t-16.5 68l-2 15q-3 -41 -54 -213l-62 -213h-172l-181 674h162l62 -248q20 -80 33 -144.5t16 -89.5l4 -24q17 78 68 258zM430 898h124l156 -177h-139
l-79 96l-79 -96h-139z" />
    <glyph glyph-name="wcircumflex" unicode="&#x175;" horiz-adv-x="806" 
d="M168 0l-163 507h151l44 -167q16 -63 27 -113.5t13 -69.5l3 -19q7 60 49 202l49 167h126l48 -167q18 -64 30 -114.5t15 -69.5l3 -18q7 59 47 202l47 167h144l-162 -507h-150l-44 166q-14 54 -24.5 101t-13.5 67l-3 20q-10 -67 -42 -188l-44 -166h-150zM345 731h124
l156 -177h-139l-79 96l-79 -96h-139z" />
    <glyph glyph-name="Ycircumflex" unicode="&#x176;" horiz-adv-x="643" 
d="M321 817l-79 -96h-139l156 177h124l156 -177h-139zM630 674l-233 -426v-248h-154v247l-230 427h180l41 -98l53 -130l27 -70l5 -16q10 45 88 216l44 98h179z" />
    <glyph glyph-name="ycircumflex" unicode="&#x177;" horiz-adv-x="532" 
d="M207 731h124l156 -177h-139l-79 96l-79 -96h-139zM201 8l-196 499h159l55 -158q21 -61 34.5 -105t16.5 -58l3 -14q11 40 54 177l50 158h150l-183 -492q-79 -213 -241 -213q-31 0 -56 5v116q16 -4 34 -4q83 0 120 89z" />
    <glyph glyph-name="Ydieresis" unicode="&#x178;" horiz-adv-x="643" 
d="M463 727q-36 0 -59.5 23.5t-23.5 58.5q0 34 23.5 57.5t59.5 23.5q35 0 59 -23.5t24 -57.5q0 -35 -24 -58.5t-59 -23.5zM195 727q-36 0 -59.5 23.5t-23.5 58.5q0 34 23.5 57.5t59.5 23.5q35 0 58.5 -23.5t23.5 -57.5q0 -35 -23.5 -58.5t-58.5 -23.5zM630 674l-233 -426
v-248h-154v247l-230 427h180l41 -98l53 -130l27 -70l5 -16q10 45 88 216l44 98h179z" />
    <glyph glyph-name="Zacute" unicode="&#x179;" horiz-adv-x="621" 
d="M272 721l86 177h146l-111 -177h-121zM549 674v-109l-304 -441h316v-124h-501v113l302 437h-296v124h483z" />
    <glyph glyph-name="zacute" unicode="&#x17a;" horiz-adv-x="479" 
d="M200 553l86 177h146l-111 -177h-121zM427 507v-101l-222 -293h234v-113h-399v105l222 290h-213v112h378z" />
    <glyph glyph-name="Zdotaccent" unicode="&#x17b;" horiz-adv-x="621" 
d="M549 674v-109l-304 -441h316v-124h-501v113l302 437h-296v124h483zM246 810q0 34 23.5 57.5t59.5 23.5q35 0 58.5 -23.5t23.5 -57.5q0 -35 -23.5 -58.5t-58.5 -23.5q-36 0 -59.5 23.5t-23.5 58.5z" />
    <glyph glyph-name="zdotaccent" unicode="&#x17c;" horiz-adv-x="479" 
d="M427 507v-101l-222 -293h234v-113h-399v105l222 290h-213v112h378zM169 642q0 34 23.5 57.5t59.5 23.5q35 0 58.5 -23.5t23.5 -57.5q0 -35 -23.5 -58.5t-58.5 -23.5q-36 0 -59.5 23.5t-23.5 58.5z" />
    <glyph glyph-name="Zcaron" unicode="&#x17d;" horiz-adv-x="621" 
d="M549 674v-109l-304 -441h316v-124h-501v113l302 437h-296v124h483zM382 721h-124l-156 177h139l79 -96l79 96h139z" />
    <glyph glyph-name="zcaron" unicode="&#x17e;" horiz-adv-x="479" 
d="M427 507v-101l-222 -293h234v-113h-399v105l222 290h-213v112h378zM321 554h-124l-156 177h139l79 -96l79 96h139z" />
    <glyph glyph-name="longs" unicode="&#x17f;" horiz-adv-x="305" 
d="M335 760v-118q-27 11 -52 11q-37 0 -55 -17t-18 -60v-576h-145v576q0 92 51.5 143t142.5 51q47 0 76 -10z" />
    <glyph glyph-name="florin" unicode="&#x192;" horiz-adv-x="522" 
d="M190 386l12 79q15 98 66 156t138 58q57 0 86 -10v-118q-28 11 -57 11q-72 0 -88 -107l-11 -69h96v-107h-112l-50 -321q-15 -98 -66 -156t-138 -58q-61 0 -96 15v118q32 -16 72 -16q38 0 56.5 26.5t26.5 80.5l48 311h-87v107h104z" />
    <glyph glyph-name="uni0218" unicode="&#x218;" horiz-adv-x="514" 
d="M454 644v-144q-81 47 -168 47q-39 0 -59.5 -16t-20.5 -41t25 -44.5t75 -41.5q31 -14 51.5 -24.5t47 -29t42 -39t26.5 -50.5t11 -65q0 -91 -67 -147.5t-178 -56.5q-119 0 -194 42v155q91 -66 194 -66q35 0 58 18.5t23 48.5q0 10 -3 19t-11 17t-15.5 13.5t-22 13
l-24.5 12.5t-29.5 14t-31.5 14q-65 30 -104.5 74t-39.5 117q0 87 64 140.5t177 53.5q101 0 174 -34zM119 -262l71 211h151l-116 -211h-106z" />
    <glyph glyph-name="uni0219" unicode="&#x219;" horiz-adv-x="436" 
d="M79 -262l71 211h151l-116 -211h-106zM380 492v-125q-53 31 -124 31q-26 0 -40 -10.5t-14 -26.5q0 -9 5 -17t16.5 -15t22 -12.5t29 -13.5t29.5 -14q46 -24 74 -55.5t28 -80.5q0 -75 -54 -116t-143 -41q-92 0 -154 31v130q69 -48 146 -48q55 0 55 35q0 9 -5 17t-17 15
t-22 11.5l-29 12.5t-29 13q-101 48 -101 144q0 74 56.5 115t140.5 41q78 0 130 -21z" />
    <glyph glyph-name="uni021A" unicode="&#x21a;" horiz-adv-x="544" 
d="M125 -262l71 211h151l-116 -211h-106zM514 674v-124h-164v-550h-155v550h-165v124h484z" />
    <glyph glyph-name="uni021B" unicode="&#x21b;" horiz-adv-x="386" 
d="M108 -262l71 211h151l-116 -211h-106zM229 400v-233q0 -27 15.5 -41t40.5 -14q40 0 71 20v-121q-37 -16 -100 -16q-173 0 -173 173v232h-73v107h73v120h146v-120h118v-107h-118z" />
    <glyph glyph-name="uni0237" unicode="&#x237;" horiz-adv-x="274" 
d="M-40 -182v111q33 -15 57 -15q52 0 52 67v526h145v-528q0 -80 -45 -128.5t-130 -48.5q-35 0 -79 16z" />
    <glyph glyph-name="uni02BC" unicode="&#x2bc;" horiz-adv-x="258" 
d="M18 433l101 261h161l-136 -261h-126z" />
    <glyph glyph-name="circumflex" unicode="&#x2c6;" horiz-adv-x="500" 
d="M188 798h124l156 -177h-139l-79 96l-79 -96h-139z" />
    <glyph glyph-name="caron" unicode="&#x2c7;" horiz-adv-x="500" 
d="M312 621h-124l-156 177h139l79 -96l79 96h139z" />
    <glyph glyph-name="uni02C9" unicode="&#x2c9;" horiz-adv-x="500" 
d="M428 651h-356v99h356v-99z" />
    <glyph glyph-name="breve" unicode="&#x2d8;" horiz-adv-x="500" 
d="M52 798h112q0 -42 23.5 -65.5t62.5 -23.5t62.5 23.5t23.5 65.5h112q0 -93 -54.5 -137t-143.5 -44t-143.5 44t-54.5 137z" />
    <glyph glyph-name="dotaccent" unicode="&#x2d9;" horiz-adv-x="500" 
d="M167 711q0 34 23.5 57.5t59.5 23.5q35 0 58.5 -23.5t23.5 -57.5q0 -35 -23.5 -58.5t-58.5 -23.5q-36 0 -59.5 23.5t-23.5 58.5z" />
    <glyph glyph-name="ring" unicode="&#x2da;" horiz-adv-x="500" 
d="M114 710q0 56 40 96t96 40t96 -40t40 -96t-40 -96t-96 -40t-96 40t-40 96zM197 713q0 -23 15 -39.5t38 -16.5t38 16.5t15 39.5t-15 39.5t-38 16.5t-38 -16.5t-15 -39.5z" />
    <glyph glyph-name="ogonek" unicode="&#x2db;" horiz-adv-x="500" 
d="M373 -221q-48 -25 -109 -25q-70 0 -103.5 33t-33.5 84q0 39 20 75t52 62t59 42t54 28l49 -64q-118 -73 -118 -130q0 -34 43 -34q44 0 87 30v-101z" />
    <glyph glyph-name="tilde" unicode="&#x2dc;" horiz-adv-x="500" 
d="M374 767l74 -61q-42 -85 -136 -85q-33 0 -69 17.5t-51 17.5q-25 0 -39 -8.5t-36 -34.5l-65 64q16 34 47.5 58t68.5 24q36 0 76.5 -17.5t59.5 -17.5q48 0 70 43z" />
    <glyph glyph-name="hungarumlaut" unicode="&#x2dd;" horiz-adv-x="500" 
d="M224 621l94 177h145l-131 -177h-108zM37 621l86 177h133l-111 -177h-108z" />
    <glyph glyph-name="pi" unicode="&#x3c0;" horiz-adv-x="606" 
d="M596 507v-107h-80v-400h-146v400h-124v-184q0 -121 -48.5 -168.5t-158.5 -47.5v119q34 0 47.5 16.5t13.5 65.5v199h-80v107h576z" />
    <glyph glyph-name="uni0901" unicode="&#x901;" horiz-adv-x="0" 
d="M-139 733q-108 0 -172.5 48.5t-64.5 140.5h136q0 -39 27.5 -64t73.5 -25q44 0 70.5 25t26.5 64h136q0 -87 -68 -138t-165 -51zM-210 977q0 29 20.5 49.5t49.5 20.5t49.5 -20.5t20.5 -49.5t-20.5 -49.5t-49.5 -20.5t-49.5 20.5t-20.5 49.5z" />
    <glyph glyph-name="uni0902" unicode="&#x902;" horiz-adv-x="0" 
d="M-222 818q0 34 24 58t58 24t58 -24t24 -58t-24 -58t-58 -24t-58 24t-24 58z" />
    <glyph glyph-name="uni0903" unicode="&#x903;" horiz-adv-x="285" 
d="M88 484q0 34 24 58t58 24t58 -24t24 -58t-24 -58t-58 -24t-58 24t-24 58zM88 153q0 35 24 58.5t58 23.5t58 -23.5t24 -58.5t-24 -58.5t-58 -23.5t-58 23.5t-24 58.5z" />
    <glyph glyph-name="uni0905" unicode="&#x905;" horiz-adv-x="702" 
d="M732 671v-112h-100v-559h-142v232h-107v-7q0 -80 -54.5 -130t-162.5 -50q-73 0 -136 22v130q64 -34 129 -34q88 0 88 84q0 32 -20.5 51t-74.5 19h-41v118h31q83 0 83 62q0 60 -70 60q-51 0 -105 -25v127q49 19 116 19q96 0 148 -43.5t52 -119.5q0 -52 -27 -89t-77 -51
q42 -6 71 -29h157v213h-77v112h319z" />
    <glyph glyph-name="uni0906" unicode="&#x906;" horiz-adv-x="981" 
d="M1011 671v-112h-100v-559h-141v559h-138v-559h-142v232h-107v-7q0 -80 -54.5 -130t-162.5 -50q-73 0 -136 22v130q64 -34 129 -34q88 0 88 84q0 32 -20.5 51t-74.5 19h-41v118h31q83 0 83 62q0 60 -70 60q-51 0 -105 -25v127q49 19 116 19q96 0 148 -43.5t52 -119.5
q0 -52 -27 -89t-77 -51q42 -6 71 -29h157v213h-77v112h598z" />
    <glyph glyph-name="uni0907" unicode="&#x907;" horiz-adv-x="529" 
d="M454 559v-154h-1l1 -3h-202q-51 0 -51 -37q0 -36 72 -36q119 0 172.5 -40.5t53.5 -124.5q0 -69 -52.5 -118t-135.5 -49q-68 0 -121 28v-96h-140v252h130q13 -35 44 -57t71 -22q27 0 46 16.5t19 41.5q0 17 -7.5 27.5t-21.5 15t-26.5 6t-31.5 1.5q-215 0 -215 147
q0 79 56 118t144 39h56v45h-344v112h589v-112h-105z" />
    <glyph glyph-name="uni0908" unicode="&#x908;" horiz-adv-x="529" 
d="M444 559v-154h-1l1 -3h-192q-51 0 -51 -37q0 -36 72 -36q119 0 172.5 -40.5t53.5 -124.5q0 -69 -52.5 -118t-135.5 -49q-68 0 -121 28v-96h-140v252h130q13 -35 44 -57t71 -22q27 0 46 16.5t19 41.5q0 17 -7.5 27.5t-21.5 15t-26.5 6t-31.5 1.5q-215 0 -215 147
q0 79 56 118t144 39h46v45h-334v112h304q-31 44 -31 97q0 82 53 125.5t129 43.5q73 0 124 -25v-130q-43 31 -104 31q-27 0 -42.5 -17t-15.5 -41q0 -38 30 -84h142v-112h-115z" />
    <glyph glyph-name="uni0909" unicode="&#x909;" horiz-adv-x="464" 
d="M494 671v-112h-126q26 -34 26 -79q0 -57 -35 -90.5t-97 -41.5q80 -8 123.5 -46.5t43.5 -102.5q0 -91 -67 -140t-186 -49q-83 0 -146 22v130q64 -34 139 -34q63 0 90.5 20.5t27.5 63.5q0 77 -135 77h-41v118h31q54 0 82 16.5t28 64.5q0 40 -31 71h-251v112h524z" />
    <glyph glyph-name="uni090A" unicode="&#x90a;" horiz-adv-x="726" 
d="M756 671v-112h-388q26 -34 26 -79q0 -57 -35 -90.5t-97 -41.5q57 -6 96 -27q30 105 154 105q91 0 143 -53t52 -141q0 -95 -54.5 -155.5t-154.5 -60.5q-16 0 -33 3v111q8 -2 17 -2q45 0 64.5 24t19.5 76q0 38 -17 61.5t-49 23.5q-34 0 -52.5 -31t-18.5 -80v-3
q0 -91 -67 -140t-186 -49q-83 0 -146 22v130q64 -34 139 -34q63 0 90.5 20.5t27.5 63.5q0 77 -135 77h-41v118h31q54 0 82 16.5t28 64.5q0 40 -31 71h-251v112h786z" />
    <glyph glyph-name="uni090B" unicode="&#x90b;" horiz-adv-x="913" 
d="M521 559v-167l85 49v64h135v-85q0 -38 16.5 -60.5t49.5 -22.5h34v-112h-46q-86 0 -86 -51q0 -18 14.5 -28.5t35.5 -10.5q64 0 104 27v-118q-35 -20 -102 -20q-78 0 -133.5 34.5t-55.5 104.5q0 89 98 118q-27 17 -44 44l-105 -60v-265h-143v195l-303 -169v133l165 90
q-2 117 -100 117q-33 0 -66 -14v123q36 12 80 12q172 0 197 -177l27 15v234h-408v112h973v-112h-422z" />
    <glyph glyph-name="uni090C" unicode="&#x90c;" horiz-adv-x="823" 
d="M732 559v-377q-52 0 -81.5 -19t-29.5 -52q0 -56 72 -56q54 0 100 23v-109q-49 -22 -117 -22q-87 0 -141.5 40.5t-54.5 115.5q0 45 28.5 82.5t80.5 52.5v132q-23 7 -47 7q-48 0 -69.5 -24t-21.5 -77v-65h-143v67q0 85 -67 85q-66 0 -66 -99q0 -147 156 -147q21 0 43 3
v-115q-27 -4 -59 -4q-128 0 -204 72t-76 193q0 98 50.5 156t140.5 58q61 0 102.5 -26t50.5 -63q28 97 155 97q23 0 55 -10v81h-619v112h883v-112h-121z" />
    <glyph glyph-name="uni090D" unicode="&#x90d;" horiz-adv-x="577" 
d="M398 922h136q0 -87 -63.5 -138t-159.5 -51q-107 0 -167 48t-60 141h136q0 -41 23 -65t68 -24q43 0 65 24t22 65zM607 671v-112h-75v-121q0 -85 -47.5 -127.5t-120.5 -42.5q-39 0 -67 7v110q28 -4 35 -4q31 0 46 15.5t15 53.5v109h-187v-296q0 -57 39.5 -87t108.5 -30
q82 0 157 33v-127q-77 -27 -168 -27q-125 0 -201.5 60t-76.5 179v295h-95v112h637z" />
    <glyph glyph-name="uni090E" unicode="&#x90e;" horiz-adv-x="577" 
d="M607 671v-112h-75v-121q0 -85 -47.5 -127.5t-120.5 -42.5q-39 0 -67 7v110q28 -4 35 -4q31 0 46 15.5t15 53.5v109h-187v-296q0 -57 39.5 -87t108.5 -30q82 0 157 33v-127q-77 -27 -168 -27q-125 0 -201.5 60t-76.5 179v295h-95v112h422q-2 35 -13 47.5t-41 12.5h-27
q-30 0 -50.5 1.5t-52 11.5t-51 27.5t-34.5 52.5t-15 84h143q0 -40 16.5 -52t61.5 -12h25q177 0 179 -173h74z" />
    <glyph glyph-name="uni090F" unicode="&#x90f;" horiz-adv-x="577" 
d="M607 671v-112h-75v-121q0 -85 -47.5 -127.5t-120.5 -42.5q-39 0 -67 7v110q28 -4 35 -4q31 0 46 15.5t15 53.5v109h-187v-296q0 -57 39.5 -87t108.5 -30q82 0 157 33v-127q-77 -27 -168 -27q-125 0 -201.5 60t-76.5 179v295h-95v112h637z" />
    <glyph glyph-name="uni0910" unicode="&#x910;" horiz-adv-x="577" 
d="M607 671v-112h-75v-121q0 -85 -47.5 -127.5t-120.5 -42.5q-39 0 -67 7v110q28 -4 35 -4q31 0 46 15.5t15 53.5v109h-187v-296q0 -57 39.5 -87t108.5 -30q82 0 157 33v-127q-77 -27 -168 -27q-125 0 -201.5 60t-76.5 179v295h-95v112h411l-67 98q-27 41 -76 41
q-31 0 -64 -10v118q36 7 76 7q61 -1 103 -22t74 -70l105 -162h75z" />
    <glyph glyph-name="uni0911" unicode="&#x911;" horiz-adv-x="983" 
d="M802 922h136q0 -87 -63.5 -138t-159.5 -51q-107 0 -167 48t-60 141h136q0 -41 23 -65t68 -24q43 0 65 24t22 65zM1013 671v-112h-100v-559h-141v559h-140v-559h-142v232h-107v-7q0 -80 -54.5 -130t-162.5 -50q-73 0 -136 22v130q64 -34 129 -34q88 0 88 84q0 32 -20.5 51
t-74.5 19h-41v118h31q83 0 83 62q0 60 -70 60q-51 0 -105 -25v127q49 19 116 19q96 0 148 -43.5t52 -119.5q0 -52 -27 -89t-77 -51q42 -6 71 -29h157v213h-77v112h600z" />
    <glyph glyph-name="uni0912" unicode="&#x912;" horiz-adv-x="983" 
d="M913 671h100v-112h-100v-559h-141v559h-140v-559h-142v232h-107v-7q0 -80 -54.5 -130t-162.5 -50q-73 0 -136 22v130q64 -34 129 -34q88 0 88 84q0 32 -20.5 51t-74.5 19h-41v118h31q83 0 83 62q0 60 -70 60q-51 0 -105 -25v127q49 19 116 19q96 0 148 -43.5t52 -119.5
q0 -52 -27 -89t-77 -51q42 -6 71 -29h157v213h-77v112h359q-2 35 -13 47.5t-41 12.5h-27q-30 0 -50.5 1.5t-52 11.5t-51 27.5t-34.5 52.5t-15 84h143q0 -40 16.5 -52t61.5 -12h25q177 0 179 -173z" />
    <glyph glyph-name="uni0913" unicode="&#x913;" horiz-adv-x="983" 
d="M914 671h99v-112h-100v-559h-141v559h-140v-559h-142v232h-107v-7q0 -80 -54.5 -130t-162.5 -50q-73 0 -136 22v130q64 -34 129 -34q88 0 88 84q0 32 -20.5 51t-74.5 19h-41v118h31q83 0 83 62q0 60 -70 60q-51 0 -105 -25v127q49 19 116 19q96 0 148 -43.5t52 -119.5
q0 -52 -27 -89t-77 -51q42 -6 71 -29h157v213h-77v112h350l-67 98q-27 41 -76 41q-31 0 -64 -10v118q36 7 76 7q61 -1 103 -22t74 -70z" />
    <glyph glyph-name="uni0914" unicode="&#x914;" horiz-adv-x="983" 
d="M906 671h107v-112h-100v-559h-141v559h-140v-559h-142v232h-107v-7q0 -80 -54.5 -130t-162.5 -50q-73 0 -136 22v130q64 -34 129 -34q88 0 88 84q0 32 -20.5 51t-74.5 19h-41v118h31q83 0 83 62q0 60 -70 60q-51 0 -105 -25v127q49 19 116 19q96 0 148 -43.5t52 -119.5
q0 -52 -27 -89t-77 -51q42 -6 71 -29h157v213h-77v112h323q-106 55 -173 55q-30 0 -56 -7v100q31 9 59 9q54 0 99.5 -23.5t139.5 -103.5l-95 112q-30 35 -58.5 51t-70.5 16q-41 0 -74 -10v105q27 9 83 9q126 0 200 -122z" />
    <glyph glyph-name="uni0915" unicode="&#x915;" horiz-adv-x="809" 
d="M839 559h-364v-109q44 39 106 39q89 0 143.5 -55.5t54.5 -141.5q0 -93 -62 -148.5t-159 -55.5q-15 0 -23 1v113q6 -1 16 -1q41 0 63.5 25t22.5 64q0 36 -21 61.5t-61 25.5q-35 0 -57.5 -25.5t-22.5 -67.5v-284h-142v116q-43 -38 -106 -38q-89 0 -143.5 55.5t-54.5 141.5
q0 93 62 148.5t159 55.5q14 0 23 -1v-113q-6 1 -16 1q-41 0 -63.5 -25t-22.5 -64q0 -36 21 -61.5t61 -25.5q35 0 57.5 25.5t22.5 67.5v276h-363v112h869v-112z" />
    <glyph glyph-name="uni0916" unicode="&#x916;" horiz-adv-x="841" 
d="M871 671v-112h-100v-559h-142v132q-40 -26 -95 -26q-79 0 -131.5 52.5t-52.5 137.5q0 79 56 131.5t139 52.5q14 0 28 -2v-103h-10q-37 0 -59 -24t-22 -60q0 -37 21.5 -59t53.5 -22q72 0 72 73v276h-286v-124q0 -68 -34.5 -113t-97.5 -60l-11 -2l203 -260h-170l-198 256
v110h76q92 0 92 77v116h-233v112h901z" />
    <glyph glyph-name="uni0917" unicode="&#x917;" horiz-adv-x="585" 
d="M-30 671h645v-112h-100v-559h-140v559h-111v-214q0 -72 -40.5 -107t-104.5 -35q-48 0 -89 14v110q22 -12 49 -12q44 0 44 46v198h-153v112z" />
    <glyph glyph-name="uni0918" unicode="&#x918;" horiz-adv-x="638" 
d="M428 341v218h-207q-31 -26 -31 -61q0 -61 89 -61h40v-118h-48q-44 0 -69.5 -18.5t-25.5 -49.5q0 -32 25.5 -48.5t66.5 -16.5q72 0 116 39.5t44 115.5zM668 671v-112h-100v-559h-140v140q-25 -35 -74 -53t-102 -18q-93 0 -155.5 45t-62.5 123q0 60 42.5 98t114.5 43
q-68 2 -105.5 29.5t-37.5 77.5q0 42 30 74h-108v112h698z" />
    <glyph glyph-name="uni0919" unicode="&#x919;" horiz-adv-x="655" 
d="M552 435q32 0 54 -22.5t22 -53.5t-22 -53.5t-54 -22.5t-54 22.5t-22 53.5t22 53.5t54 22.5zM-30 671h715v-112h-252v-152h-1l1 -3h-209q-51 0 -51 -39q0 -24 27 -30.5t89 -6.5q200 0 200 -153q-2 -76 -65.5 -125.5t-172.5 -49.5q-122 0 -216 52v130q106 -65 217 -65
q47 0 72 14t25 36q0 27 -23 35.5t-83 8.5q-40 0 -74.5 7t-66 23t-50 47t-18.5 74q0 77 56.5 115.5t134.5 38.5h68v43h-323v112z" />
    <glyph glyph-name="uni091A" unicode="&#x91a;" horiz-adv-x="660" 
d="M690 671v-112h-100v-559h-140v168q-55 -77 -181 -77q-87 0 -138.5 47t-51.5 115q0 72 53 106h-112v115h359v-115q-165 0 -165 -86q0 -33 25 -51t68 -18q65 0 104 41t39 78v236h-480v112h720z" />
    <glyph glyph-name="uni091B" unicode="&#x91b;" horiz-adv-x="657" 
d="M414 508v51h-176q-42 -33 -42 -82q0 -30 19 -50t53 -20h37v-118h-37q-81 0 -81 -60q0 -29 31.5 -46.5t81.5 -17.5q81 0 130 39.5t49 105.5q0 41 -22 62.5t-56 21.5q-31 0 -49 -5v111q23 6 62 8zM687 559h-139v-85q74 -50 74 -152q0 -124 -91 -198.5t-232 -74.5
q-106 0 -180 45.5t-74 127.5q0 56 37.5 89t105.5 37q-64 1 -98.5 37.5t-34.5 89.5q0 49 33 84h-118v112h717v-112z" />
    <glyph glyph-name="uni091C" unicode="&#x91c;" horiz-adv-x="658" 
d="M-30 671h719v-112h-101v-559h-142v348h-141q58 -38 58 -118q0 -82 -56 -128.5t-147 -46.5q-73 0 -130 21v124q47 -25 101 -25q99 0 99 82q0 43 -36 67t-107 24v115h359v96h-476v112z" />
    <glyph glyph-name="uni091D" unicode="&#x91d;" horiz-adv-x="781" 
d="M279 336h290v223h-115v-154h-1l1 -3h-190q-63 0 -63 -34q0 -32 64 -32h14zM811 671v-112h-100v-559h-142v229h-86q8 -23 8 -58q0 -76 -51.5 -122.5t-136.5 -46.5q-65 0 -119 31v-84h-140v238h130q17 -37 47 -58.5t64 -21.5q31 0 49 14.5t18 41.5q0 32 -23 43t-64 11
q-207 0 -207 143q0 79 55.5 116.5t144.5 37.5h56v45h-344v112h841z" />
    <glyph glyph-name="uni091E" unicode="&#x91e;" horiz-adv-x="690" 
d="M720 671v-112h-100v-559h-142v234h-59q-14 -78 -75 -126.5t-156 -54.5q-88 0 -158 37v127q72 -43 147 -43q51 0 77.5 27.5t26.5 73.5q0 41 -24.5 66t-67.5 25q-46 0 -90 -19v119q42 17 103 17q82 0 136.5 -36t73.5 -101h66v213h-508v112h750z" />
    <glyph glyph-name="uni091F" unicode="&#x91f;" horiz-adv-x="520" 
d="M453 559v-202q-32 7 -95 7q-84 0 -127.5 -32t-43.5 -87q0 -56 42.5 -85.5t112.5 -29.5q39 0 81 12.5t66 28.5v-127q-68 -35 -158 -35q-135 0 -211 64t-76 177q0 93 68 157.5t191 68.5h10v83h-343v112h580v-112h-97z" />
    <glyph glyph-name="uni0920" unicode="&#x920;" horiz-adv-x="575" 
d="M291 169q50 0 79 27t29 73q0 49 -29.5 74t-81.5 26q-48 0 -79.5 -24.5t-31.5 -74.5q0 -47 32.5 -74t81.5 -27zM605 559h-223v-91q73 -20 116 -71.5t43 -127.5q0 -94 -67.5 -152t-182.5 -60q-114 0 -185 57.5t-71 156.5q0 90 59 142.5t147 63.5v82h-271v112h635v-112z" />
    <glyph glyph-name="uni0921" unicode="&#x921;" horiz-adv-x="534" 
d="M433 559v-152h-1l1 -3h-209q-51 0 -51 -39q0 -24 27 -30.5t89 -6.5q200 0 200 -153q-2 -76 -65.5 -125.5t-172.5 -49.5q-122 0 -216 52v130q106 -65 217 -65q47 0 72 14t25 36q0 27 -23 35.5t-83 8.5q-40 0 -74.5 7t-66 23t-50 47t-18.5 74q0 77 56.5 115.5t134.5 38.5
h68v43h-323v112h594v-112h-131z" />
    <glyph glyph-name="uni0922" unicode="&#x922;" horiz-adv-x="564" 
d="M266 200v99q44 23 103 23q71 0 115.5 -37t44.5 -102q0 -78 -61.5 -126t-169.5 -48q-119 0 -193.5 69.5t-74.5 172.5q0 117 79 175t206 60h9v73h-354v112h624v-112h-130v-192q-47 11 -101 11q-51 0 -91.5 -11t-69.5 -41t-29 -76q0 -51 37 -89.5t96 -38.5q38 0 63.5 15
t25.5 43q0 19 -15 30.5t-42 11.5q-42 0 -72 -22z" />
    <glyph glyph-name="uni0923" unicode="&#x923;" horiz-adv-x="754" 
d="M287 342v217h-117v-218q0 -66 59 -66q58 0 58 67zM784 671v-112h-100v-559h-141v559h-117v-205q0 -96 -53 -146.5t-147 -50.5q-95 0 -145.5 49t-50.5 145v208h-60v112h814z" />
    <glyph glyph-name="uni0924" unicode="&#x924;" horiz-adv-x="608" 
d="M638 671v-112h-100v-559h-142v360h-70q-68 0 -103.5 -30.5t-35.5 -88.5q0 -122 105 -122q11 0 17 1v-117q-24 -2 -40 -2q-106 0 -165 66.5t-59 174.5q0 106 70 169t207 63h74v85h-426v112h668z" />
    <glyph glyph-name="uni0925" unicode="&#x925;" horiz-adv-x="674" 
d="M409 507q0 -147 -227 -218q15 -36 49.5 -57t77.5 -21q60 0 106.5 32.5t46.5 107.5v320h232v-112h-90v-559h-142v150q-21 -27 -67.5 -43.5t-100.5 -16.5q-107 0 -186.5 76.5t-87.5 199.5q141 36 199.5 66.5t58.5 79.5q0 52 -43 52q-45 0 -45 -52q0 -28 12 -55h-134
q-11 32 -11 67q0 68 46.5 112.5t131.5 44.5q77 0 125.5 -46t48.5 -128z" />
    <glyph glyph-name="uni0926" unicode="&#x926;" horiz-adv-x="579" 
d="M-30 671h639v-112h-112v-176h-208q-53 0 -84.5 -28t-31.5 -75q0 -48 27 -74.5t71 -26.5q94 0 110 100h138v-289h-140v125q-18 -26 -57.5 -39.5t-75.5 -13.5q-98 0 -157 61.5t-59 154.5q0 97 65.5 157t187.5 60h71v64h-384v112z" />
    <glyph glyph-name="uni0927" unicode="&#x927;" horiz-adv-x="643" 
d="M673 671v-112h-100v-559h-140v136q-57 -67 -176 -67q-93 0 -155.5 45t-62.5 123q0 59 41.5 92.5t115.5 38.5q-68 2 -105.5 29.5t-37.5 77.5q0 59 44 84h-127v112h325v-112h-3q-97 0 -97 -71q0 -61 89 -61h40v-118h-48q-95 0 -95 -58q0 -32 25.5 -48.5t66.5 -16.5
q73 0 116.5 36t43.5 110v339h240z" />
    <glyph glyph-name="uni0928" unicode="&#x928;" horiz-adv-x="529" 
d="M-30 671h589v-112h-100v-559h-142v316h-125q-18 0 -26 -9t-8 -36q0 -29 8 -69h-112q-34 57 -34 130q0 45 28 70.5t82 25.5h187v131h-347v112z" />
    <glyph glyph-name="uni0928093C" unicode="&#x929;" horiz-adv-x="529" 
d="M148 139q32 0 54 -22.5t22 -53.5t-22 -53.5t-54 -22.5t-54 22.5t-22 53.5t22 53.5t54 22.5zM-30 671h589v-112h-100v-559h-142v316h-125q-18 0 -26 -9t-8 -36q0 -29 8 -69h-112q-34 57 -34 130q0 45 28 70.5t82 25.5h187v131h-347v112z" />
    <glyph glyph-name="uni092A" unicode="&#x92a;" horiz-adv-x="577" 
d="M365 376v183h-163v-190q0 -86 74 -86q39 0 64 24.5t25 68.5zM607 671v-112h-100v-559h-142v212q-48 -41 -117 -41q-89 0 -138.5 50t-49.5 154v184h-90v112h637z" />
    <glyph glyph-name="uni092B" unicode="&#x92b;" horiz-adv-x="844" 
d="M365 376v183h-163v-190q0 -86 74 -86q39 0 64 24.5t25 68.5zM874 559h-367v-100q48 41 117 41q87 0 136 -56.5t49 -138.5q0 -100 -62 -152.5t-156 -52.5q-17 0 -25 1v113q6 -1 16 -1q86 0 86 91q0 35 -19.5 59.5t-52.5 24.5q-39 0 -64 -24.5t-25 -68.5v-295h-142v212
q-48 -41 -117 -41q-89 0 -138.5 50t-49.5 154v184h-90v112h904v-112z" />
    <glyph glyph-name="uni092C" unicode="&#x92c;" horiz-adv-x="632" 
d="M363 204l-170 142q-15 -24 -15 -58q0 -47 30 -75.5t77 -28.5q41 0 78 20zM662 671v-112h-100v-559h-142v132q-63 -58 -155 -58q-93 0 -161.5 62t-68.5 156t63.5 156.5t168.5 62.5q46 0 81 -8v-122q-30 10 -69 10q-18 0 -35 -5l166 -137q10 22 10 42v268h-450v112h692z
" />
    <glyph glyph-name="uni092D" unicode="&#x92d;" horiz-adv-x="591" 
d="M383 378v293h238v-112h-100v-559h-138v266h-153v-125h-122l-36 77q-27 57 -27 88q0 52 46 65v143q0 47 -46 47q-26 0 -54 -14v109q38 20 86 20q153 0 153 -145v-153h153z" />
    <glyph glyph-name="uni092E" unicode="&#x92e;" horiz-adv-x="585" 
d="M-30 559v112h645v-112h-100v-559h-138v261h-158v-122h-119l-36 80q-29 66 -29 92q0 43 45 55v193h-110zM377 559h-158v-186h158v186z" />
    <glyph glyph-name="uni092F" unicode="&#x92f;" horiz-adv-x="634" 
d="M276 106q-99 0 -170.5 72t-86.5 198q156 22 156 104q0 50 -29 79h-176v112h694v-112h-100v-559h-141v170q-17 -29 -57 -46.5t-90 -17.5zM300 230q57 0 90 33t33 99v197h-130q21 -32 21 -86q0 -65 -36.5 -106.5t-94.5 -60.5q23 -76 117 -76z" />
    <glyph glyph-name="uni0930" unicode="&#x930;" horiz-adv-x="417" 
d="M35 256v110h76q92 0 92 76v117h-233v112h477v-112h-104v-125q0 -67 -33.5 -112.5t-96.5 -57.5q-8 -2 -15 -2l205 -262h-170z" />
    <glyph glyph-name="uni0930093C" unicode="&#x931;" horiz-adv-x="417" 
d="M-40 30q0 32 22 54t54 22t54 -22t22 -54t-22 -54t-54 -22t-54 22t-22 54zM35 256v110h76q92 0 92 76v117h-233v112h477v-112h-104v-125q0 -67 -33.5 -112.5t-96.5 -57.5q-8 -2 -15 -2l205 -262h-170z" />
    <glyph glyph-name="uni0932" unicode="&#x932;" horiz-adv-x="761" 
d="M791 671v-112h-100v-559h-143v376q-6 1 -17 1q-48 0 -69 -24t-21 -77v-65h-143v67q0 85 -58 85q-66 0 -66 -99q0 -147 156 -147q20 0 43 3v-115q-27 -4 -59 -4q-128 0 -204 72t-76 193q0 98 50.5 156t140.5 58q60 0 97.5 -25.5t46.5 -63.5q28 97 154 97q9 0 25 -2v73
h-578v112h821z" />
    <glyph glyph-name="uni0933" unicode="&#x933;" horiz-adv-x="802" 
d="M550 199q36 0 57.5 25.5t21.5 66.5t-21.5 66.5t-59.5 25.5q-73 0 -91 -140q48 -44 93 -44zM253 199q14 0 26.5 8t20 18.5t15.5 29t11.5 30t9 32.5t6.5 26q-45 42 -91 42q-37 0 -57.5 -26t-20.5 -68t21 -67t59 -25zM832 559h-205v-75q66 -19 105.5 -70.5t39.5 -123.5
q0 -91 -62.5 -147t-157.5 -56q-84 0 -158 59q-57 -59 -142 -59q-98 0 -160 56.5t-62 148.5q0 91 61 148t156 57q89 0 154 -57q45 40 93 49v70h-524v112h862v-112z" />
    <glyph glyph-name="uni0933093C" unicode="&#x934;" horiz-adv-x="802" 
d="M220 4q32 0 54 -22t22 -54t-22 -54t-54 -22t-54 22t-22 54t22 54t54 22zM550 199q36 0 57.5 25.5t21.5 66.5t-21.5 66.5t-59.5 25.5q-73 0 -91 -140q48 -44 93 -44zM253 199q14 0 26.5 8t20 18.5t15.5 29t11.5 30t9 32.5t6.5 26q-45 42 -91 42q-37 0 -57.5 -26t-20.5 -68
t21 -67t59 -25zM832 559h-205v-75q66 -19 105.5 -70.5t39.5 -123.5q0 -91 -62.5 -147t-157.5 -56q-84 0 -158 59q-57 -59 -142 -59q-98 0 -160 56.5t-62 148.5q0 91 61 148t156 57q89 0 154 -57q45 40 93 49v70h-524v112h862v-112z" />
    <glyph glyph-name="uni0935" unicode="&#x935;" horiz-adv-x="603" 
d="M633 671v-112h-100v-559h-142v135q-55 -49 -139 -49q-92 0 -154.5 55t-62.5 151q0 92 61.5 152.5t161.5 60.5q40 0 70 -8v-122q-34 9 -59 9q-39 0 -65 -24t-26 -64q0 -47 26.5 -72.5t76.5 -25.5q40 0 75 26.5t35 66.5v268h-421v112h663z" />
    <glyph glyph-name="uni0936" unicode="&#x936;" horiz-adv-x="720" 
d="M210 439h-135q-18 35 -18 74q0 68 50.5 116t132.5 48q92 0 147 -55.5t55 -142.5q0 -112 -73 -173t-175 -67l237 -239h-180l-221 234v117h112q77 0 119 34t42 95q0 80 -61 80q-24 0 -36.5 -17t-12.5 -42q0 -30 17 -62zM508 671h242v-112h-100v-559h-142v671z" />
    <glyph glyph-name="uni0937" unicode="&#x937;" horiz-adv-x="610" 
d="M401 380v179h-172zM195 483v-114q0 -46 27.5 -69t71.5 -23q41 0 76 29zM640 671v-112h-100v-559h-139v211q-54 -45 -137 -45q-90 0 -147 53t-57 156v184h-90v112h670z" />
    <glyph glyph-name="uni0938" unicode="&#x938;" horiz-adv-x="682" 
d="M302 354h169v205h-148v-114q0 -53 -21 -91zM712 671v-112h-100v-559h-141v243h-150q-57 0 -125 8l187 -251h-170l-193 269v98h71q92 0 92 77v115h-213v112h742z" />
    <glyph glyph-name="uni0939" unicode="&#x939;" horiz-adv-x="551" 
d="M483 401h-255q-37 0 -37 -27q0 -26 28 -48q38 8 82 8q91 0 148 -43t57 -108q0 -38 -9 -58h-138q10 19 10 50q0 19 -20 31.5t-53 12.5q-51 0 -78 -19t-27 -50q0 -81 136 -81q51 0 138 19v-115q-80 -17 -144 -17q-132 0 -202 58.5t-70 136.5q0 79 66 130q-70 41 -70 110
q0 58 43 89t111 31h144v48h-373v112h611v-112h-98v-158z" />
    <glyph glyph-name="uni093C" unicode="&#x93c;" horiz-adv-x="0" 
d="M-361 -132q0 32 22.5 54t53.5 22t53.5 -22t22.5 -54t-22.5 -54t-53.5 -22t-53.5 22t-22.5 54z" />
    <glyph glyph-name="uni093D" unicode="&#x93d;" horiz-adv-x="583" 
d="M296 -3q-121 0 -229 61v145q44 -29 108.5 -53t119.5 -24q82 0 82 56q0 20 -22.5 42.5t-56.5 41.5t-74 45.5t-74 53.5t-56.5 67t-22.5 85q0 71 50 112.5t138 41.5h229v-129h-213q-48 0 -48 -36q0 -24 30.5 -49.5t74 -50.5t87 -54.5t74 -74.5t30.5 -98q0 -81 -57.5 -131.5
t-169.5 -50.5z" />
    <glyph glyph-name="uni093E" unicode="&#x93e;" 
d="M-30 559v112h341v-112h-100v-559h-141v559h-100z" />
    <glyph glyph-name="uni093F" unicode="&#x93f;" 
d="M671 854v-124q-105 38 -210 61t-167 23q-40 0 -61.5 -21.5t-21.5 -58.5v-63h100v-112h-100v-559h-141v559h-100v112h100v64q0 88 58.5 142t162.5 54q62 0 128.5 -11.5t113.5 -24.5t138 -41z" />
    <glyph glyph-name="uni0940" unicode="&#x940;" 
d="M210 671h101v-112h-100v-559h-141v559h-100v112h99v60q0 37 -19.5 57t-55.5 20q-70 0 -70 -77v-25h-142v30q0 94 60 142t152 48q93 0 154.5 -47.5t61.5 -141.5v-66z" />
    <glyph glyph-name="uni0941" unicode="&#x941;" horiz-adv-x="0" 
d="M-438 -190v154q56 -58 135 -107t149 -49q31 0 48 13.5t17 36.5q0 19 -17 30t-45 11q-50 0 -106 -27v122q52 18 109 18q91 0 143 -41.5t52 -112.5t-52 -118t-144 -47q-83 0 -160 36.5t-129 80.5z" />
    <glyph glyph-name="uni0942" unicode="&#x942;" horiz-adv-x="0" 
d="M-83 -173v-106q-27 -11 -61 -11q-80 0 -131 39.5t-51 117.5q0 63 48.5 107t126.5 44q68 0 122.5 -29.5t86 -76t47.5 -99.5t16 -105h-131q0 82 -38 139.5t-98 57.5q-21 0 -34 -12t-13 -30q0 -20 16 -33.5t43 -13.5q26 0 51 11z" />
    <glyph glyph-name="uni0943" unicode="&#x943;" horiz-adv-x="0" 
d="M-352 -161q0 61 37.5 99.5t103.5 48.5v25h141v-127h-49q-50 0 -73 -12t-23 -41q0 -21 15.5 -33t43.5 -12q49 0 93 27v-107q-47 -26 -105 -26q-81 0 -132.5 45t-51.5 113z" />
    <glyph glyph-name="uni0945" unicode="&#x945;" horiz-adv-x="0" 
d="M-139 733q-107 0 -167 48t-60 141h136q0 -41 23 -65t68 -24q43 0 65 24t22 65h136q0 -87 -63.5 -138t-159.5 -51z" />
    <glyph glyph-name="uni0946" unicode="&#x946;" horiz-adv-x="0" 
d="M-274 844h25q179 0 179 -178h-141q-1 38 -12 51.5t-42 13.5h-27q-30 0 -50.5 1.5t-52 11.5t-51 27.5t-34.5 52.5t-15 84h143q0 -40 16.5 -52t61.5 -12z" />
    <glyph glyph-name="uni0947" unicode="&#x947;" horiz-adv-x="0" 
d="M-427 800v118q36 7 76 7q61 -1 103 -22t74 -70l110 -169h-151l-72 105q-27 41 -76 41q-31 0 -64 -10z" />
    <glyph glyph-name="uni0948" unicode="&#x948;" horiz-adv-x="0" 
d="M-194 862l120 -198h-161q-116 62 -186 62q-30 0 -56 -7v100q31 9 59 9q54 0 99.5 -23.5t139.5 -103.5l-95 112q-30 35 -58.5 51t-70.5 16q-41 0 -74 -10v105q27 9 83 9q126 0 200 -122z" />
    <glyph glyph-name="uni0949" unicode="&#x949;" horiz-adv-x="280" 
d="M-30 559v112h340v-112h-100v-559h-140v559h-100zM137 733q-107 0 -167 48t-60 141h136q0 -41 23 -65t68 -24q43 0 65 24t22 65h136q0 -87 -63.5 -138t-159.5 -51z" />
    <glyph glyph-name="uni094A" unicode="&#x94a;" horiz-adv-x="280" 
d="M211 671h99v-112h-100v-559h-140v559h-100v112h100q-2 35 -13 47.5t-41 12.5h-27q-30 0 -50.5 1.5t-52 11.5t-51 27.5t-34.5 52.5t-15 84h143q0 -40 16.5 -52t61.5 -12h25q177 0 179 -173z" />
    <glyph glyph-name="uni094B" unicode="&#x94b;" horiz-adv-x="280" 
d="M211 671h99v-112h-100v-559h-140v559h-100v112h90l-67 98q-27 41 -76 41q-31 0 -64 -10v118q36 7 76 7q61 -1 103 -22t74 -70z" />
    <glyph glyph-name="uni094C" unicode="&#x94c;" 
d="M205 671h106v-112h-100v-559h-141v559h-100v112h65q-106 55 -173 55q-30 0 -56 -7v100q31 9 59 9q54 0 99.5 -23.5t139.5 -103.5l-95 112q-30 35 -58.5 51t-70.5 16q-41 0 -74 -10v105q27 9 83 9q126 0 200 -122z" />
    <glyph glyph-name="uni094D" unicode="&#x94d;" horiz-adv-x="0" 
d="M82 -241h-168l-120 176h143z" />
    <glyph glyph-name="uni0950" unicode="&#x950;" horiz-adv-x="1237" 
d="M782 159q-68 -99 -163 -99q-78 0 -120 69q-22 -57 -80.5 -93.5t-131.5 -36.5q-107 0 -189 42v130q91 -54 182 -54q41 0 67 21t26 57q0 66 -91 66h-81v112h29q58 0 82.5 24.5t24.5 58.5q0 30 -19 48t-52 18q-83 0 -149 -48v118q27 20 73 32.5t93 12.5q89 0 142 -45.5
t53 -122.5q0 -42 -21 -76t-57 -51q76 -12 113 -73q14 -22 23.5 -35.5t27 -27t36.5 -13.5q22 0 44.5 20t59.5 71q14 19 44 64.5t46.5 66.5t44.5 49t58.5 40t66.5 12q92 0 148 -62t56 -167q0 -98 -58 -169t-155 -71q-55 0 -101 18v120q37 -23 86 -23q42 0 65.5 34.5t23.5 93.5
q0 43 -14.5 69t-41.5 26t-49.5 -25.5t-97.5 -135.5zM637 755q0 29 20.5 49.5t49.5 20.5t49.5 -20.5t20.5 -49.5t-20.5 -49.5t-49.5 -20.5t-49.5 20.5t-20.5 49.5zM708 511q-108 0 -172.5 48.5t-64.5 140.5h136q0 -39 27.5 -64t73.5 -25q44 0 70.5 25t26.5 64h136
q0 -87 -68 -138t-165 -51z" />
    <glyph glyph-name="uni0951" unicode="&#x951;" horiz-adv-x="0" 
d="M-187 971h109v-260h-109v260z" />
    <glyph glyph-name="uni0952" unicode="&#x952;" horiz-adv-x="0" 
d="M-55 -240h-447v109h447v-109z" />
    <glyph glyph-name="uni0953" unicode="&#x953;" horiz-adv-x="0" 
d="M-318 906l84 70l167 -200l-84 -70z" />
    <glyph glyph-name="uni0954" unicode="&#x954;" horiz-adv-x="0" 
d="M-56 976l84 -70l-167 -200l-84 70z" />
    <glyph glyph-name="uni0915093C" unicode="&#x958;" horiz-adv-x="809" 
d="M175 24q31 0 53.5 -22t22.5 -54t-22.5 -54t-53.5 -22t-53.5 22t-22.5 54t22.5 54t53.5 22zM839 559h-364v-109q44 39 106 39q89 0 143.5 -55.5t54.5 -141.5q0 -93 -62 -148.5t-159 -55.5q-15 0 -23 1v113q6 -1 16 -1q41 0 63.5 25t22.5 64q0 36 -21 61.5t-61 25.5
q-35 0 -57.5 -25.5t-22.5 -67.5v-284h-142v116q-43 -38 -106 -38q-89 0 -143.5 55.5t-54.5 141.5q0 93 62 148.5t159 55.5q14 0 23 -1v-113q-6 1 -16 1q-41 0 -63.5 -25t-22.5 -64q0 -36 21 -61.5t61 -25.5q35 0 57.5 25.5t22.5 67.5v276h-363v112h869v-112z" />
    <glyph glyph-name="uni0916093C" unicode="&#x959;" horiz-adv-x="841" 
d="M95 14q31 0 53.5 -22t22.5 -54t-22.5 -54t-53.5 -22t-53.5 22t-22.5 54t22.5 54t53.5 22zM871 671v-112h-100v-559h-142v132q-40 -26 -95 -26q-79 0 -131.5 52.5t-52.5 137.5q0 79 56 131.5t139 52.5q14 0 28 -2v-103h-10q-37 0 -59 -24t-22 -60q0 -37 21.5 -59t53.5 -22
q72 0 72 73v276h-286v-124q0 -68 -34.5 -113t-97.5 -60l-11 -2l203 -260h-170l-198 256v110h76q92 0 92 77v116h-233v112h901z" />
    <glyph glyph-name="uni0917093C" unicode="&#x95a;" horiz-adv-x="585" 
d="M165 94q31 0 53.5 -22t22.5 -54t-22.5 -54t-53.5 -22t-53.5 22t-22.5 54t22.5 54t53.5 22zM-30 671h645v-112h-100v-559h-140v559h-111v-214q0 -72 -40.5 -107t-104.5 -35q-48 0 -89 14v110q22 -12 49 -12q44 0 44 46v198h-153v112z" />
    <glyph glyph-name="uni091C093C" unicode="&#x95b;" horiz-adv-x="658" 
d="M173 -6q31 0 53.5 -22t22.5 -54t-22.5 -54t-53.5 -22t-53.5 22t-22.5 54t22.5 54t53.5 22zM-30 671h719v-112h-101v-559h-142v348h-141q58 -38 58 -118q0 -82 -56 -128.5t-147 -46.5q-73 0 -130 21v124q47 -25 101 -25q99 0 99 82q0 43 -36 67t-107 24v115h359v96h-476
v112z" />
    <glyph glyph-name="uni0921093C" unicode="&#x95c;" horiz-adv-x="534" 
d="M245 -56q31 0 53.5 -22t22.5 -54t-22.5 -54t-53.5 -22t-53.5 22t-22.5 54t22.5 54t53.5 22zM433 559v-152h-1l1 -3h-209q-51 0 -51 -39q0 -24 27 -30.5t89 -6.5q200 0 200 -153q-2 -76 -65.5 -125.5t-172.5 -49.5q-122 0 -216 52v130q106 -65 217 -65q47 0 72 14t25 36
q0 27 -23 35.5t-83 8.5q-40 0 -74.5 7t-66 23t-50 47t-18.5 74q0 77 56.5 115.5t134.5 38.5h68v43h-323v112h594v-112h-131z" />
    <glyph glyph-name="uni0922093C" unicode="&#x95d;" horiz-adv-x="564" 
d="M211 -132q0 32 22.5 54t53.5 22t53.5 -22t22.5 -54t-22.5 -54t-53.5 -22t-53.5 22t-22.5 54zM266 200v99q44 23 103 23q71 0 115.5 -37t44.5 -102q0 -78 -61.5 -126t-169.5 -48q-119 0 -193.5 69.5t-74.5 172.5q0 117 79 175t206 60h9v73h-354v112h624v-112h-130v-192
q-47 11 -101 11q-51 0 -91.5 -11t-69.5 -41t-29 -76q0 -51 37 -89.5t96 -38.5q38 0 63.5 15t25.5 43q0 19 -15 30.5t-42 11.5q-42 0 -72 -22z" />
    <glyph glyph-name="uni092B093C" unicode="&#x95e;" horiz-adv-x="844" 
d="M145 104q31 0 53.5 -22t22.5 -54t-22.5 -54t-53.5 -22t-53.5 22t-22.5 54t22.5 54t53.5 22zM365 376v183h-163v-190q0 -86 74 -86q39 0 64 24.5t25 68.5zM874 559h-367v-100q48 41 117 41q87 0 136 -56.5t49 -138.5q0 -100 -62 -152.5t-156 -52.5q-17 0 -25 1v113
q6 -1 16 -1q86 0 86 91q0 35 -19.5 59.5t-52.5 24.5q-39 0 -64 -24.5t-25 -68.5v-295h-142v212q-48 -41 -117 -41q-89 0 -138.5 50t-49.5 154v184h-90v112h904v-112z" />
    <glyph glyph-name="uni092F093C" unicode="&#x95f;" horiz-adv-x="634" 
d="M276 106q-99 0 -170.5 72t-86.5 198q156 22 156 104q0 50 -29 79h-176v112h694v-112h-100v-559h-141v170q-17 -29 -57 -46.5t-90 -17.5zM300 230q57 0 90 33t33 99v197h-130q21 -32 21 -86q0 -65 -36.5 -106.5t-94.5 -60.5q23 -76 117 -76zM72 -19q0 31 22 53.5t54 22.5
t54 -22.5t22 -53.5t-22 -53.5t-54 -22.5t-54 22.5t-22 53.5z" />
    <glyph glyph-name="uni0960" unicode="&#x960;" horiz-adv-x="808" 
d="M482 559v-180l69 35v84h135v-43q0 -35 8.5 -65t21 -50t25.5 -38t22.5 -39.5t10.5 -44.5q4 -84 -43 -122.5t-133 -38.5q-29 0 -54 5l2 118q17 -5 33 -5q61 -2 61 50q0 9 -4.5 19t-10 16.5l-16 19.5l-16.5 20l-111 -54v-246h-137v204l-300 -146v138l166 77q-9 102 -101 102
q-33 0 -66 -14v123q36 12 80 12q170 0 196 -172l25 12v223h-375v112h868v-112h-356z" />
    <glyph glyph-name="uni0961" unicode="&#x961;" horiz-adv-x="845" 
d="M727 559v-241q0 -39 -17.5 -72t-39 -52t-39 -42t-17.5 -44q0 -17 14.5 -27t37.5 -10h59v-108l2 -4h-85q-22 0 -33.5 -12.5t-11.5 -32.5t13.5 -34.5t37.5 -14.5q32 0 110 32v-123q-55 -22 -112 -22q-85 0 -138.5 45.5t-53.5 116.5q0 67 54 108q-34 34 -34 85q0 31 17.5 58
t38 44t38 45.5t17.5 63.5v91h-42q-46 0 -66.5 -24t-20.5 -81v-76h-141v76q0 107 -66 107q-38 0 -59.5 -29.5t-21.5 -86.5q0 -157 162 -188l-2 -116q-141 23 -222 101t-81 205q0 99 58 162t160 63q92 0 143 -49q47 47 152 47h47v39h-615v112h863v-112h-106z" />
    <glyph glyph-name="uni0964" unicode="&#x964;" horiz-adv-x="477" 
d="M215 0v671h142v-671h-142z" />
    <glyph glyph-name="uni0965" unicode="&#x965;" horiz-adv-x="727" 
d="M215 0v671h142v-671h-142zM465 0v671h142v-671h-142z" />
    <glyph glyph-name="uni0966" unicode="&#x966;" horiz-adv-x="547" 
d="M35 330q0 156 60 247t178 91t178.5 -91t60.5 -247q0 -154 -60.5 -246t-178.5 -92t-178 91.5t-60 246.5zM184 330q0 -208 89 -208q90 0 90 208t-90 208q-89 0 -89 -208z" />
    <glyph glyph-name="uni0967" unicode="&#x967;" horiz-adv-x="410" 
d="M40 398v149l184 107h126v-654h-145v497z" />
    <glyph glyph-name="uni0968" unicode="&#x968;" horiz-adv-x="516" 
d="M244 124h232v-124h-436v113q108 74 190.5 164t82.5 159q0 42 -25 66.5t-76 24.5q-85 0 -161 -63v141q33 24 86 41t104 17q102 0 162.5 -53.5t60.5 -149.5q0 -173 -220 -336z" />
    <glyph glyph-name="uni0969" unicode="&#x969;" horiz-adv-x="493" 
d="M66 490v136q74 37 149 37q106 0 168 -50.5t62 -131.5q0 -111 -101 -153q114 -27 114 -148q0 -84 -63.5 -134.5t-177.5 -50.5q-107 0 -177 34v140q80 -44 165 -44q49 0 76.5 21t27.5 53q0 73 -135 73h-35v120h35q53 0 87 18t34 54q0 69 -90 69q-69 0 -139 -43z" />
    <glyph glyph-name="uni096A" unicode="&#x96a;" horiz-adv-x="577" 
d="M178 263h144v296zM547 263v-124h-80v-139h-145v139h-287v124l200 393h232v-393h80z" />
    <glyph glyph-name="uni096B" unicode="&#x96b;" horiz-adv-x="515" 
d="M215 532v-111q23 3 44 3q107 0 164 -55t57 -150q0 -102 -67.5 -163.5t-191.5 -61.5q-109 0 -176 35v138q68 -42 152 -42q134 0 134 96q0 36 -27.5 57t-82.5 21q-77 0 -148 -33v390h367v-124h-225z" />
    <glyph glyph-name="uni096C" unicode="&#x96c;" horiz-adv-x="557" 
d="M290 110q39 0 61 27t22 72q0 41 -21.5 65.5t-60.5 24.5q-54 0 -95 -43q11 -146 94 -146zM471 650v-135q-39 21 -91 21q-71 0 -116.5 -43.5t-61.5 -116.5q54 46 129 46q86 0 138.5 -57t52.5 -153q0 -99 -62.5 -165.5t-170.5 -66.5q-121 0 -182.5 86.5t-61.5 232.5
q0 167 91.5 267t231.5 100q53 0 103 -16z" />
    <glyph glyph-name="uni096D" unicode="&#x96d;" horiz-adv-x="490" 
d="M25 655h440v-124l-254 -531h-154l255 531h-287v124z" />
    <glyph glyph-name="uni096E" unicode="&#x96e;" horiz-adv-x="545" 
d="M271 106q46 0 69.5 22.5t23.5 54.5q0 36 -24.5 59t-68.5 23q-45 0 -67.5 -25t-22.5 -59q0 -31 21.5 -53t68.5 -22zM270 550q-40 0 -59 -22.5t-19 -54.5q0 -38 23 -59t58 -21q34 0 57 21t23 59q0 77 -83 77zM417 333q93 -43 93 -151q0 -86 -66.5 -139t-173.5 -53
q-108 0 -171.5 50.5t-63.5 136.5q0 106 95 153q-85 49 -85 141t63.5 143.5t161.5 51.5q102 0 165.5 -49t63.5 -146q0 -90 -82 -138z" />
    <glyph glyph-name="uni096F" unicode="&#x96f;" horiz-adv-x="553" 
d="M274 346q60 0 97 45q-12 142 -96 142q-39 0 -62.5 -25t-23.5 -70q0 -40 23 -66t62 -26zM87 11v138q52 -25 103 -25q78 0 121 35.5t56 111.5q-43 -43 -130 -43q-88 0 -142.5 56.5t-54.5 150.5q0 98 61.5 163t166.5 65q117 0 183.5 -84.5t66.5 -230.5q0 -179 -85 -267.5
t-227 -88.5q-68 0 -119 19z" />
    <glyph glyph-name="uni0970" unicode="&#x970;" horiz-adv-x="502" 
d="M63 320q0 79 55.5 134.5t134.5 55.5t134.5 -55.5t55.5 -134.5t-55.5 -134.5t-134.5 -55.5t-134.5 55.5t-55.5 134.5zM180 320q0 -30 21.5 -51.5t51.5 -21.5t51.5 21.5t21.5 51.5t-21.5 51.5t-51.5 21.5t-51.5 -21.5t-21.5 -51.5z" />
    <glyph glyph-name="uni097D" unicode="&#x97d;" horiz-adv-x="617" 
d="M111 545v136q69 32 163 32q97 0 153.5 -49.5t56.5 -134.5q0 -40 -17 -76.5t-41 -66l-47.5 -58.5t-40.5 -66t-17 -76v-186h-139v202q0 45 16 86t38.5 70t45 54.5t38.5 50.5t16 48q0 36 -21.5 58t-63.5 22q-70 0 -140 -46z" />
    <glyph glyph-name="Wgrave" unicode="&#x1e80;" horiz-adv-x="971" 
d="M460 898l86 -177h-121l-111 177h146zM431 664h114l66 -238q21 -75 37.5 -139.5t22.5 -91.5l6 -27q13 89 56 259l62 247h157l-180 -674h-172l-59 213l-34.5 130t-16.5 68l-2 15q-3 -41 -54 -213l-62 -213h-172l-181 674h162l62 -248q20 -80 33 -144.5t16 -89.5l4 -24
q17 78 68 258z" />
    <glyph glyph-name="wgrave" unicode="&#x1e81;" horiz-adv-x="806" 
d="M375 731l86 -177h-121l-111 177h146zM168 0l-163 507h151l44 -167q16 -63 27 -113.5t13 -69.5l3 -19q7 60 49 202l49 167h126l48 -167q18 -64 30 -114.5t15 -69.5l3 -18q7 59 47 202l47 167h144l-162 -507h-150l-44 166q-14 54 -24.5 101t-13.5 67l-3 20
q-10 -67 -42 -188l-44 -166h-150z" />
    <glyph glyph-name="Wacute" unicode="&#x1e82;" horiz-adv-x="971" 
d="M431 664h114l66 -238q21 -75 37.5 -139.5t22.5 -91.5l6 -27q13 89 56 259l62 247h157l-180 -674h-172l-59 213l-34.5 130t-16.5 68l-2 15q-3 -41 -54 -213l-62 -213h-172l-181 674h162l62 -248q20 -80 33 -144.5t16 -89.5l4 -24q17 78 68 258zM443 721l86 177h146
l-111 -177h-121z" />
    <glyph glyph-name="wacute" unicode="&#x1e83;" horiz-adv-x="806" 
d="M168 0l-163 507h151l44 -167q16 -63 27 -113.5t13 -69.5l3 -19q7 60 49 202l49 167h126l48 -167q18 -64 30 -114.5t15 -69.5l3 -18q7 59 47 202l47 167h144l-162 -507h-150l-44 166q-14 54 -24.5 101t-13.5 67l-3 20q-10 -67 -42 -188l-44 -166h-150zM354 553l86 177h146
l-111 -177h-121z" />
    <glyph glyph-name="Wdieresis" unicode="&#x1e84;" horiz-adv-x="971" 
d="M431 664h114l66 -238q21 -75 37.5 -139.5t22.5 -91.5l6 -27q13 89 56 259l62 247h157l-180 -674h-172l-59 213l-34.5 130t-16.5 68l-2 15q-3 -41 -54 -213l-62 -213h-172l-181 674h162l62 -248q20 -80 33 -144.5t16 -89.5l4 -24q17 78 68 258zM540 810q0 34 23.5 57.5
t59.5 23.5q35 0 59 -23.5t24 -57.5q0 -35 -24 -58.5t-59 -23.5q-36 0 -59.5 23.5t-23.5 58.5zM272 810q0 34 23.5 57.5t59.5 23.5q35 0 58.5 -23.5t23.5 -57.5q0 -35 -23.5 -58.5t-58.5 -23.5q-36 0 -59.5 23.5t-23.5 58.5z" />
    <glyph glyph-name="wdieresis" unicode="&#x1e85;" horiz-adv-x="806" 
d="M168 0l-163 507h151l44 -167q16 -63 27 -113.5t13 -69.5l3 -19q7 60 49 202l49 167h126l48 -167q18 -64 30 -114.5t15 -69.5l3 -18q7 59 47 202l47 167h144l-162 -507h-150l-44 166q-14 54 -24.5 101t-13.5 67l-3 20q-10 -67 -42 -188l-44 -166h-150zM455 642
q0 34 23.5 57.5t59.5 23.5q35 0 59 -23.5t24 -57.5q0 -35 -24 -58.5t-59 -23.5q-36 0 -59.5 23.5t-23.5 58.5zM187 642q0 34 23.5 57.5t59.5 23.5q35 0 58.5 -23.5t23.5 -57.5q0 -35 -23.5 -58.5t-58.5 -23.5q-36 0 -59.5 23.5t-23.5 58.5z" />
    <glyph glyph-name="Ygrave" unicode="&#x1ef2;" horiz-adv-x="643" 
d="M386 721h-121l-111 177h146zM630 674l-233 -426v-248h-154v247l-230 427h180l41 -98l53 -130l27 -70l5 -16q10 45 88 216l44 98h179z" />
    <glyph glyph-name="ygrave" unicode="&#x1ef3;" horiz-adv-x="532" 
d="M248 731l86 -177h-121l-111 177h146zM201 8l-196 499h159l55 -158q21 -61 34.5 -105t16.5 -58l3 -14q11 40 54 177l50 158h150l-183 -492q-79 -213 -241 -213q-31 0 -56 5v116q16 -4 34 -4q83 0 120 89z" />
    <glyph glyph-name="uni200B" unicode="&#x200b;" horiz-adv-x="0" 
 />
    <glyph glyph-name="uni200C" unicode="&#x200c;" horiz-adv-x="0" 
d="M24 -230h-47v1041h47v-1041z" />
    <glyph glyph-name="uni200D" unicode="&#x200d;" horiz-adv-x="0" 
d="M129 593l-33 -33l-72 75v-865h-47v865l-69 -73l-33 33l93 93l-95 95l33 33l95 -95l96 95l32 -32l-96 -96z" />
    <glyph glyph-name="endash" unicode="&#x2013;" horiz-adv-x="555" 
d="M45 215v107h465v-107h-465z" />
    <glyph glyph-name="emdash" unicode="&#x2014;" horiz-adv-x="836" 
d="M45 218v107h746v-107h-746z" />
    <glyph glyph-name="quoteleft" unicode="&#x2018;" horiz-adv-x="267" 
d="M289 694l-101 -261h-161l136 261h126z" />
    <glyph glyph-name="quoteright" unicode="&#x2019;" horiz-adv-x="267" 
d="M28 433l101 261h161l-136 -261h-126z" />
    <glyph glyph-name="quotesinglbase" unicode="&#x201a;" horiz-adv-x="267" 
d="M-7 -127l101 261h161l-136 -261h-126z" />
    <glyph glyph-name="quotedblleft" unicode="&#x201c;" horiz-adv-x="452" 
d="M289 694l-104 -261h-158l141 261h121zM474 694l-96 -261h-146l121 261h121z" />
    <glyph glyph-name="quotedblright" unicode="&#x201d;" horiz-adv-x="452" 
d="M213 433l104 261h158l-141 -261h-121zM28 433l96 261h146l-121 -261h-121z" />
    <glyph glyph-name="quotedblbase" unicode="&#x201e;" horiz-adv-x="452" 
d="M183 -127l104 261h158l-141 -261h-121zM-2 -127l96 261h146l-121 -261h-121z" />
    <glyph glyph-name="dagger" unicode="&#x2020;" horiz-adv-x="559" 
d="M529 523v-118h-185v-405h-130v405h-184v118h184v151h130v-151h185z" />
    <glyph glyph-name="daggerdbl" unicode="&#x2021;" horiz-adv-x="589" 
d="M544 405h-185v-136h185v-118h-185v-151h-130v151h-184v118h184v136h-184v118h184v151h130v-151h185v-118z" />
    <glyph glyph-name="bullet" unicode="&#x2022;" horiz-adv-x="425" 
d="M80 356q0 57 37.5 95t94.5 38q56 0 94.5 -38.5t38.5 -94.5t-38 -94.5t-94 -38.5q-57 0 -95 38t-38 95z" />
    <glyph glyph-name="ellipsis" unicode="&#x2026;" horiz-adv-x="938" 
d="M60 81q0 37 26 63t63 26t63 -26t26 -63t-26 -63t-63 -26t-63 26t-26 63zM380 81q0 37 26 63t63 26t63 -26t26 -63t-26 -63t-63 -26t-63 26t-26 63zM700 81q0 37 26 63t63 26t63 -26t26 -63t-26 -63t-63 -26t-63 26t-26 63z" />
    <glyph glyph-name="perthousand" unicode="&#x2030;" horiz-adv-x="1412" 
d="M227 -1l379 708h132l-380 -708h-131zM548 182q0 79 55.5 134.5t134.5 55.5t134.5 -55.5t55.5 -134.5t-55.5 -134.5t-134.5 -55.5t-134.5 55.5t-55.5 134.5zM45 532q0 79 55.5 134.5t134.5 55.5t134.5 -55.5t55.5 -134.5t-55.5 -134.5t-134.5 -55.5t-134.5 55.5
t-55.5 134.5zM162 532q0 -30 21.5 -51.5t51.5 -21.5t51.5 21.5t21.5 51.5t-21.5 51.5t-51.5 21.5t-51.5 -21.5t-21.5 -51.5zM665 182q0 -30 21.5 -51.5t51.5 -21.5t51.5 21.5t21.5 51.5t-21.5 51.5t-51.5 21.5t-51.5 -21.5t-21.5 -51.5zM988 182q0 79 55.5 134.5t134.5 55.5
t134.5 -55.5t55.5 -134.5t-55.5 -134.5t-134.5 -55.5t-134.5 55.5t-55.5 134.5zM1105 182q0 -30 21.5 -51.5t51.5 -21.5t51.5 21.5t21.5 51.5t-21.5 51.5t-51.5 21.5t-51.5 -21.5t-21.5 -51.5z" />
    <glyph glyph-name="guilsinglleft" unicode="&#x2039;" horiz-adv-x="371" 
d="M330 415l-146 -162l146 -162h-152l-152 162l152 162h152z" />
    <glyph glyph-name="guilsinglright" unicode="&#x203a;" horiz-adv-x="371" 
d="M193 415l152 -162l-152 -162h-152l146 162l-146 162h152z" />
    <glyph glyph-name="fraction" unicode="&#x2044;" horiz-adv-x="264" 
d="M360 711l-428 -711h-109l429 711h108z" />
    <glyph glyph-name="foursuperior" unicode="&#x2074;" horiz-adv-x="408" 
d="M127 567h97v199zM373 567v-82h-53v-92h-96v92h-189v82l132 259h153v-259h53z" />
    <glyph glyph-name="Euro" unicode="&#x20ac;" horiz-adv-x="622" 
d="M582 625v-147q-59 48 -137 48q-98 0 -146 -81h178v-90h-206q-2 -24 -2 -36q0 -19 1 -28h207v-90h-179q45 -75 142 -75q82 0 142 49v-148q-64 -35 -156 -35q-107 0 -184.5 56.5t-108.5 152.5h-93v90h76q-1 10 -1 29q0 24 1 35h-76v90h92q31 104 110 161t179 57
q98 0 161 -38z" />
    <glyph glyph-name="uni20B9" unicode="&#x20b9;" horiz-adv-x="559" 
d="M518 565h-155q25 -28 37 -61h118v-109h-108q-11 -71 -56.5 -115t-123.5 -57l191 -223h-184l-177 219v115h87q93 0 113 61h-200v109h194q-30 61 -110 61h-84v109h458v-109z" />
    <glyph glyph-name="trademark" unicode="&#x2122;" horiz-adv-x="753" 
d="M305 331l29 343h99l36 -93q18 -47 29.5 -81.5t13.5 -45.5l3 -12q9 33 49 139l36 93h99l35 -343h-91l-10 112q-3 32 -3 63.5t2 47.5l1 16q-10 -56 -38 -128l-40 -107h-78l-39 107q-11 29 -20 61t-12 49l-4 18q1 -7 2 -18t3 -46.5t-2 -63.5l-9 -111h-91zM10 592v82h261v-82
h-83v-261h-94v261h-84z" />
    <glyph glyph-name="uni2126" unicode="&#x2126;" horiz-adv-x="790" 
d="M618 124h127v-124h-305v124q55 15 82.5 74.5t27.5 145.5q0 95 -39.5 148t-113.5 53t-113.5 -53t-39.5 -148q0 -85 26 -144.5t80 -75.5v-124h-305v124h129q-95 79 -95 220q0 156 84.5 248.5t233.5 92.5t233.5 -92t84.5 -249q0 -139 -97 -220z" />
    <glyph glyph-name="partialdiff" unicode="&#x2202;" horiz-adv-x="552" 
d="M267 120q97 0 102 154q-38 35 -98 35q-38 0 -62.5 -26.5t-24.5 -69.5t21.5 -68t61.5 -25zM101 674h201q91 -70 145.5 -180t54.5 -210q0 -140 -62 -217t-172 -77q-112 0 -172.5 64t-60.5 166q0 94 59.5 153.5t144.5 59.5q63 0 109 -31q-57 154 -247 272z" />
    <glyph glyph-name="Delta" unicode="&#x2206;" horiz-adv-x="681" 
d="M198 124h284l-47 144l-95 294l-95 -294zM439 674l207 -573v-101h-611v101l210 573h194z" />
    <glyph glyph-name="product" unicode="&#x220f;" horiz-adv-x="647" 
d="M582 674v-854h-155v723h-187v-500q0 -229 -182 -229q-36 0 -73 13v133q24 -13 47 -13q30 0 42 22.5t12 72.5v632h496z" />
    <glyph glyph-name="summation" unicode="&#x2211;" horiz-adv-x="484" 
d="M494 674v-124h-302l142 -306l-143 -320h303v-124h-464v124l146 320l-146 306v124h464z" />
    <glyph glyph-name="minus" unicode="&#x2212;" horiz-adv-x="589" 
d="M45 275v129h499v-129h-499z" />
    <glyph glyph-name="uni2215" unicode="&#x2215;" horiz-adv-x="833" 
d="M660 711l-428 -711h-109l429 711h108z" />
    <glyph glyph-name="uni2219" unicode="&#x2219;" horiz-adv-x="316" 
d="M69 337q0 37 26 63t63 26t63 -26t26 -63t-26 -63t-63 -26t-63 26t-26 63z" />
    <glyph glyph-name="radical" unicode="&#x221a;" horiz-adv-x="825" 
d="M283 461l82 -246q52 -155 74 -265q31 156 65 265l213 692h154l-349 -1097h-170l-194 538h-131l30 113h226z" />
    <glyph glyph-name="infinity" unicode="&#x221e;" horiz-adv-x="830" 
d="M172 339q0 -30 18 -46.5t50 -16.5q52 0 99 68q-59 59 -99 59q-32 0 -50 -17t-18 -47zM415 259q-25 -28 -42.5 -43.5t-56.5 -33t-85 -17.5q-90 0 -138 44.5t-48 127.5q0 81 52 129.5t138 48.5q98 0 179 -90q81 93 186 93q88 0 136.5 -45.5t48.5 -126.5q0 -80 -52 -129
t-137 -49q-103 0 -181 91zM657 344q0 27 -17 45t-47 18q-25 0 -47 -13.5t-31 -24t-24 -30.5l31 -29t30.5 -20t37.5 -10q67 0 67 64z" />
    <glyph glyph-name="approxequal" unicode="&#x2248;" horiz-adv-x="589" 
d="M473 329l92 -74q-69 -99 -158 -99q-52 0 -110.5 22.5t-89.5 22.5q-30 0 -50.5 -13t-43.5 -40l-92 73q71 99 157 99q60 0 119.5 -22.5t81.5 -22.5q30 0 50 13t44 41zM473 533l92 -74q-69 -99 -158 -99q-52 0 -110.5 22.5t-89.5 22.5q-30 0 -50.5 -13t-43.5 -40l-92 73
q71 99 157 99q60 0 119.5 -22.5t81.5 -22.5q30 0 50 13t44 41z" />
    <glyph glyph-name="notequal" unicode="&#x2260;" horiz-adv-x="589" 
d="M544 398h-185l-54 -116h239v-116h-294l-37 -80h-75l37 80h-130v116h185l54 116h-239v116h294l37 80h75l-37 -80h130v-116z" />
    <glyph glyph-name="lessequal" unicode="&#x2264;" horiz-adv-x="584" 
d="M40 83v116h499v-116h-499zM539 595v-126l-396 -50l396 -50v-126l-499 86v180z" />
    <glyph glyph-name="greaterequal" unicode="&#x2265;" horiz-adv-x="584" 
d="M45 83v116h499v-116h-499zM45 595l499 -86v-180l-499 -86v126l396 50l-396 50v126z" />
    <glyph glyph-name="lozenge" unicode="&#x25ca;" horiz-adv-x="604" 
d="M404 295l26 42l-26 42l-58.5 99.5t-34.5 63.5l-9 19q-28 -61 -100 -182l-25 -42l25 -42l57 -99.5t34 -63.5l9 -19q27 61 102 182zM376 674l199 -337l-199 -337h-150l-197 337l197 337h150z" />
    <glyph glyph-name="uni25CC" unicode="&#x25cc;" horiz-adv-x="701" 
d="M167 528q0 19 12.5 31.5t31.5 12.5t31.5 -12.5t12.5 -31.5q0 -20 -12.5 -32.5t-31.5 -12.5t-31.5 12.5t-12.5 32.5zM85 418q0 19 13 31.5t33 12.5q18 0 31 -12.5t13 -31.5t-13 -31.5t-31 -12.5q-20 0 -33 12.5t-13 31.5zM72 292q0 19 12.5 32t31.5 13t31.5 -12.5
t12.5 -32.5q0 -19 -12.5 -31t-31.5 -12t-31.5 12t-12.5 31zM124 176q0 19 12.5 31.5t31.5 12.5t31.5 -12.5t12.5 -31.5t-12.5 -31.5t-31.5 -12.5q-20 0 -32 12t-12 32zM225 101q0 18 13 31t32 13t31.5 -13t12.5 -31q0 -20 -12.5 -33t-31.5 -13t-32 13t-13 33zM352 85
q0 19 12 31.5t32 12.5t32.5 -12.5t12.5 -31.5t-12.5 -31.5t-32.5 -12.5t-32 12.5t-12 31.5zM473 138q0 19 12.5 31.5t31.5 12.5t32 -12.5t13 -31.5t-13 -31.5t-32 -12.5t-31.5 12.5t-12.5 31.5zM546 236q0 20 13 32.5t32 12.5q18 0 30.5 -13t12.5 -32t-12.5 -31.5
t-30.5 -12.5q-19 0 -32 12.5t-13 31.5zM556 370q0 20 12 32t32 12q19 0 31.5 -12.5t12.5 -31.5t-12.5 -31.5t-31.5 -12.5q-20 0 -32 12t-12 32zM506 488q0 19 12.5 32t31.5 13t31.5 -12.5t12.5 -32.5q0 -19 -12.5 -31.5t-31.5 -12.5t-31.5 12.5t-12.5 31.5zM411 556
q0 20 12.5 32.5t32.5 12.5q19 0 31 -12.5t12 -32.5q0 -18 -12.5 -31t-30.5 -13q-19 0 -32 13t-13 31zM285 571q0 19 12.5 31.5t31.5 12.5t31.5 -12.5t12.5 -31.5t-12.5 -31.5t-31.5 -12.5t-31.5 12.5t-12.5 31.5z" />
    <glyph glyph-name="commaaccent" unicode="&#xf6c3;" horiz-adv-x="483" 
d="M139 -262l71 211h151l-116 -211h-106z" />
    <glyph glyph-name="ff" unicode="&#xfb00;" horiz-adv-x="636" 
d="M386 507v19q0 35 7 62q-51 15 -79 15q-37 0 -55 -17t-18 -60v-19h145zM656 710v-118q-27 11 -52 11q-37 0 -55 -17t-18 -60v-19h95v-107h-95v-400h-145v400h-145v-400h-145v400h-66v107h66v19q0 92 51.5 143t142.5 51q87 0 166 -35q49 35 124 35q47 0 76 -10z" />
    <glyph glyph-name="fi" unicode="&#xfb01;" horiz-adv-x="575" 
d="M532 507v-507h-146v400h-145v-400h-145v400h-66v107h66v19q0 92 51.5 143t142.5 51q98 0 189 -42v-118q-95 43 -165 43q-37 0 -55 -17t-18 -60v-19h291z" />
    <glyph glyph-name="fl" unicode="&#xfb02;" horiz-adv-x="593" 
d="M96 507v19q0 92 51.5 143t142.5 51q110 0 243 -63v-657h-146v593q-40 10 -68 10q-40 0 -59 -16t-19 -61v-19h95v-107h-95v-400h-145v400h-66v107h66z" />
    <glyph glyph-name="ffi" unicode="&#xfb03;" horiz-adv-x="970" 
d="M386 507v19q0 35 7 62q-51 15 -79 15q-37 0 -55 -17t-18 -60v-19h145zM822 507v-507h-146v400h-145v-400h-145v400h-145v-400h-145v400h-66v107h66v19q0 92 51.5 143t142.5 51q87 0 166 -35q49 35 124 35q98 0 189 -42v-118q-95 43 -165 43q-37 0 -55 -17t-18 -60v-19
h291z" />
    <glyph glyph-name="ffl" unicode="&#xfb04;" horiz-adv-x="883" 
d="M386 507v19q0 35 7 62q-51 15 -79 15q-37 0 -55 -17t-18 -60v-19h145zM96 507v19q0 92 51.5 143t142.5 51q87 0 166 -35q49 35 124 35q110 0 243 -63v-657h-146v593q-40 10 -68 10q-40 0 -59 -16t-19 -61v-19h95v-107h-95v-400h-145v400h-145v-400h-145v400h-66v107h66z
" />
    <glyph glyph-name="itfLogo" horiz-adv-x="1734" 
d="M147 0v671h207v-671h-207zM397 475v196h207v-196h-207zM647 0v671h207v-671h-207zM896 475v196h208v-196h-208zM1146 0v671h208v-671h-208zM1396 475v196h207v-196h-207zM1396 237v196h207v-196h-207z" />
    <glyph glyph-name="uni0915094D" horiz-adv-x="546" 
d="M475 559v-109q44 39 106 39q98 0 153 -66l-101 -103q-16 57 -78 57q-35 0 -57.5 -25.5t-22.5 -67.5v-284h-142v116q-43 -38 -106 -38q-89 0 -143.5 55.5t-54.5 141.5q0 93 62 148.5t159 55.5q14 0 23 -1v-113q-6 1 -16 1q-41 0 -63.5 -25t-22.5 -64q0 -36 21 -61.5
t61 -25.5q35 0 57.5 25.5t22.5 67.5v276h-363v112h606v-112h-101z" />
    <glyph glyph-name="uni0916094D" horiz-adv-x="628" 
d="M544 312v-94q-26 -8 -51 -8q-60 0 -100 39t-40 101q0 67 50 111.5t132 44.5q104 0 160.5 -59.5t56.5 -144.5q0 -127 -99.5 -205t-239.5 -78q-130 0 -224 70.5t-144 196.5v110h69q34 0 49 16.5t15 54.5v92h-208v112h688v-112h-340v-122q0 -111 -84 -140q-16 -6 -26 -7
q22 -69 83.5 -108t137.5 -39q84 0 139.5 40.5t55.5 117.5q0 46 -22.5 73.5t-64.5 27.5q-24 0 -39 -14.5t-15 -35.5q0 -20 12.5 -31.5t31.5 -11.5q8 0 17 3z" />
    <glyph glyph-name="uni0917094D" horiz-adv-x="324" 
d="M354 671v-112h-90v-214q0 -72 -40.5 -107t-104.5 -35q-48 0 -89 14v110q22 -12 49 -12q44 0 44 46v198h-153v112h384z" />
    <glyph glyph-name="uni0918094D" horiz-adv-x="349" 
d="M412 261l38 -105q-71 -87 -198 -87q-93 0 -155.5 45t-62.5 123q0 60 42.5 98t114.5 43q-68 2 -105.5 29.5t-37.5 77.5q0 42 30 74h-108v112h409v-112h-158q-31 -26 -31 -61q0 -61 89 -61h40v-118h-48q-44 0 -69.5 -18.5t-25.5 -49.5q0 -32 25.5 -48.5t66.5 -16.5
q98 0 144 75z" />
    <glyph glyph-name="uni0919094D" horiz-adv-x="655" 
d="M204 -65h143l145 -176h-168zM552 435q32 0 54 -22.5t22 -53.5t-22 -53.5t-54 -22.5t-54 22.5t-22 53.5t22 53.5t54 22.5zM-30 671h715v-112h-252v-152h-1l1 -3h-209q-51 0 -51 -39q0 -24 27 -30.5t89 -6.5q200 0 200 -153q-2 -76 -65.5 -125.5t-172.5 -49.5
q-122 0 -216 52v130q106 -65 217 -65q47 0 72 14t25 36q0 27 -23 35.5t-83 8.5q-40 0 -74.5 7t-66 23t-50 47t-18.5 74q0 77 56.5 115.5t134.5 38.5h68v43h-323v112z" />
    <glyph glyph-name="uni091A094D" horiz-adv-x="429" 
d="M459 671v-112h-489v112h489zM505 356l64 -70q-20 -77 -96 -136t-183 -59q-99 0 -155 42.5t-56 116.5q0 73 55 109h-114v115h359v-115q-165 0 -165 -86q0 -32 25 -50.5t68 -18.5q70 0 122 42t76 110z" />
    <glyph glyph-name="uni091B094D" horiz-adv-x="657" 
d="M687 559h-449q-42 -33 -42 -82q0 -30 19 -50t53 -20h37v-118h-37q-81 0 -81 -60q0 -29 31.5 -46.5t81.5 -17.5q81 0 130 39.5t49 105.5q0 41 -22 62.5t-56 21.5q-31 0 -49 -5v111q29 8 72 8q88 0 143 -49t55 -137q0 -124 -91 -198.5t-232 -74.5q-106 0 -180 45.5
t-74 127.5q0 56 37.5 89t105.5 37q-64 1 -98.5 37.5t-34.5 89.5q0 49 33 84h-118v112h717v-112z" />
    <glyph glyph-name="uni091C094D" horiz-adv-x="420" 
d="M450 671v-112h-480v112h480zM575 463v-115h-270q58 -38 58 -118q0 -82 -56 -128.5t-147 -46.5q-73 0 -130 21v124q47 -25 101 -25q99 0 99 82q0 43 -36 67t-107 24v115h488z" />
    <glyph glyph-name="uni091D094D" horiz-adv-x="529" 
d="M686 336v-107h-203q8 -23 8 -58q0 -76 -51.5 -122.5t-136.5 -46.5q-65 0 -119 31v-84h-140v238h130q17 -37 47 -58.5t64 -21.5q31 0 49 14.5t18 41.5q0 32 -23 43t-64 11q-207 0 -207 143q0 79 55.5 116.5t144.5 37.5h56v45h-344v112h589v-112h-105v-154h-1l1 -3h-190
q-63 0 -63 -34q0 -32 64 -32h14h407z" />
    <glyph glyph-name="uni091E094D" horiz-adv-x="478" 
d="M508 671v-112h-538v112h538zM610 346v-112h-191q-14 -78 -75 -126.5t-156 -54.5q-88 0 -158 37v127q72 -43 147 -43q51 0 77.5 27.5t26.5 73.5q0 41 -24.5 66t-67.5 25q-46 0 -90 -19v119q42 17 103 17q82 0 136.5 -36t73.5 -101h198z" />
    <glyph glyph-name="uni091F094D" horiz-adv-x="520" 
d="M453 559v-202q-32 7 -95 7q-84 0 -127.5 -32t-43.5 -87q0 -56 42.5 -85.5t112.5 -29.5q39 0 81 12.5t66 28.5v-127q-68 -35 -158 -35q-135 0 -211 64t-76 177q0 93 68 157.5t191 68.5h10v83h-343v112h580v-112h-97zM542 -232h-168l-120 176h143z" />
    <glyph glyph-name="uni0920094D" horiz-adv-x="575" 
d="M224 -8h143l145 -176h-168zM291 169q50 0 79 27t29 73q0 49 -29.5 74t-81.5 26q-48 0 -79.5 -24.5t-31.5 -74.5q0 -47 32.5 -74t81.5 -27zM605 559h-223v-91q73 -20 116 -71.5t43 -127.5q0 -94 -67.5 -152t-182.5 -60q-114 0 -185 57.5t-71 156.5q0 90 59 142.5t147 63.5
v82h-271v112h635v-112z" />
    <glyph glyph-name="uni0921094D" horiz-adv-x="534" 
d="M194 -65h143l145 -176h-168zM433 559v-152h-1l1 -3h-209q-51 0 -51 -39q0 -24 27 -30.5t89 -6.5q200 0 200 -153q-2 -76 -65.5 -125.5t-172.5 -49.5q-122 0 -216 52v130q106 -65 217 -65q47 0 72 14t25 36q0 27 -23 35.5t-83 8.5q-40 0 -74.5 7t-66 23t-50 47t-18.5 74
q0 77 56.5 115.5t134.5 38.5h68v43h-323v112h594v-112h-131z" />
    <glyph glyph-name="uni0922094D" horiz-adv-x="564" 
d="M266 200v99q44 23 103 23q71 0 115.5 -37t44.5 -102q0 -78 -61.5 -126t-169.5 -48q-119 0 -193.5 69.5t-74.5 172.5q0 117 79 175t206 60h9v73h-354v112h624v-112h-130v-192q-47 11 -101 11q-51 0 -91.5 -11t-69.5 -41t-29 -76q0 -51 37 -89.5t96 -38.5q38 0 63.5 15
t25.5 43q0 19 -15 30.5t-42 11.5q-42 0 -72 -22zM522 -232h-168l-120 176h143z" />
    <glyph glyph-name="uni0923094D" horiz-adv-x="486" 
d="M287 342v217h-117v-218q0 -66 59 -66q58 0 58 67zM515 671v-112h-89v-205q0 -96 -53 -146.5t-147 -50.5q-95 0 -145.5 49t-50.5 145v208h-60v112h545z" />
    <glyph glyph-name="uni0924094D" horiz-adv-x="396" 
d="M546 360h-220q-68 0 -103.5 -30.5t-35.5 -88.5q0 -122 105 -122q11 0 17 1v-117q-24 -2 -40 -2q-106 0 -165 66.5t-59 174.5q0 106 70 169t207 63h224v-114zM-30 559v112h456v-112h-456z" />
    <glyph glyph-name="uni0925094D" horiz-adv-x="468" 
d="M409 507q0 -147 -227 -218q15 -37 56.5 -57.5t90.5 -20.5q121 0 215 114l66 -97q-61 -65 -127.5 -101.5t-153.5 -36.5q-125 0 -210 69.5t-99 206.5q141 36 199.5 66.5t58.5 79.5q0 52 -43 52q-45 0 -45 -52q0 -28 12 -55h-134q-11 32 -11 67q0 68 46.5 112.5t131.5 44.5
q77 0 125.5 -46t48.5 -128z" />
    <glyph glyph-name="uni0926094D" horiz-adv-x="579" 
d="M667 -251h-168l-120 176h143zM-30 671h639v-112h-112v-176h-208q-53 0 -84.5 -28t-31.5 -75q0 -48 27 -74.5t71 -26.5q94 0 110 100h138v-289h-140v125q-18 -26 -57.5 -39.5t-75.5 -13.5q-98 0 -157 61.5t-59 154.5q0 97 65.5 157t187.5 60h71v64h-384v112z" />
    <glyph glyph-name="uni0927094D" horiz-adv-x="422" 
d="M513 315l51 -109q-46 -63 -122.5 -100t-174.5 -37q-99 0 -163.5 44.5t-64.5 123.5q0 59 41.5 92.5t115.5 38.5q-68 2 -105.5 29.5t-37.5 77.5q0 59 44 84h-127v112h325v-112h-3q-97 0 -97 -71q0 -61 89 -61h40v-118h-48q-95 0 -95 -58q0 -32 27.5 -48.5t74.5 -16.5
q69 0 121 29t109 100z" />
    <glyph glyph-name="uni0928094D" horiz-adv-x="316" 
d="M-30 559v112h376v-112h-376zM130 428h298v-112h-236q-18 0 -26 -9t-8 -36q0 -29 8 -69h-112q-34 57 -34 130q0 45 28 70.5t82 25.5z" />
    <glyph glyph-name="uni092A094D" horiz-adv-x="350" 
d="M415 376l71 -68q-35 -64 -96 -101t-140 -37q-190 0 -190 205v184h-90v112h410v-112h-178v-190q0 -86 74 -86q47 0 83.5 25.5t55.5 67.5z" />
    <glyph glyph-name="uni092B094D" horiz-adv-x="649" 
d="M202 559v-190q0 -86 74 -86q39 0 64 24.5t25 68.5v183h-163zM507 559v-100q48 41 117 41q124 0 180 -120l-110 -72q-9 34 -34.5 57t-63.5 23q-39 0 -64 -24.5t-25 -68.5v-295h-142v212q-48 -41 -117 -41q-89 0 -138.5 50t-49.5 154v184h-90v112h709v-112h-172z" />
    <glyph glyph-name="uni092C094D" horiz-adv-x="395" 
d="M425 671v-112h-455v112h455zM363 203l-170 143q-15 -24 -15 -58q0 -47 30 -75.5t77 -28.5q43 0 78 19zM460 306l78 -64q-35 -77 -102.5 -122.5t-158.5 -45.5q-102 0 -172 61t-70 157q0 94 63.5 156.5t168.5 62.5q46 0 81 -8v-122q-30 10 -69 10q-18 0 -35 -5l171 -142
q25 28 45 62z" />
    <glyph glyph-name="uni092D094D" horiz-adv-x="359" 
d="M453 378v-111h-223v-126h-122l-36 77q-27 57 -27 88q0 52 46 65v143q0 47 -46 47q-26 0 -54 -14v109q38 20 86 20q153 0 153 -145v-153h223z" />
    <glyph glyph-name="uni092E094D" horiz-adv-x="353" 
d="M477 377v-123h-258v-119h-119l-36 80q-29 66 -29 91q0 52 45 64v189h-110v112h414v-112h-165v-182h258z" />
    <glyph glyph-name="uni092F094D" horiz-adv-x="381" 
d="M411 559h-118q21 -32 21 -86q0 -65 -36.5 -106.5t-94.5 -60.5q14 -39 44 -57.5t83 -18.5q52 0 95 29.5t67 76.5l69 -82q-25 -59 -93 -103.5t-157 -44.5q-110 0 -181.5 68.5t-90.5 201.5q156 22 156 104q0 50 -29 79h-176v112h441v-112z" />
    <glyph glyph-name="uni0930094D" horiz-adv-x="417" 
d="M412 -241h-168l-120 176h143zM35 256v110h76q92 0 92 76v117h-233v112h477v-112h-104v-125q0 -67 -33.5 -112.5t-96.5 -57.5q-8 -2 -15 -2l205 -262h-170z" />
    <glyph glyph-name="uni0932094D" horiz-adv-x="514" 
d="M373 120v-115q-27 -4 -59 -4q-128 0 -204 72t-76 193q0 98 50.5 156t140.5 58q60 0 97.5 -25.5t46.5 -63.5q28 97 154 97q105 0 159 -79l-68 -81q-10 18 -33.5 33.5t-49.5 15.5q-48 0 -69 -24t-21 -77v-65h-143v67q0 85 -58 85q-66 0 -66 -99q0 -147 156 -147q20 0 43 3z
M-30 559v112h574v-112h-574z" />
    <glyph glyph-name="uni0933094D" horiz-adv-x="802" 
d="M552 87q-84 0 -158 59q-57 -59 -142 -59q-98 0 -160 56.5t-62 148.5q0 91 61 148t156 57q89 0 154 -57q62 55 149 55q98 0 160 -56.5t62 -148.5q0 -91 -62.5 -147t-157.5 -56zM548 383q-73 0 -91 -140q48 -44 93 -44q36 0 57.5 25.5t21.5 66.5t-21.5 66.5t-59.5 25.5z
M253 199q14 0 26.5 8t20 18.5t15.5 29t11.5 30t9 32.5t6.5 26q-45 42 -91 42q-37 0 -57.5 -26t-20.5 -68t21 -67t59 -25zM-30 559v112h862v-112h-862z" />
    <glyph glyph-name="uni0935094D" horiz-adv-x="362" 
d="M328 497v-122q-26 9 -59 9q-39 0 -65 -26t-26 -67q0 -42 28.5 -67.5t74.5 -25.5q86 0 152 103l67 -80q-81 -135 -237 -135q-99 0 -163.5 54.5t-64.5 151.5q0 92 61.5 152.5t161.5 60.5q40 0 70 -8zM392 559h-422v112h422v-112z" />
    <glyph glyph-name="uni0936094D" horiz-adv-x="492" 
d="M210 439h-135q-18 35 -18 74q0 68 50.5 116t132.5 48q92 0 147 -55.5t55 -142.5q0 -112 -73 -173t-175 -67l237 -239h-180l-221 234v117h112q77 0 119 34t42 95q0 80 -61 80q-24 0 -36.5 -17t-12.5 -42q0 -30 17 -62z" />
    <glyph glyph-name="uni0937094D" horiz-adv-x="380" 
d="M195 484v-115q0 -46 27.5 -69t71.5 -23q45 0 83 23zM456 373l56 -81q-99 -126 -241 -126q-95 0 -153 53t-58 156v184h-90v112h440v-112h-181l204 -213q14 14 23 27z" />
    <glyph glyph-name="uni0938094D" horiz-adv-x="435" 
d="M555 243h-234q-57 0 -125 8l187 -251h-170l-193 269v98h71q92 0 92 77v115h-213v112h495v-112h-142v-114q0 -53 -21 -91h253v-111z" />
    <glyph glyph-name="uni0939094D" horiz-adv-x="501" 
d="M588 219h-292q-51 0 -78 -19t-27 -50q0 -81 136 -81q51 0 138 19v-115q-80 -17 -144 -17q-132 0 -202 58.5t-70 136.5q0 80 68 130q-72 37 -72 110q0 58 43 89t111 31h144v48h-373v112h561v-112h-48v-158h-255q-37 0 -37 -27t31 -50q34 7 79 7h287v-112z" />
    <glyph glyph-name="uni0915093C094D" horiz-adv-x="586" 
d="M175 24q31 0 53.5 -22t22.5 -54t-22.5 -54t-53.5 -22t-53.5 22t-22.5 54t22.5 54t53.5 22zM475 559v-109q44 39 106 39q98 0 153 -66l-101 -103q-16 57 -78 57q-35 0 -57.5 -25.5t-22.5 -67.5v-284h-142v116q-43 -38 -106 -38q-89 0 -143.5 55.5t-54.5 141.5
q0 93 62 148.5t159 55.5q14 0 23 -1v-113q-6 1 -16 1q-41 0 -63.5 -25t-22.5 -64q0 -36 21 -61.5t61 -25.5q35 0 57.5 25.5t22.5 67.5v276h-363v112h606v-112h-101z" />
    <glyph glyph-name="uni0916093C094D" horiz-adv-x="630" 
d="M105 34q31 0 53.5 -22t22.5 -54t-22.5 -54t-53.5 -22t-53.5 22t-22.5 54t22.5 54t53.5 22zM544 312v-94q-26 -8 -51 -8q-60 0 -100 39t-40 101q0 67 50 111.5t132 44.5q104 0 160.5 -59.5t56.5 -144.5q0 -127 -99.5 -205t-239.5 -78q-130 0 -224 70.5t-144 196.5v110h69
q34 0 49 16.5t15 54.5v92h-208v112h688v-112h-340v-122q0 -111 -84 -140q-16 -6 -26 -7q22 -69 83.5 -108t137.5 -39q84 0 139.5 40.5t55.5 117.5q0 46 -22.5 73.5t-64.5 27.5q-24 0 -39 -14.5t-15 -35.5q0 -20 12.5 -31.5t31.5 -11.5q8 0 17 3z" />
    <glyph glyph-name="uni0917093C094D" horiz-adv-x="322" 
d="M165 94q31 0 53.5 -22t22.5 -54t-22.5 -54t-53.5 -22t-53.5 22t-22.5 54t22.5 54t53.5 22zM352 671v-112h-88v-214q0 -72 -40.5 -107t-104.5 -35q-48 0 -89 14v110q22 -12 49 -12q44 0 44 46v198h-153v112h382z" />
    <glyph glyph-name="uni091C093C094D" horiz-adv-x="442" 
d="M450 671v-112h-480v112h480zM173 -6q31 0 53.5 -22t22.5 -54t-22.5 -54t-53.5 -22t-53.5 22t-22.5 54t22.5 54t53.5 22zM575 463v-115h-270q58 -38 58 -118q0 -82 -56 -128.5t-147 -46.5q-73 0 -130 21v124q47 -25 101 -25q99 0 99 82q0 43 -36 67t-107 24v115h488z" />
    <glyph glyph-name="uni0928093C094D" horiz-adv-x="316" 
d="M-30 559v112h376v-112h-376zM130 428h298v-112h-236q-18 0 -26 -9t-8 -36q0 -29 8 -69h-112q-34 57 -34 130q0 45 28 70.5t82 25.5zM72 63q0 31 22 53.5t54 22.5t54 -22.5t22 -53.5t-22 -53.5t-54 -22.5t-54 22.5t-22 53.5z" />
    <glyph glyph-name="uni092B093C094D" horiz-adv-x="630" 
d="M145 104q31 0 53.5 -22t22.5 -54t-22.5 -54t-53.5 -22t-53.5 22t-22.5 54t22.5 54t53.5 22zM202 559v-190q0 -86 74 -86q39 0 64 24.5t25 68.5v183h-163zM507 559v-100q48 41 117 41q124 0 180 -120l-110 -72q-9 34 -34.5 57t-63.5 23q-39 0 -64 -24.5t-25 -68.5v-295
h-142v212q-48 -41 -117 -41q-89 0 -138.5 50t-49.5 154v184h-90v112h709v-112h-172z" />
    <glyph glyph-name="uni092F093C094D" horiz-adv-x="375" 
d="M411 559h-118q21 -32 21 -86q0 -65 -36.5 -106.5t-94.5 -60.5q14 -39 44 -57.5t83 -18.5q52 0 95 29.5t67 76.5l69 -82q-25 -59 -93 -103.5t-157 -44.5q-110 0 -181.5 68.5t-90.5 201.5q156 22 156 104q0 50 -29 79h-176v112h441v-112zM72 -19q0 31 22 53.5t54 22.5
t54 -22.5t22 -53.5t-22 -53.5t-54 -22.5t-54 22.5t-22 53.5z" />
    <glyph glyph-name="itfStar" horiz-adv-x="637" 
d="M687 472l-233 -150q33 -81 100 -264l-218 180q-30 -22 -219 -180l102 264q-15 9 -118.5 75.5t-117.5 74.5l279 -9q46 174 74 264l71 -264q25 2 139 5.5t141 3.5z" />
    <glyph glyph-name="uni09080902" horiz-adv-x="529" 
d="M567 982v-130q-36 26 -84 26q-40 0 -69 -27.5t-29 -67.5q0 -59 47 -112h127v-112h-95v-152h-1l1 -3h-212q-21 0 -36 -9.5t-15 -29.5q0 -37 41 -40l90 4q82 -6 124.5 -48.5t42.5 -114.5q0 -76 -54 -122.5t-141 -46.5q-63 0 -114 27v-95h-140v252h130q13 -35 42 -57t67 -22
q30 0 50.5 18t20.5 48q0 42 -42 49l-91 -6q-73 5 -121 47t-48 106q0 76 56.5 114t134.5 38h75v43h-354v112h322q-52 68 -52 150q0 81 58 134t146 53q69 0 123 -26zM431 773q0 24 16.5 40.5t40.5 16.5q25 0 41.5 -16.5t16.5 -40.5q0 -25 -16.5 -41.5t-41.5 -16.5
q-24 0 -40.5 16.5t-16.5 41.5z" />
    <glyph glyph-name="uni09300941" horiz-adv-x="672" 
d="M702 559h-359v-112q57 33 113 33q86 0 133.5 -50t47.5 -134q0 -82 -53.5 -133.5t-135.5 -51.5q-52 0 -77 12v110q20 -11 51 -11q35 0 54.5 19.5t19.5 50.5q0 35 -17 55t-49 20q-12 0 -24 -2t-24 -7t-20.5 -9t-21 -12.5t-17.5 -12.5l-18 -14.5t-16 -12.5q-35 -32 -84 -35
h-7l205 -262h-170l-198 256v110h76q92 0 92 76v117h-233v112h732v-112z" />
    <glyph glyph-name="uni09300942" horiz-adv-x="702" 
d="M732 559h-389v-118q51 57 135 57q97 0 153.5 -58.5t56.5 -141.5q0 -99 -56.5 -157.5t-142.5 -58.5q-47 0 -74 10v120q27 -9 51 -9q35 0 58 22t23 67q0 34 -19 56.5t-50 22.5t-50.5 -19t-19.5 -55v-46h-114v50v1q-35 -37 -88 -40h-8l205 -262h-170l-198 256v110h76
q92 0 92 76v117h-233v112h762v-112z" />
    <glyph glyph-name="uni09390941" horiz-adv-x="548" 
d="M483 401h-255q-37 0 -37 -27q0 -24 23 -44q39 9 87 9q97 0 150 -44t53 -109q0 -21 -7 -41h-138q8 16 8 32q0 47 -71 47q-50 0 -77.5 -21t-27.5 -53q0 -78 87 -78q32 18 72 18q84 0 130.5 -43.5t46.5 -105.5q0 -79 -52 -128.5t-154 -49.5q-124 0 -223 52v136
q47 -28 111.5 -50.5t106.5 -22.5q76 0 76 52q0 20 -14.5 34t-39.5 14q-27 0 -44 -17q-8 -1 -23 -1q-39 0 -75.5 9t-71 29.5t-55 60t-20.5 92.5q0 79 65 131q-69 40 -69 109q0 58 43 89t111 31h144v48h-373v112h611v-112h-98v-158z" />
    <glyph glyph-name="uni09390942" horiz-adv-x="551" 
d="M483 401h-255q-37 0 -37 -27q0 -26 28 -48q38 8 82 8q91 0 148 -43t57 -108q0 -38 -9 -58h-138q10 19 10 50q0 19 -20 31.5t-53 12.5q-51 0 -78 -19t-27 -50q0 -33 26 -54.5t80 -25.5q59 0 106.5 -17.5t78.5 -47t51 -70t29 -83.5t9 -91h-131q-1 83 -38 140t-104 57
q-51 0 -51 -42q0 -20 16 -33.5t43 -13.5q26 0 51 11v-106q-27 -11 -61 -11q-80 0 -131 39.5t-51 117.5q0 47 28 86q-46 22 -69.5 61.5t-23.5 83.5q0 79 66 130q-70 41 -70 110q0 58 43 89t111 31h144v48h-373v112h611v-112h-98v-158z" />
    <glyph glyph-name="uni09260943" horiz-adv-x="481" 
d="M382 403l-29 7q-31 6 -66 6q-96 0 -96 -47q0 -46 93 -46h71v-118h-79q-99 0 -99 -51t113 -51q91 0 161 54v-127q-23 -15 -68.5 -27t-92.5 -12q-107 0 -181 39t-74 115q0 58 38.5 89t108.5 33q-67 1 -101.5 31t-34.5 83q0 58 49 91t135 33q26 0 39 -1v55h-299v112h541
v-112h-102v-165z" />
    <glyph glyph-name="uni09390943" horiz-adv-x="582" 
d="M487 401h-245q-37 0 -37 -27q0 -28 32 -51q47 11 103 11q66 0 105.5 -26.5t39.5 -72.5q0 -30 -34 -76.5t-34 -59.5q0 -19 38 -19q26 0 58.5 10t48.5 22v-101q-52 -30 -141 -30q-53 0 -92.5 24.5t-39.5 72.5q0 27 31.5 70t31.5 53q0 23 -31 23q-59 0 -98 -40t-39 -100
q0 -69 62.5 -120t175.5 -51q41 0 57 3v-104q-28 -4 -65 -4q-68 0 -132 16.5t-118.5 49t-87.5 89t-33 129.5q0 120 92 186q-76 38 -76 113q0 58 43 89t111 31h134v48h-377v112h642v-112h-125v-158z" />
    <glyph glyph-name="uni094D0928.post" 
d="M-30 671h341v-112h-100v-559h-141v120l-124 -79q-19 -12 -19 -35q0 -29 43 -70l-80 -49q-44 23 -75 60.5t-31 78.5q0 50 59 87l227 140v306h-100v112z" />
    <glyph glyph-name="uni094D092F.post" horiz-adv-x="653" 
d="M683 671v-112h-119v-559h-141v100q-17 -29 -57 -46.5t-90 -17.5q-100 0 -166 62.5t-81 187.5q33 8 53 14t46 17t39 26t13 34q0 14 -15 24t-42 10q-44 0 -116.5 -16.5t-124.5 -37.5v116q50 19 121 31.5t120 12.5q195 0 195 -140q0 -51 -35.5 -90.5t-90.5 -58.5
q24 -68 108 -68q57 0 90 33t33 99v267h-453v112h713z" />
    <glyph glyph-name="uni094D0930.post" 
d="M-30 671h341v-112h-100v-559h-141v140l-152 -140h-177l329 294v265h-100v112z" />
    <glyph glyph-name="uni094D0930" horiz-adv-x="0" 
d="M-228 0h172l176 -199h-170l-92 119l-92 -119h-170z" />
    <glyph glyph-name="uni0930094D.1" horiz-adv-x="192" 
d="M6 400q53 -32 122 -32q78 0 160 47l32 -111q-85 -46 -190 -46q-70 0 -124 26v116zM222 559h-252v112h252v-112z" />
    <glyph glyph-name="uni0930094D.2" horiz-adv-x="0" 
d="M-39 813q-31 0 -52 -18.5t-21 -50.5q0 -45 38 -85h-142q-5 4 -11.5 12.5t-18 37t-11.5 59.5q0 82 53 125.5t129 43.5q73 0 124 -25v-125q-50 26 -88 26z" />
    <glyph glyph-name="uni0930094D0902" horiz-adv-x="0" 
d="M-35 878q-40 0 -69 -27.5t-29 -67.5q0 -21 6 -41.5t15 -34.5t18 -25.5l14 -17.5l6 -5h-142q-62 73 -62 162q0 81 58 134t146 53q69 0 123 -26v-130q-36 26 -84 26zM-87 773q0 24 16.5 40.5t40.5 16.5q25 0 41.5 -16.5t16.5 -40.5q0 -25 -16.5 -41.5t-41.5 -16.5
q-24 0 -40.5 16.5t-16.5 41.5z" />
    <glyph glyph-name="uni093E0930094D" 
d="M336 912v-125q-50 26 -88 26q-31 0 -52 -18.5t-21 -50.5q0 -38 28 -73h108v-112h-100v-559h-141v559h-100v112h91q-31 44 -31 97q0 82 53 125.5t129 43.5q73 0 124 -25z" />
    <glyph glyph-name="uni093E0930094D0902" 
d="M-30 671h87q-52 68 -52 150q0 81 58 134t146 53q69 0 123 -26v-130q-36 26 -84 26q-40 0 -69 -27.5t-29 -67.5q0 -59 47 -112h114v-112h-100v-559h-141v559h-100v112zM196 773q0 24 16.5 40.5t40.5 16.5q25 0 41.5 -16.5t16.5 -40.5q0 -25 -16.5 -41.5t-41.5 -16.5
q-24 0 -40.5 16.5t-16.5 41.5z" />
    <glyph glyph-name="uni0930094D.aMatraI" horiz-adv-x="0" 
d="M0 777l-131 23v87q0 75 46.5 121.5t122.5 46.5q71 0 122 -25v-130q-43 31 -96 31q-31 0 -47.5 -18.5t-16.5 -50.5v-85z" />
    <glyph glyph-name="uni0902.aMatraI" horiz-adv-x="0" 
d="M-65 908q0 34 23.5 58t58.5 24t58.5 -24t23.5 -58t-23.5 -58t-58.5 -24t-58.5 24t-23.5 58z" />
    <glyph glyph-name="uni0930094D0902.aMatraI" horiz-adv-x="0" 
d="M64 931q-31 0 -47.5 -18.5t-16.5 -50.5v-85l-131 23v87q0 75 46.5 121.5t122.5 46.5q71 0 122 -25v-130q-43 31 -96 31zM45 810q0 24 16.5 40.5t40.5 16.5q25 0 41.5 -16.5t16.5 -40.5q0 -25 -16.5 -41.5t-41.5 -16.5q-24 0 -40.5 16.5t-16.5 41.5z" />
    <glyph glyph-name="uni09400930094D" horiz-adv-x="282" 
d="M375 912v-125q-50 26 -88 26q-36 0 -56.5 -22t-20.5 -65v-55h102v-112h-100v-559h-142v559h-100v112h99v60q0 37 -19.5 57t-55.5 20q-70 0 -70 -77v-25h-142v30q0 94 60 142t152 48q103 0 155 -64q41 76 125 76q60 0 101 -26z" />
    <glyph glyph-name="uni09400902" 
d="M210 737v-66h101v-112h-100v-559h-141v559h-100v112h99v60q0 37 -19.5 57t-55.5 20q-70 0 -70 -77v-25h-142v30q0 94 60 142t152 48q93 0 154.5 -47.5t61.5 -141.5zM337 900q35 0 58.5 -24t23.5 -58t-23.5 -58t-58.5 -24t-58.5 24t-23.5 58t23.5 58t58.5 24z" />
    <glyph glyph-name="uni09400930094D0902" horiz-adv-x="282" 
d="M312 830q25 0 41.5 -16.5t16.5 -40.5q0 -25 -16.5 -41.5t-41.5 -16.5q-24 0 -40.5 16.5t-16.5 41.5q0 24 16.5 40.5t40.5 16.5zM-218 706v30q0 92 51.5 141t138.5 49q111 0 157 -64q14 62 62 104t107 42q56 0 93 -26v-130q-36 26 -84 26q-46 0 -71.5 -29t-25.5 -85v-93
h102v-112h-100v-559h-142v559h-100v112h99v60q0 37 -19.5 57t-55.5 20q-70 0 -70 -77v-25h-142z" />
    <glyph glyph-name="uni0940.aLong" 
d="M210 671h101v-112h-100v-559h-141v559h-100v112h101v29q0 56 -49 82t-172 26q-94 0 -139 -24t-45 -65v-13h-142v18q0 96 90 149t236 53q175 0 267.5 -55t92.5 -165v-35z" />
    <glyph glyph-name="uni09400930094D.aLong" 
d="M371 912v-125q-50 26 -88 26q-36 0 -56.5 -22t-20.5 -65v-55h105v-112h-100v-559h-141v559h-100v112h101v29q0 56 -49 82t-172 26q-94 0 -139 -24t-45 -65v-13h-142v18q0 96 90 149t236 53q206 0 289 -77q17 40 50.5 64.5t80.5 24.5q60 0 101 -26z" />
    <glyph glyph-name="uni09400902.aLong" 
d="M210 706v-35h101v-112h-100v-559h-141v559h-100v112h101v29q0 56 -49 82t-172 26q-94 0 -139 -24t-45 -65v-13h-142v18q0 96 90 149t236 53q175 0 267.5 -55t92.5 -165zM337 900q35 0 58.5 -24t23.5 -58t-23.5 -58t-58.5 -24t-58.5 24t-23.5 58t23.5 58t58.5 24z" />
    <glyph glyph-name="uni09400930094D0902.aLong" 
d="M318 830q25 0 41.5 -16.5t16.5 -40.5q0 -25 -16.5 -41.5t-41.5 -16.5q-24 0 -40.5 16.5t-16.5 41.5q0 24 16.5 40.5t40.5 16.5zM-476 706v18q0 96 90 149t236 53q206 0 280 -93q5 74 53 124.5t121 50.5q56 0 93 -26v-130q-36 26 -84 26q-46 0 -71.5 -29t-25.5 -85v-93h95
v-112h-100v-559h-141v559h-100v112h101v29q0 56 -49 82t-172 26q-94 0 -139 -24t-45 -65v-13h-142z" />
    <glyph glyph-name="uni09470930094D" horiz-adv-x="0" 
d="M-194 833l14 -22q11 52 52 84t100 32q58 0 97 -23v-130q-45 31 -96 31q-30 -1 -48.5 -21t-18.5 -51q0 -20 4.5 -40.5t9.5 -30.5l4 -11h-62q-1 2 -4 6.5t-5 6.5h-68l-72 105q-29 41 -76 41q-31 0 -64 -10v118q36 7 76 7q57 0 90 -20t67 -72z" />
    <glyph glyph-name="uni09470902" horiz-adv-x="0" 
d="M-427 800v118q36 7 76 7q61 -1 103 -22t74 -70l110 -169h-151l-72 105q-27 41 -76 41q-31 0 -64 -10zM-99 838q0 34 23.5 58t58.5 24t58.5 -24t23.5 -58t-23.5 -58t-58.5 -24t-58.5 24t-23.5 58z" />
    <glyph glyph-name="uni09470930094D0902" horiz-adv-x="0" 
d="M-10 830q25 0 41.5 -16.5t16.5 -40.5q0 -25 -16.5 -41.5t-41.5 -16.5q-24 0 -40.5 16.5t-16.5 41.5q0 24 16.5 40.5t40.5 16.5zM-427 800v118q36 7 76 7q82 -1 130 -48q16 57 61.5 93t106.5 36q71 0 121 -24v-130q-36 26 -84 26q-40 0 -69 -27.5t-29 -67.5q0 -21 6 -41.5
t15 -34.5t18 -25.5t15 -17.5l5 -5h-112l-4 5h-44l-72 105q-27 41 -76 41q-31 0 -64 -10z" />
    <glyph glyph-name="uni09480930094D" horiz-adv-x="0" 
d="M-194 862l9 -15q36 93 144 93q56 0 97 -28v-125q-50 26 -88 26q-31 0 -52 -18.5t-21 -50.5q0 -26 13 -50l10 -16q5 -7 15 -19h-82q-1 2 -4 5h-82q-116 62 -186 62q-30 0 -56 -7v100q31 9 59 9q54 0 99.5 -23.5t139.5 -103.5l-95 112q-30 35 -58.5 51t-70.5 16
q-41 0 -74 -10v105q27 9 83 9q126 0 200 -122z" />
    <glyph glyph-name="uni09480902" horiz-adv-x="0" 
d="M-477 870v105q27 9 83 9q126 0 200 -122l120 -198h-161q-116 62 -186 62q-30 0 -56 -7v100q31 9 59 9q54 0 99.5 -23.5t139.5 -103.5l-95 112q-30 35 -58.5 51t-70.5 16q-41 0 -74 -10zM-17 900q35 0 58.5 -24t23.5 -58t-23.5 -58t-58.5 -24t-58.5 24t-23.5 58t23.5 58
t58.5 24z" />
    <glyph glyph-name="uni09480930094D0902" horiz-adv-x="0" 
d="M-18 830q25 0 41.5 -16.5t16.5 -40.5q0 -25 -16.5 -41.5t-41.5 -16.5q-24 0 -40.5 16.5t-16.5 41.5q0 24 16.5 40.5t40.5 16.5zM-477 870v105q27 9 83 9q120 0 192 -109q12 59 54.5 96.5t103.5 37.5q62 0 105 -27v-130q-36 26 -84 26q-40 0 -69 -27.5t-29 -67.5t23 -80
l1 -2q7 -12 16.5 -22.5t14.5 -14.5l4 -5h-82l-4 5h-87q-116 62 -186 62q-30 0 -56 -7v100q31 9 59 9q54 0 99.5 -23.5t139.5 -103.5l-95 112q-30 35 -58.5 51t-70.5 16q-41 0 -74 -10z" />
    <glyph glyph-name="uni094A0902" 
d="M7 844h25q177 0 179 -173h100v-112h-100v-559h-141v559h-100v112h100q-2 35 -13 47.5t-41 12.5h-27q-30 0 -50.5 1.5t-52 11.5t-51 27.5t-34.5 52.5t-15 84h143q0 -40 16.5 -52t61.5 -12zM305 908q35 0 58.5 -24t23.5 -58t-23.5 -58t-58.5 -24t-58.5 24t-23.5 58t23.5 58
t58.5 24z" />
    <glyph glyph-name="uni094B0930094D" 
d="M355 904v-130q-45 31 -96 31q-30 -1 -48.5 -21t-18.5 -51q0 -32 10 -62h109v-112h-100v-559h-141v559h-100v112h96l-67 98q-29 41 -76 41q-31 0 -64 -10v118q36 7 76 7q57 0 90 -20t67 -72l14 -22q11 52 52 84t100 32q58 0 97 -23z" />
    <glyph glyph-name="uni094B0902" 
d="M106 833l105 -162h100v-112h-100v-559h-141v559h-100v112h90l-67 98q-27 41 -76 41q-31 0 -64 -10v118q36 7 76 7q61 -1 103 -22t74 -70zM263 920q35 0 58.5 -24t23.5 -58t-23.5 -58t-58.5 -24t-58.5 24t-23.5 58t23.5 58t58.5 24z" />
    <glyph glyph-name="uni094B0930094D0902" 
d="M-150 800v118q36 7 76 7q82 -1 130 -48q16 57 61.5 93t106.5 36q72 0 121 -24v-130q-36 26 -84 26q-40 0 -69 -27.5t-29 -67.5q0 -59 47 -112h101v-112h-100v-559h-141v559h-100v112h87l-67 98q-27 41 -76 41q-31 0 -64 -10zM210 773q0 24 16.5 40.5t40.5 16.5
q25 0 41.5 -16.5t16.5 -40.5q0 -25 -16.5 -41.5t-41.5 -16.5q-24 0 -40.5 16.5t-16.5 41.5z" />
    <glyph glyph-name="uni094C0930094D" 
d="M346 912v-125q-50 26 -88 26q-31 0 -52 -18.5t-21 -50.5q0 -26 13 -50l10 -16l5 -7h98v-112h-100v-559h-141v559h-100v112h72q-106 55 -173 55q-30 0 -56 -7v100q31 9 59 9q54 0 99.5 -23.5t139.5 -103.5l-95 112q-30 35 -58.5 51t-70.5 16q-41 0 -74 -10v105q27 9 83 9
q126 0 200 -122l9 -15q36 93 144 93q56 0 97 -28z" />
    <glyph glyph-name="uni094C0902" 
d="M93 862l116 -191h102v-112h-100v-559h-141v559h-100v112h69q-106 55 -173 55q-30 0 -56 -7v100q31 9 59 9q54 0 99.5 -23.5t139.5 -103.5l-95 112q-30 35 -58.5 51t-70.5 16q-41 0 -74 -10v105q27 9 83 9q126 0 200 -122zM270 900q34 0 58 -24t24 -58t-24 -58t-58 -24
t-58 24t-24 58t24 58t58 24z" />
    <glyph glyph-name="uni094C0930094D0902" 
d="M-198 870v105q27 9 83 9q120 0 192 -109q12 59 54.5 96.5t103.5 37.5q62 0 105 -27v-130q-36 26 -84 26q-40 0 -69 -27.5t-29 -67.5t23 -80l1 -2q7 -11 23 -30h106v-112h-100v-559h-141v559h-100v112h61q-106 55 -173 55q-30 0 -56 -7v100q31 9 59 9q54 0 99.5 -23.5
t139.5 -103.5l-95 112q-30 35 -58.5 51t-70.5 16q-41 0 -74 -10zM204 773q0 24 16.5 40.5t40.5 16.5q25 0 41.5 -16.5t16.5 -40.5q0 -25 -16.5 -41.5t-41.5 -16.5q-24 0 -40.5 16.5t-16.5 41.5z" />
    <glyph glyph-name="uni0915094D0937" horiz-adv-x="794" 
d="M280 566q-28 0 -44 -16.5t-16 -43.5q0 -58 67 -76q51 27 51 82q0 24 -16 39t-42 15zM582 671h242v-112h-100v-559h-142v312h-214q-59 0 -110 12q-96 -42 -96 -106q0 -32 21 -50.5t58 -18.5q94 0 110 100h138v-249h-140v88q-17 -24 -55 -40t-82 -16q-87 0 -140 47.5
t-53 127.5q0 114 125 171q-57 50 -57 132q0 72 51.5 121.5t138.5 49.5q89 0 141 -41t52 -115q0 -62 -47 -106h159v252z" />
    <glyph glyph-name="uni0915094D0937094D" horiz-adv-x="563" 
d="M280 566q-28 0 -44 -16.5t-16 -43.5q0 -58 67 -76q51 27 51 82q0 24 -16 39t-42 15zM679 312h-311q-59 0 -110 12q-96 -42 -96 -106q0 -32 21 -50.5t58 -18.5q94 0 110 100h138v-249h-140v88q-17 -24 -55 -40t-82 -16q-87 0 -140 47.5t-53 127.5q0 114 125 171
q-57 50 -57 132q0 72 51.5 121.5t138.5 49.5q89 0 141 -41t52 -115q0 -62 -47 -106h256v-107z" />
    <glyph glyph-name="uni0915094D0937094D092E" horiz-adv-x="1130" 
d="M922 373v186h-158v-186h158zM280 566q-28 0 -44 -16.5t-16 -43.5q0 -58 67 -76q51 27 51 82q0 24 -16 39t-42 15zM515 671h645v-112h-100v-559h-138v261h-158v-122h-119l-36 80q-29 66 -29 92v1h-212q-59 0 -110 12q-96 -42 -96 -106q0 -32 21 -50.5t58 -18.5
q94 0 110 100h138v-249h-140v88q-17 -24 -55 -40t-82 -16q-87 0 -140 47.5t-53 127.5q0 114 125 171q-57 50 -57 132q0 72 51.5 121.5t138.5 49.5q89 0 141 -41t52 -115q0 -62 -47 -106h202v140h-110v112z" />
    <glyph glyph-name="uni0915094D0937094D092E094D" horiz-adv-x="887" 
d="M280 566q-28 0 -44 -16.5t-16 -43.5q0 -58 67 -76q51 27 51 82q0 24 -16 39t-42 15zM1160 559h-396v-182h208v-123h-208v-119h-119l-36 80q-29 66 -29 91v6h-212q-59 0 -110 12q-96 -42 -96 -106q0 -32 21 -50.5t58 -18.5q94 0 110 100h138v-249h-140v88q-17 -24 -55 -40
t-82 -16q-87 0 -140 47.5t-53 127.5q0 114 125 171q-57 50 -57 132q0 72 51.5 121.5t138.5 49.5q89 0 141 -41t52 -115q0 -62 -47 -106h202v140h-110v112h645v-112z" />
    <glyph glyph-name="uni0915094D0937094D092E094D092F" horiz-adv-x="1494" 
d="M1283 362v197h-130q21 -32 21 -86q0 -65 -36.5 -106.5t-94.5 -60.5q23 -76 117 -76q57 0 90 33t33 99zM759 377h127q149 24 149 103q0 50 -29 79h-247v-182zM280 566q-28 0 -44 -16.5t-16 -43.5q0 -58 67 -76q51 27 51 82q0 24 -16 39t-42 15zM1524 671v-112h-100v-559
h-141v170q-17 -29 -57 -46.5t-90 -17.5q-71 0 -130 38.5t-93 109.5h-154v-119h-119l-36 80q-29 66 -29 91v6h-207q-59 0 -110 12q-96 -42 -96 -106q0 -32 21 -50.5t58 -18.5q94 0 110 100h138v-249h-140v88q-17 -24 -55 -40t-82 -16q-87 0 -140 47.5t-53 127.5
q0 114 125 171q-57 50 -57 132q0 72 51.5 121.5t138.5 49.5q89 0 141 -41t52 -115q0 -62 -47 -106h197v140h-110v112h1014z" />
    <glyph glyph-name="uni0915094D0937094D092F" horiz-adv-x="1144" 
d="M933 362v197h-130q21 -32 21 -86q0 -65 -36.5 -106.5t-94.5 -60.5q23 -76 117 -76q57 0 90 33t33 99zM280 566q-28 0 -44 -16.5t-16 -43.5q0 -58 67 -76q51 27 51 82q0 24 -16 39t-42 15zM520 671h654v-112h-100v-559h-141v170q-17 -29 -57 -46.5t-90 -17.5
q-85 0 -151 54t-93 152h-174q-59 0 -110 12q-96 -42 -96 -106q0 -32 21 -50.5t58 -18.5q94 0 110 100h138v-249h-140v88q-17 -24 -55 -40t-82 -16q-87 0 -140 47.5t-53 127.5q0 114 125 171q-57 50 -57 132q0 72 51.5 121.5t138.5 49.5q89 0 141 -41t52 -115q0 -62 -47 -106
h230q32 25 32 61q0 50 -29 79h-136v112z" />
    <glyph glyph-name="uni0915094D0937094D0935" horiz-adv-x="1133" 
d="M280 566q-28 0 -44 -16.5t-16 -43.5q0 -58 67 -76q51 27 51 82q0 24 -16 39t-42 15zM1163 671v-112h-100v-559h-142v135q-55 -49 -139 -49q-92 0 -154.5 55t-62.5 151q0 13 1 20h-198q-59 0 -110 12q-96 -42 -96 -106q0 -32 21 -50.5t58 -18.5q94 0 110 100h138v-249
h-140v88q-17 -24 -55 -40t-82 -16q-87 0 -140 47.5t-53 127.5q0 114 125 171q-57 50 -57 132q0 72 51.5 121.5t138.5 49.5q89 0 141 -41t52 -115q0 -62 -47 -106h181q63 86 184 86q40 0 70 -8v-122q-34 9 -59 9q-39 0 -65 -24t-26 -64q0 -47 26.5 -72.5t76.5 -25.5
q40 0 75 26.5t35 66.5v268h-401v112h643z" />
    <glyph glyph-name="uni091C094D091E" horiz-adv-x="758" 
d="M-30 671h841v-112h-100v-559h-142v394h-306q-57 0 -57 -30q0 -19 19.5 -26.5t80.5 -9.5q95 -3 144 -44t49 -116t-58 -120.5t-136 -45.5q-67 0 -120 32v-85h-140v242h130q12 -34 43 -59t68 -25q33 0 53.5 16t20.5 45q0 53 -94 53q-203 0 -203 140q0 75 56 110t135 35h315
v53h-599v112z" />
    <glyph glyph-name="uni091C094D091E094D" horiz-adv-x="545" 
d="M575 671v-112h-605v112h605zM696 384h-433q-57 0 -57 -30q0 -18 18 -23.5t82 -7.5q193 -6 193 -155q0 -75 -58 -120.5t-136 -45.5q-67 0 -120 32v-85h-140v242h130q12 -34 43 -59t68 -25q33 0 53.5 16t20.5 45q0 26 -21.5 37t-72.5 11q-203 0 -203 135q0 75 56 110
t135 35h442v-112z" />
    <glyph glyph-name="uni091C094D091E094D092F" horiz-adv-x="1164" 
d="M953 362v197h-130q21 -32 21 -86q0 -65 -36.5 -106.5t-94.5 -60.5q23 -76 117 -76q57 0 90 33t33 99zM1194 671v-112h-100v-559h-141v170q-17 -29 -57 -46.5t-90 -17.5q-92 0 -161.5 63.5t-90.5 175.5q-39 39 -154 39h-137q-57 0 -57 -30q0 -18 18 -23.5t82 -7.5
q193 -6 193 -155q0 -75 -58 -120.5t-136 -45.5q-67 0 -120 32v-85h-140v242h130q12 -34 43 -59t68 -25q33 0 53.5 16t20.5 45q0 26 -21.5 37t-72.5 11q-203 0 -203 135q0 75 56 110t135 35h159q168 0 253 -82q39 26 39 66q0 50 -29 79h-706v112h1224z" />
    <glyph glyph-name="uni0915094D0928" horiz-adv-x="824" 
d="M855 559h-364v-109q44 39 106 39q89 0 143.5 -55.5t54.5 -141.5q0 -93 -62 -148.5t-159 -55.5q-15 0 -23 1v113q6 -1 16 -1q41 0 63.5 25t22.5 64q0 36 -21 61.5t-61 25.5q-35 0 -57.5 -25.5t-22.5 -67.5v-284h-142v126q-10 -8 -16 -12l-119 -101q-16 -13 -16 -29
q0 -26 55 -81l-77 -57q-47 20 -82.5 59.5t-35.5 79.5q0 47 51 81l51 36q-54 20 -84.5 66.5t-30.5 109.5q0 93 62 147t159 54q14 0 23 -1v-113q-6 1 -16 1q-41 0 -63.5 -24t-22.5 -62q0 -35 21 -57.5t61 -22.5q35 0 57.5 25.5t22.5 67.5v266h-379v112h885v-112z" />
    <glyph glyph-name="uni091A094D0928" horiz-adv-x="660" 
d="M690 671v-112h-100v-559h-140v168q-19 -26 -46 -42l-157 -116q-18 -13 -18 -32q0 -25 48 -81l-80 -51q-45 24 -75.5 61.5t-30.5 77.5q0 53 56 86l51 30q-56 17 -87.5 58.5t-31.5 93.5q0 72 53 106h-112v115h359v-115q-165 0 -165 -86q0 -33 25 -51t68 -18q65 0 104 41
t39 78v236h-480v112h720z" />
    <glyph glyph-name="uni091B094D0928" horiz-adv-x="662" 
d="M414 508v51h-176q-42 -33 -42 -82q0 -30 19 -50t53 -20h37v-118h-37q-81 0 -81 -60q0 -29 31.5 -46.5t81.5 -17.5q81 0 130 39.5t49 105.5q0 41 -22 62.5t-56 21.5q-31 0 -49 -5v111q23 6 62 8zM692 559h-144v-85q74 -50 74 -152q0 -117 -83 -192v-435h-132v181h-115
q-18 0 -26 -9t-8 -36q0 -29 8 -69h-112q-34 57 -34 120q0 45 28 70.5t82 25.5h177v84q-48 -13 -108 -13q-106 0 -180 45.5t-74 127.5q0 56 37.5 89t105.5 37q-64 1 -98.5 37.5t-34.5 89.5q0 49 33 84h-118v112h722v-112z" />
    <glyph glyph-name="uni091F094D0928" horiz-adv-x="545" 
d="M464 559v-202q-42 8 -88 8q-80 0 -139 -25t-59 -82q0 -98 175 -98q44 0 90.5 12.5t76.5 30.5v-127q-18 -10 -60 -22v-309h-132v121h-95q-18 0 -26 -9t-8 -36q0 -19 8 -59h-112q-34 57 -34 110q0 45 28 70.5t82 25.5h157v71q-135 3 -214 61t-79 163q0 90 77 150t203 63h9
v83h-354v112h604v-112h-110z" />
    <glyph glyph-name="uni0920094D0928" horiz-adv-x="620" 
d="M438 269q0 49 -34.5 74.5t-93.5 25.5q-56 0 -92 -24.5t-36 -74.5q0 -47 37 -74t94 -27q58 0 91.5 27t33.5 73zM650 559h-246v-90q79 -21 127.5 -72.5t48.5 -127.5q0 -114 -109 -173v-307h-132v121h-95q-18 0 -26 -9t-8 -36q0 -19 8 -59h-112q-34 57 -34 110q0 45 28 70.5
t82 25.5h157v46q-5 0 -13 -0.5t-13 -0.5q-116 0 -194.5 58t-78.5 156q0 89 65 141.5t158 64.5v82h-293v112h680v-112z" />
    <glyph glyph-name="uni0926094D0928" horiz-adv-x="589" 
d="M507 383h-208q-53 0 -84.5 -28t-31.5 -75q0 -48 27 -74.5t71 -26.5q94 0 110 100h138v-289h-140v125q-10 -14 -27 -25l-142 -110q-19 -13 -19 -35q0 -29 43 -70l-80 -49q-44 23 -75 60.5t-31 78.5q0 53 59 87l47 28q-58 24 -91 77t-33 121q0 97 65.5 157t187.5 60h71v64
h-394v112h649v-112h-112v-176z" />
    <glyph glyph-name="uni0928094D0928" horiz-adv-x="556" 
d="M-30 671h616v-112h-100v-559h-142v184l-126 -31q-40 -10 -40 -60q0 -7 12 -61l-89 -21q-22 22 -44 65t-22 80q0 71 88 92l192 40l-96 60q-15 12 -31 12q-42 0 -85 -63l-69 61q13 61 46 105.5t80 44.5q43 0 88 -32l96 -69v152h-374v112z" />
    <glyph glyph-name="uni092B094D0928" horiz-adv-x="844" 
d="M370 376v183h-163v-190q0 -86 74 -86q39 0 64 24.5t25 68.5zM874 559h-362v-100q48 41 117 41q87 0 136 -56.5t49 -138.5q0 -100 -62 -152.5t-156 -52.5q-17 0 -25 1v113q6 -1 16 -1q86 0 86 91q0 35 -19.5 59.5t-52.5 24.5q-39 0 -64 -24.5t-25 -68.5v-295h-142v212
l-6 -5l-131 -110q-18 -15 -18 -39q0 -27 42 -69l-80 -49q-44 23 -75 60.5t-31 78.5q0 49 59 87l34 21q-99 43 -99 188v184h-95v112h904v-112z" />
    <glyph glyph-name="uni092C094D0928" horiz-adv-x="632" 
d="M362 203l-170 143q-14 -25 -14 -58q0 -47 30 -75.5t77 -28.5q41 0 77 19zM662 671v-112h-100v-559h-142v132q-16 -13 -23 -18l-128 -108q-18 -15 -18 -39q0 -27 42 -69l-80 -49q-44 23 -75 60.5t-31 78.5q0 55 59 87l21 12q-67 23 -109.5 77.5t-42.5 127.5
q0 94 63.5 156.5t168.5 62.5q46 0 81 -8v-122q-30 10 -69 10q-19 0 -36 -6l166 -136q11 19 11 42v268h-450v112h692z" />
    <glyph glyph-name="uni0936094D0928" horiz-adv-x="758" 
d="M284 566q-28 0 -44 -16.5t-16 -43.5q0 -52 63 -93q55 33 55 89q0 25 -16.5 44.5t-41.5 19.5zM546 671h242v-112h-100v-559h-142v188l-158 -114q-19 -12 -19 -35q0 -27 37 -58l-80 -49q-100 53 -100 127q0 50 59 87l122 81q-57 18 -112 41l-195 -120l-110 85l182 107
q-88 72 -88 170q0 71 54.5 121t142.5 50q89 0 145 -49t56 -129q0 -85 -77 -146q64 -23 141 -45v359z" />
    <glyph glyph-name="uni0938094D0928" horiz-adv-x="822" 
d="M323 559v-113q60 22 118 22q107 0 170 -57v148h-288zM852 671v-112h-100v-559h-141v230l-108 -49q-27 -14 -27 -45q0 -24 27 -65l-89 -31q-76 66 -76 136q0 69 79 95l142 45q-59 37 -118 37q-35 0 -73.5 -10t-59.5 -19l-60 -27q-22 -14 -56 -22q-4 0 -12 -2l163 -273
h-160l-163 269v98h71q92 0 92 77v115h-213v112h882z" />
    <glyph glyph-name="uni0939094D0928" horiz-adv-x="679" 
d="M587 401h-345q-37 0 -37 -27q0 -31 38 -55q57 15 132 15q131 0 205.5 -62t74.5 -167q0 -49 -9 -80h-126q8 26 8 65q0 32 -13 60l-91 -43q-18 -8 -18 -22q0 -22 39 -76l-87 -41q-28 22 -55.5 57.5t-27.5 69.5q0 48 60 76l91 43q-27 7 -63 7q-84 0 -131.5 -37.5
t-47.5 -99.5q0 -69 62.5 -120t175.5 -51q41 0 57 3v-104q-28 -4 -65 -4q-68 0 -132 16.5t-118.5 49t-87.5 89t-33 129.5q0 118 99 183q-10 4 -20.5 11t-26.5 20.5t-26 36t-10 48.5q0 58 43 89t111 31h234v48h-477v112h739v-112h-122v-158z" />
    <glyph glyph-name="uni0915094D0930" horiz-adv-x="824" 
d="M855 559h-364v-109q44 39 106 39q89 0 143.5 -55.5t54.5 -141.5q0 -93 -62 -148.5t-159 -55.5q-15 0 -23 1v113q6 -1 16 -1q41 0 63.5 25t22.5 64q0 36 -21 61.5t-61 25.5q-35 0 -57.5 -25.5t-22.5 -67.5v-284h-142v118l-131 -163h-167l118 135q-58 20 -91 69.5
t-33 115.5q0 93 62 148.5t159 55.5q14 0 23 -1v-113q-6 1 -16 1q-41 0 -63.5 -25t-22.5 -64q0 -36 21 -61.5t61 -25.5q35 0 57.5 25.5t22.5 67.5v276h-379v112h885v-112z" />
    <glyph glyph-name="uni0916094D0930" horiz-adv-x="822" 
d="M610 488v71h-296v-114q0 -62 -22.5 -96.5t-74.5 -46.5l-9 -2q22 -68 79 -102.5t134 -34.5q83 0 141 32.5t58 105.5q0 46 -21.5 73.5t-59.5 27.5q-26 0 -43 -12t-17 -32q0 -17 11 -28t33 -11q8 0 17 3v-94q-26 -8 -51 -8q-60 0 -100 38t-40 100q0 65 50 106.5t125 41.5
q45 0 86 -18zM852 671v-112h-100v-559h-142v111q-34 -31 -130 -106.5l-142 -113.5h-209l192 156q-192 36 -276 249v110h69q34 0 47 14.5t13 52.5v86h-204v112h882z" />
    <glyph glyph-name="uni0917094D0930" horiz-adv-x="600" 
d="M-30 671h660v-112h-100v-559h-140v129l-172 -149h-189l361 319v260h-111v-214q0 -72 -40.5 -107t-104.5 -35q-48 0 -89 14v110q22 -12 49 -12q44 0 44 46v198h-168v112z" />
    <glyph glyph-name="uni0918094D0930" horiz-adv-x="644" 
d="M434 341v218h-207q-31 -26 -31 -61q0 -61 89 -61h40v-118h-48q-44 0 -69.5 -18.5t-25.5 -49.5q0 -32 25.5 -48.5t66.5 -16.5q72 0 116 39.5t44 115.5zM674 671v-112h-100v-559h-140v140l-204 -185h-187l140 123q-64 14 -103.5 56t-39.5 103q0 60 42.5 98t114.5 43
q-68 2 -105.5 29.5t-37.5 77.5q0 42 30 74h-114v112h704z" />
    <glyph glyph-name="uni0919094D0930" horiz-adv-x="640" 
d="M554 441q34 0 58 -23.5t24 -58.5t-24 -58.5t-58 -23.5t-58 23.5t-24 58.5t24 58.5t58 23.5zM-30 671h700v-112h-237v-155h-209q-51 0 -51 -39q0 -24 27 -30.5t89 -6.5q200 0 200 -153q-1 -51 -31 -91t-84 -62l134 -171h-170l-82 129l-82 -129h-170l128 163q-52 13 -97 38
v130q106 -65 217 -65q47 0 72 14t25 36q0 27 -23 35.5t-83 8.5q-40 0 -74.5 7t-66 23t-50 47t-18.5 74q0 77 56.5 115.5t134.5 38.5h68v43h-323v112z" />
    <glyph glyph-name="uni091A094D0930" horiz-adv-x="660" 
d="M690 671v-112h-100v-559h-140v167l-214 -212h-184l150 145q-58 16 -90.5 58t-32.5 95q0 72 53 106h-112v115h359v-115q-165 0 -165 -86q0 -33 25 -51t68 -18q56 0 99.5 34.5t43.5 84.5v236h-480v112h720z" />
    <glyph glyph-name="uni091B094D0930" horiz-adv-x="657" 
d="M414 508v51h-176q-42 -33 -42 -82q0 -30 19 -50t53 -20h37v-118h-37q-81 0 -81 -60q0 -29 31.5 -46.5t81.5 -17.5q81 0 130 39.5t49 105.5q0 41 -22 62.5t-56 21.5q-31 0 -49 -5v111q23 6 62 8zM687 559h-139v-85q74 -50 74 -152q0 -89 -48 -153.5t-132 -95.5l136 -173
h-170l-80 129l-84 -129h-170l126 161q-70 18 -112.5 58.5t-42.5 102.5q0 56 37.5 89t105.5 37q-64 1 -98.5 37.5t-34.5 89.5q0 49 33 84h-118v112h717v-112z" />
    <glyph glyph-name="uni091C094D0930" horiz-adv-x="658" 
d="M-30 671h718v-112h-100v-559h-142v56l-180 -156h-179l359 308v140h-140q57 -36 57 -105t-59.5 -113.5t-143.5 -44.5q-73 0 -130 21v124q47 -25 101 -25q99 0 99 64q0 79 -143 79v115h359v96h-476v112z" />
    <glyph glyph-name="uni091D094D0930" horiz-adv-x="881" 
d="M266 336h403v223h-204v-155h-200q-63 0 -63 -36q0 -32 64 -32zM911 671v-112h-100v-559h-142v60l-170 -178h-188l358 326v21h-185q8 -23 8 -58q0 -76 -51.5 -122.5t-136.5 -46.5q-65 0 -119 31v-84h-140v242h130l1 -7q18 -36 47.5 -56.5t62.5 -20.5q31 0 49 14.5t18 41.5
q0 32 -23 43t-64 11q-207 0 -207 143q0 79 56 117.5t144 38.5h66v43h-355v112h941z" />
    <glyph glyph-name="uni091E094D0930" horiz-adv-x="710" 
d="M740 671v-112h-100v-559h-142v66l-192 -166h-191l383 316v32h-92q-18 -70 -81 -115.5t-147 -45.5q-45 0 -89.5 11t-68.5 26v127q72 -43 147 -43q104 0 104 91q0 81 -92 81q-46 0 -90 -19v119q42 17 103 17q84 0 139 -35.5t73 -101.5h94v199h-528v112h770z" />
    <glyph glyph-name="uni091F094D0930" horiz-adv-x="525" 
d="M454 559v-202q-42 7 -95 7q-84 0 -127.5 -32t-43.5 -87q0 -56 42.5 -85.5t112.5 -29.5q75 0 147 43v-127q-37 -18 -66 -26l125 -160h-170l-80 129l-84 -129h-170l138 176q-66 28 -102 83t-36 131q0 93 68 157.5t191 68.5h10v83h-344v112h585v-112h-101z" />
    <glyph glyph-name="uni0920094D0930" horiz-adv-x="575" 
d="M291 169q50 0 79 27t29 73q0 49 -29.5 74t-81.5 26q-48 0 -79.5 -24.5t-31.5 -74.5q0 -47 32.5 -74t81.5 -27zM605 559h-223v-91q73 -20 116 -71.5t43 -127.5q0 -65 -33.5 -114t-94.5 -75l135 -172h-170l-82 129l-82 -129h-170l132 168q-66 24 -103.5 74t-37.5 121
q0 90 59 142.5t147 63.5v82h-271v112h635v-112z" />
    <glyph glyph-name="uni0921094D0930" horiz-adv-x="539" 
d="M438 559v-152h-1l1 -3h-209q-51 0 -51 -39q0 -24 27 -30.5t89 -6.5q21 0 30 -1q170 -12 170 -152q-1 -51 -31 -91t-84 -62l134 -171h-170l-82 129l-82 -129h-170l128 163q-52 13 -97 38v130q106 -65 217 -65q47 0 72 14t25 36q0 24 -17.5 33t-59.5 11h-29q-40 0 -74.5 7
t-66 23t-50 47t-18.5 74q0 77 56.5 115.5t134.5 38.5h68v43h-328v112h599v-112h-131z" />
    <glyph glyph-name="uni0922094D0930" horiz-adv-x="568" 
d="M464 559v-192q-47 11 -101 11q-51 0 -91.5 -11t-69.5 -41t-29 -76q0 -51 37 -89.5t96 -38.5q38 0 63.5 15t25.5 43q0 19 -15 30.5t-42 11.5q-42 0 -72 -22v99q44 23 103 23q71 0 115.5 -37t44.5 -102q0 -53 -29.5 -93t-83.5 -61l132 -169h-170l-82 129l-82 -129h-170
l134 171q-69 29 -108.5 88t-39.5 132q0 116 79 174.5t205 60.5h10v73h-354v112h627v-112h-133z" />
    <glyph glyph-name="uni0923094D0930" horiz-adv-x="764" 
d="M297 372v187h-117v-188q0 -66 59 -66q58 0 58 67zM794 671v-112h-100v-559h-141v131l-198 -158h-207l405 325v261h-117v-175q0 -96 -53 -146.5t-147 -50.5q-95 0 -145.5 49t-50.5 145v178h-70v112h824z" />
    <glyph glyph-name="uni0924094D0930" horiz-adv-x="638" 
d="M668 671v-112h-100v-559h-142v195l-274 -168l-71 108l288 173q-54 61 -143 61q-86 0 -166 -50v127q30 20 79 32.5t93 12.5q119 0 194 -77v145h-456v112h698z" />
    <glyph glyph-name="uni0925094D0930" horiz-adv-x="674" 
d="M409 507q0 -147 -227 -218q28 -68 127 -68q60 0 106.5 32.5t46.5 107.5v310h242v-112h-100v-559h-142v162l-211 -207h-199l166 155q-82 24 -136.5 91t-61.5 165q141 36 199.5 66.5t58.5 79.5q0 52 -43 52q-45 0 -45 -52q0 -28 12 -55h-134q-11 32 -11 67q0 68 46.5 112.5
t131.5 44.5q77 0 125.5 -46t48.5 -128z" />
    <glyph glyph-name="uni0926094D0930" horiz-adv-x="584" 
d="M-30 671h644v-112h-112v-176h-208q-53 0 -84.5 -28t-31.5 -75q0 -48 27 -74.5t71 -26.5q94 0 110 100h138v-289h-140v125l-161 -170h-181l129 130q-63 24 -99.5 77.5t-36.5 125.5q0 97 65.5 157t187.5 60h71v64h-389v112z" />
    <glyph glyph-name="uni0927094D0930" horiz-adv-x="649" 
d="M679 671v-112h-100v-559h-140v146l-194 -191h-191l141 131q-65 13 -107.5 54t-42.5 102q0 54 41.5 88.5t115.5 37.5q-68 2 -105.5 29.5t-37.5 77.5q0 59 44 84h-133v112h331v-112h-3q-97 0 -97 -71q0 -61 89 -61h40v-118h-48q-44 0 -69.5 -15t-25.5 -42q0 -56 92 -56
q73 0 116.5 36t43.5 110v329h240z" />
    <glyph glyph-name="uni0928094D0930" horiz-adv-x="558" 
d="M-30 671h618v-112h-100v-559h-142v190l-164 -164h-177l341 325v1h-169q-18 0 -26 -9t-8 -36q0 -29 8 -69h-112q-34 57 -34 130q0 45 28 70.5t82 25.5h231v95h-376v112z" />
    <glyph glyph-name="uni092A094D0930" horiz-adv-x="582" 
d="M370 386v173h-163v-180q0 -86 74 -86q39 0 64 24.5t25 68.5zM612 671v-112h-100v-559h-142v222l-182 -222h-179l163 194q-107 38 -107 191v174h-95v112h642z" />
    <glyph glyph-name="uni092B094D0930" horiz-adv-x="844" 
d="M370 386v173h-163v-180q0 -86 74 -86q39 0 64 24.5t25 68.5zM874 559h-362v-97q48 41 117 41q87 0 136 -56.5t49 -138.5q0 -100 -62 -152.5t-156 -52.5q-17 0 -25 1v113q6 -1 16 -1q86 0 86 91q0 35 -19.5 59.5t-52.5 24.5q-39 0 -64 -24.5t-25 -68.5v-298h-142v222
l-182 -222h-179l163 194q-107 38 -107 191v174h-95v112h904v-112z" />
    <glyph glyph-name="uni092C094D0930" horiz-adv-x="633" 
d="M363 204l-170 142q-15 -24 -15 -58q0 -47 30 -75.5t77 -28.5q41 0 78 20zM663 671v-112h-100v-559h-142v135l-203 -200h-194l158 154q-63 23 -105 77.5t-42 125.5q0 94 63.5 156.5t168.5 62.5q46 0 81 -8v-122q-30 10 -69 10q-18 0 -35 -5l166 -137q10 22 10 42l1 -1v269
h-451v112h693z" />
    <glyph glyph-name="uni092D094D0930" horiz-adv-x="606" 
d="M397 671h239v-112h-100v-559h-138v111l-172 -151h-193l365 313v44h-153v-126h-122l-36 77q-27 57 -27 88q0 52 46 65v93q0 47 -46 47q-26 0 -54 -14v109q38 20 86 20q153 0 153 -145v-103h153z" />
    <glyph glyph-name="uni092E094D0930" horiz-adv-x="610" 
d="M244 428h158v131h-158v-131zM-30 671h670v-112h-100v-559h-138v108l-171 -148h-198l369 313v32h-158v-119h-119l-36 80q-29 66 -29 91q0 52 45 64v138h-135v112z" />
    <glyph glyph-name="uni092F094D0930" horiz-adv-x="650" 
d="M439 178l-229 -223h-197l185 179q-65 27 -108.5 90t-54.5 157q156 22 156 99q0 50 -29 79h-192v112h710v-112h-100v-559h-141v178zM316 240q57 0 90 33t33 99v187h-130q21 -32 21 -86q0 -118 -131 -162q30 -71 117 -71z" />
    <glyph glyph-name="uni0935094D0930" horiz-adv-x="612" 
d="M642 671v-112h-100v-559h-142v135l-181 -200h-187l155 162q-64 20 -103.5 70.5t-39.5 124.5q0 92 61.5 152.5t161.5 60.5q40 0 70 -8v-122q-34 9 -59 9q-39 0 -65 -24t-26 -64q0 -47 26.5 -72.5t76.5 -25.5q40 0 75 26.5t35 66.5v268h-430v112h672z" />
    <glyph glyph-name="uni0936094D0930" horiz-adv-x="766" 
d="M292 566q-28 0 -44 -16.5t-16 -43.5q0 -52 63 -93q55 33 55 89q0 25 -16.5 44.5t-41.5 19.5zM554 671h242v-112h-100v-559h-142v188l-244 -205l-109 78l207 168q-65 22 -98 36l-172 -126l-112 83l163 111q-97 73 -97 177q0 71 54.5 121t142.5 50q89 0 145 -49t56 -129
q0 -85 -77 -146q64 -23 141 -45v359z" />
    <glyph glyph-name="uni0938094D0930" horiz-adv-x="822" 
d="M323 559v-113q60 22 118 22q107 0 170 -57v148h-288zM852 671v-112h-100v-559h-141v277l-123 -167h-164l181 232q-31 11 -64 11q-73 0 -186 -53q-2 -1 -3.5 -1.5t-3.5 -1.5l-4 -2q-23 -14 -53 -20q-2 -1 -5.5 -1t-5.5 -1l163 -273h-160l-163 269v98h71q92 0 92 77v115
h-213v112h882z" />
    <glyph glyph-name="uni0939094D0930" horiz-adv-x="697" 
d="M604 401h-345q-37 0 -37 -27q0 -29 34 -52q51 12 116 12q131 0 205.5 -62t74.5 -167q0 -49 -9 -80h-126q8 26 8 65q0 46 -17 74l-96 -152h-152l152 206q-24 3 -52 3q-70 0 -114.5 -38t-44.5 -99q0 -69 62.5 -120t175.5 -51q41 0 57 3v-104q-28 -4 -65 -4q-68 0 -132 16.5
t-118.5 49t-87.5 89t-33 129.5q0 120 94 186q-16 7 -31 18t-31 37t-16 58q0 58 43 89t111 31h234v48h-494v112h757v-112h-123v-158z" />
    <glyph glyph-name="uni0915093C094D0930" horiz-adv-x="824" 
d="M315 -56q31 0 53.5 -22t22.5 -54t-22.5 -54t-53.5 -22t-53.5 22t-22.5 54t22.5 54t53.5 22zM855 559h-364v-109q44 39 106 39q89 0 143.5 -55.5t54.5 -141.5q0 -93 -62 -148.5t-159 -55.5q-15 0 -23 1v113q6 -1 16 -1q41 0 63.5 25t22.5 64q0 36 -21 61.5t-61 25.5
q-35 0 -57.5 -25.5t-22.5 -67.5v-284h-142v118l-131 -163h-167l118 135q-58 20 -91 69.5t-33 115.5q0 93 62 148.5t159 55.5q14 0 23 -1v-113q-6 1 -16 1q-41 0 -63.5 -25t-22.5 -64q0 -36 21 -61.5t61 -25.5q35 0 57.5 25.5t22.5 67.5v276h-379v112h885v-112z" />
    <glyph glyph-name="uni0916093C094D0930" horiz-adv-x="822" 
d="M535 -56q31 0 53.5 -22t22.5 -54t-22.5 -54t-53.5 -22t-53.5 22t-22.5 54t22.5 54t53.5 22zM610 488v71h-296v-114q0 -62 -22.5 -96.5t-74.5 -46.5l-9 -2q22 -68 79 -102.5t134 -34.5q83 0 141 32.5t58 105.5q0 46 -21.5 73.5t-59.5 27.5q-26 0 -43 -12t-17 -32
q0 -17 11 -28t33 -11q8 0 17 3v-94q-26 -8 -51 -8q-60 0 -100 38t-40 100q0 65 50 106.5t125 41.5q45 0 86 -18zM852 671v-112h-100v-559h-142v111q-34 -31 -130 -106.5l-142 -113.5h-209l192 156q-192 36 -276 249v110h69q34 0 47 14.5t13 52.5v86h-204v112h882z" />
    <glyph glyph-name="uni0917093C094D0930" horiz-adv-x="600" 
d="M315 -56q31 0 53.5 -22t22.5 -54t-22.5 -54t-53.5 -22t-53.5 22t-22.5 54t22.5 54t53.5 22zM-30 671h660v-112h-100v-559h-140v129l-172 -149h-189l361 319v260h-111v-214q0 -72 -40.5 -107t-104.5 -35q-48 0 -89 14v110q22 -12 49 -12q44 0 44 46v198h-168v112z" />
    <glyph glyph-name="uni0918093C094D0930" horiz-adv-x="644" 
d="M355 -56q31 0 53.5 -22t22.5 -54t-22.5 -54t-53.5 -22t-53.5 22t-22.5 54t22.5 54t53.5 22zM434 341v218h-207q-31 -26 -31 -61q0 -61 89 -61h40v-118h-48q-44 0 -69.5 -18.5t-25.5 -49.5q0 -32 25.5 -48.5t66.5 -16.5q72 0 116 39.5t44 115.5zM674 671v-112h-100v-559
h-140v140l-204 -185h-187l140 123q-64 14 -103.5 56t-39.5 103q0 60 42.5 98t114.5 43q-68 2 -105.5 29.5t-37.5 77.5q0 42 30 74h-114v112h704z" />
    <glyph glyph-name="uni0919093C094D0930" horiz-adv-x="745" 
d="M40 45q32 0 54 -22.5t22 -53.5t-22 -53.5t-54 -22.5t-54 22.5t-22 53.5t22 53.5t54 22.5zM659 441q35 0 58.5 -23.5t23.5 -58.5t-23.5 -58.5t-58.5 -23.5t-58.5 23.5t-23.5 58.5t23.5 58.5t58.5 23.5zM-30 671h805v-112h-237v-155h-209q-51 0 -51 -39q0 -24 27 -30.5
t89 -6.5q200 0 200 -153q-1 -51 -31 -91t-84 -62l134 -171h-170l-82 129l-82 -129h-170l128 163q-52 13 -97 38v130q106 -65 217 -65q47 0 72 14t25 36q0 27 -23 35.5t-83 8.5q-40 0 -74.5 7t-66 23t-50 47t-18.5 74q0 77 56.5 115.5t134.5 38.5h68v43h-428v112z" />
    <glyph glyph-name="uni091A093C094D0930" horiz-adv-x="660" 
d="M365 -56q31 0 53.5 -22t22.5 -54t-22.5 -54t-53.5 -22t-53.5 22t-22.5 54t22.5 54t53.5 22zM690 671v-112h-100v-559h-140v167l-214 -212h-184l150 145q-58 16 -90.5 58t-32.5 95q0 72 53 106h-112v115h359v-115q-165 0 -165 -86q0 -33 25 -51t68 -18q56 0 99.5 34.5
t43.5 84.5v236h-480v112h720z" />
    <glyph glyph-name="uni091B093C094D0930" horiz-adv-x="712" 
d="M60 94q32 0 54 -22t22 -54t-22 -54t-54 -22t-54 22t-22 54t22 54t54 22zM469 508v51h-176q-42 -33 -42 -82q0 -30 19 -50t53 -20h37v-118h-37q-81 0 -81 -60q0 -29 31.5 -46.5t81.5 -17.5q81 0 130 39.5t49 105.5q0 41 -22 62.5t-56 21.5q-31 0 -49 -5v111q23 6 62 8z
M742 559h-139v-85q74 -50 74 -152q0 -89 -48 -153.5t-132 -95.5l136 -173h-170l-80 129l-84 -129h-170l126 161q-70 18 -112.5 58.5t-42.5 102.5q0 56 37.5 89t105.5 37q-64 1 -98.5 37.5t-34.5 89.5q0 49 33 84h-163v112h762v-112z" />
    <glyph glyph-name="uni091C093C094D0930" horiz-adv-x="658" 
d="M422 -56q32 0 54 -22t22 -54t-22 -54t-54 -22t-54 22t-22 54t22 54t54 22zM-30 671h718v-112h-100v-559h-142v56l-180 -156h-179l359 308v140h-140q57 -36 57 -105t-59.5 -113.5t-143.5 -44.5q-73 0 -130 21v124q47 -25 101 -25q99 0 99 64q0 79 -143 79v115h359v96h-476
v112z" />
    <glyph glyph-name="uni091D093C094D0930" horiz-adv-x="881" 
d="M656 -56q32 0 54 -22t22 -54t-22 -54t-54 -22t-54 22t-22 54t22 54t54 22zM266 336h403v223h-204v-155h-200q-63 0 -63 -36q0 -32 64 -32zM911 671v-112h-100v-559h-142v60l-170 -178h-188l358 326v21h-185q8 -23 8 -58q0 -76 -51.5 -122.5t-136.5 -46.5q-65 0 -119 31
v-84h-140v242h130l1 -7q18 -36 47.5 -56.5t62.5 -20.5q31 0 49 14.5t18 41.5q0 32 -23 43t-64 11q-207 0 -207 143q0 79 56 117.5t144 38.5h66v43h-355v112h941z" />
    <glyph glyph-name="uni091E093C094D0930" horiz-adv-x="710" 
d="M465 -56q31 0 53.5 -22t22.5 -54t-22.5 -54t-53.5 -22t-53.5 22t-22.5 54t22.5 54t53.5 22zM740 671v-112h-100v-559h-142v66l-192 -166h-191l383 316v32h-92q-18 -70 -81 -115.5t-147 -45.5q-45 0 -89.5 11t-68.5 26v127q72 -43 147 -43q104 0 104 91q0 81 -92 81
q-46 0 -90 -19v119q42 17 103 17q84 0 139 -35.5t73 -101.5h94v199h-528v112h770z" />
    <glyph glyph-name="uni091F093C094D0930" horiz-adv-x="580" 
d="M126 18q0 -32 -22 -54t-54 -22t-54 22t-22 54t22 54t54 22t54 -22t22 -54zM509 559v-202q-42 7 -95 7q-84 0 -127.5 -32t-43.5 -87q0 -56 42.5 -85.5t112.5 -29.5q75 0 147 43v-127q-37 -18 -66 -26l125 -160h-170l-80 129l-84 -129h-170l138 176q-66 28 -102 83t-36 131
q0 93 68 157.5t191 68.5h10v83h-389v112h630v-112h-101z" />
    <glyph glyph-name="uni0920093C094D0930" horiz-adv-x="640" 
d="M55 125q31 0 53.5 -22.5t22.5 -53.5t-22.5 -53.5t-53.5 -22.5t-53.5 22.5t-22.5 53.5t22.5 53.5t53.5 22.5zM356 169q50 0 79 27t29 73q0 49 -29.5 74t-81.5 26q-48 0 -79.5 -24.5t-31.5 -74.5q0 -47 32.5 -74t81.5 -27zM670 559h-223v-91q73 -20 116 -71.5t43 -127.5
q0 -65 -33.5 -114t-94.5 -75l135 -172h-170l-82 129l-82 -129h-170l132 168q-66 24 -103.5 74t-37.5 121q0 90 59 142.5t147 63.5v82h-337v112h701v-112z" />
    <glyph glyph-name="uni0921093C094D0930" horiz-adv-x="639" 
d="M48 55q32 0 54 -22.5t22 -53.5t-22 -53.5t-54 -22.5t-54 22.5t-22 53.5t22 53.5t54 22.5zM538 559v-152h-1l1 -3h-209q-51 0 -51 -39q0 -24 27 -30.5t89 -6.5q21 0 30 -1q170 -12 170 -152q-1 -51 -31 -91t-84 -62l134 -171h-170l-82 129l-82 -129h-170l128 163
q-52 13 -97 38v130q106 -65 217 -65q47 0 72 14t25 36q0 24 -17.5 33t-59.5 11h-29q-40 0 -74.5 7t-66 23t-50 47t-18.5 74q0 77 56.5 115.5t134.5 38.5h68v43h-427v112h698v-112h-131z" />
    <glyph glyph-name="uni0922093C094D0930" horiz-adv-x="638" 
d="M137 9q0 -31 -22.5 -53.5t-53.5 -22.5t-53.5 22.5t-22.5 53.5t22.5 53.5t53.5 22.5t53.5 -22.5t22.5 -53.5zM534 559v-192q-47 11 -101 11q-51 0 -91.5 -11t-69.5 -41t-29 -76q0 -51 37 -89.5t96 -38.5q38 0 63.5 15t25.5 43q0 19 -15 30.5t-42 11.5q-42 0 -72 -22v99
q44 23 103 23q71 0 115.5 -37t44.5 -102q0 -53 -29.5 -93t-83.5 -61l132 -169h-170l-82 129l-82 -129h-170l134 171q-69 29 -108.5 88t-39.5 132q0 116 79 174.5t205 60.5h10v73h-425v112h698v-112h-133z" />
    <glyph glyph-name="uni0923093C094D0930" horiz-adv-x="764" 
d="M465 -56q31 0 53.5 -22t22.5 -54t-22.5 -54t-53.5 -22t-53.5 22t-22.5 54t22.5 54t53.5 22zM297 372v187h-117v-188q0 -66 59 -66q58 0 58 67zM794 671v-112h-100v-559h-141v131l-198 -158h-207l405 325v261h-117v-175q0 -96 -53 -146.5t-147 -50.5q-95 0 -145.5 49
t-50.5 145v178h-70v112h824z" />
    <glyph glyph-name="uni0924093C094D0930" horiz-adv-x="638" 
d="M285 -6q31 0 53.5 -22t22.5 -54t-22.5 -54t-53.5 -22t-53.5 22t-22.5 54t22.5 54t53.5 22zM668 671v-112h-100v-559h-142v195l-274 -168l-71 108l288 173q-54 61 -143 61q-86 0 -166 -50v127q30 20 79 32.5t93 12.5q119 0 194 -77v145h-456v112h698z" />
    <glyph glyph-name="uni0925093C094D0930" horiz-adv-x="674" 
d="M409 507q0 -147 -227 -218q28 -68 127 -68q60 0 106.5 32.5t46.5 107.5v310h242v-112h-100v-559h-142v162l-211 -207h-199l166 155q-82 24 -136.5 91t-61.5 165q141 36 199.5 66.5t58.5 79.5q0 52 -43 52q-45 0 -45 -52q0 -28 12 -55h-134q-11 32 -11 67q0 68 46.5 112.5
t131.5 44.5q77 0 125.5 -46t48.5 -128zM299 -132q0 32 22.5 54t53.5 22t53.5 -22t22.5 -54t-22.5 -54t-53.5 -22t-53.5 22t-22.5 54z" />
    <glyph glyph-name="uni0926093C094D0930" horiz-adv-x="584" 
d="M-30 671h644v-112h-112v-176h-208q-53 0 -84.5 -28t-31.5 -75q0 -48 27 -74.5t71 -26.5q94 0 110 100h138v-289h-140v125l-161 -170h-181l129 130q-63 24 -99.5 77.5t-36.5 125.5q0 97 65.5 157t187.5 60h71v64h-389v112zM249 -132q0 32 22.5 54t53.5 22t53.5 -22
t22.5 -54t-22.5 -54t-53.5 -22t-53.5 22t-22.5 54z" />
    <glyph glyph-name="uni0927093C094D0930" horiz-adv-x="649" 
d="M365 -56q31 0 53.5 -22t22.5 -54t-22.5 -54t-53.5 -22t-53.5 22t-22.5 54t22.5 54t53.5 22zM679 671v-112h-100v-559h-140v146l-194 -191h-191l141 131q-65 13 -107.5 54t-42.5 102q0 54 41.5 88.5t115.5 37.5q-68 2 -105.5 29.5t-37.5 77.5q0 59 44 84h-133v112h331
v-112h-3q-97 0 -97 -71q0 -61 89 -61h40v-118h-48q-44 0 -69.5 -15t-25.5 -42q0 -56 92 -56q73 0 116.5 36t43.5 110v329h240z" />
    <glyph glyph-name="uni0928093C094D0930" horiz-adv-x="558" 
d="M235 -26q31 0 53.5 -22t22.5 -54t-22.5 -54t-53.5 -22t-53.5 22t-22.5 54t22.5 54t53.5 22zM-30 671h618v-112h-100v-559h-142v190l-164 -164h-177l341 325v1h-169q-18 0 -26 -9t-8 -36q0 -29 8 -69h-112q-34 57 -34 130q0 45 28 70.5t82 25.5h231v95h-376v112z" />
    <glyph glyph-name="uni092A093C094D0930" horiz-adv-x="582" 
d="M265 -56q31 0 53.5 -22t22.5 -54t-22.5 -54t-53.5 -22t-53.5 22t-22.5 54t22.5 54t53.5 22zM370 386v173h-163v-180q0 -86 74 -86q39 0 64 24.5t25 68.5zM612 671v-112h-100v-559h-142v222l-182 -222h-179l163 194q-107 38 -107 191v174h-95v112h642z" />
    <glyph glyph-name="uni092B093C094D0930" horiz-adv-x="844" 
d="M265 -56q31 0 53.5 -22t22.5 -54t-22.5 -54t-53.5 -22t-53.5 22t-22.5 54t22.5 54t53.5 22zM370 386v173h-163v-180q0 -86 74 -86q39 0 64 24.5t25 68.5zM874 559h-362v-97q48 41 117 41q87 0 136 -56.5t49 -138.5q0 -100 -62 -152.5t-156 -52.5q-17 0 -25 1v113
q6 -1 16 -1q86 0 86 91q0 35 -19.5 59.5t-52.5 24.5q-39 0 -64 -24.5t-25 -68.5v-298h-142v222l-182 -222h-179l163 194q-107 38 -107 191v174h-95v112h904v-112z" />
    <glyph glyph-name="uni092C093C094D0930" horiz-adv-x="633" 
d="M345 -56q31 0 53.5 -22t22.5 -54t-22.5 -54t-53.5 -22t-53.5 22t-22.5 54t22.5 54t53.5 22zM363 204l-170 142q-15 -24 -15 -58q0 -47 30 -75.5t77 -28.5q41 0 78 20zM663 671v-112h-100v-559h-142v135l-203 -200h-194l158 154q-63 23 -105 77.5t-42 125.5
q0 94 63.5 156.5t168.5 62.5q46 0 81 -8v-122q-30 10 -69 10q-18 0 -35 -5l166 -137q10 22 10 42l1 -1v269h-451v112h693z" />
    <glyph glyph-name="uni092D093C094D0930" horiz-adv-x="606" 
d="M335 -56q31 0 53.5 -22t22.5 -54t-22.5 -54t-53.5 -22t-53.5 22t-22.5 54t22.5 54t53.5 22zM397 671h239v-112h-100v-559h-138v111l-172 -151h-193l365 313v44h-153v-126h-122l-36 77q-27 57 -27 88q0 52 46 65v93q0 47 -46 47q-26 0 -54 -14v109q38 20 86 20
q153 0 153 -145v-103h153z" />
    <glyph glyph-name="uni092E093C094D0930" horiz-adv-x="610" 
d="M335 -56q31 0 53.5 -22t22.5 -54t-22.5 -54t-53.5 -22t-53.5 22t-22.5 54t22.5 54t53.5 22zM244 428h158v131h-158v-131zM-30 671h670v-112h-100v-559h-138v108l-171 -148h-198l369 313v32h-158v-119h-119l-36 80q-29 66 -29 91q0 52 45 64v138h-135v112z" />
    <glyph glyph-name="uni092F093C094D0930" horiz-adv-x="650" 
d="M439 178l-229 -223h-197l185 179q-65 27 -108.5 90t-54.5 157q156 22 156 99q0 50 -29 79h-192v112h710v-112h-100v-559h-141v178zM316 240q57 0 90 33t33 99v187h-130q21 -32 21 -86q0 -118 -131 -162q30 -71 117 -71zM259 -132q0 32 22.5 54t53.5 22t53.5 -22t22.5 -54
t-22.5 -54t-53.5 -22t-53.5 22t-22.5 54z" />
    <glyph glyph-name="uni0935093C094D0930" horiz-adv-x="612" 
d="M345 -56q31 0 53.5 -22t22.5 -54t-22.5 -54t-53.5 -22t-53.5 22t-22.5 54t22.5 54t53.5 22zM642 671v-112h-100v-559h-142v135l-181 -200h-187l155 162q-64 20 -103.5 70.5t-39.5 124.5q0 92 61.5 152.5t161.5 60.5q40 0 70 -8v-122q-34 9 -59 9q-39 0 -65 -24t-26 -64
q0 -47 26.5 -72.5t76.5 -25.5q40 0 75 26.5t35 66.5v268h-430v112h672z" />
    <glyph glyph-name="uni0915094D0930094D" horiz-adv-x="585" 
d="M491 559v-109q44 39 106 39q98 0 153 -66l-101 -103q-16 57 -78 57q-35 0 -57.5 -25.5t-22.5 -67.5v-284h-142v118l-131 -163h-167l118 135q-58 20 -91 69.5t-33 115.5q0 93 62 148.5t159 55.5q14 0 23 -1v-113q-6 1 -16 1q-41 0 -63.5 -25t-22.5 -64q0 -36 21 -61.5
t61 -25.5q35 0 57.5 25.5t22.5 67.5v276h-379v112h645v-112h-124z" />
    <glyph glyph-name="uni0916094D0930094D" horiz-adv-x="597" 
d="M540 322v-94q-26 -8 -51 -8q-60 0 -100 38t-40 100q0 65 50 106.5t125 41.5q107 0 163 -52t56 -135q0 -61 -33 -112t-100 -105l-262 -211h-209l192 156q-200 33 -286 249v110h69q34 0 47 14.5t13 52.5v86h-204v112h657v-112h-313v-114q0 -62 -22.5 -96.5t-74.5 -46.5
l-9 -2q22 -68 79 -102.5t134 -34.5q83 0 141 32.5t58 105.5q0 46 -21.5 73.5t-59.5 27.5q-26 0 -43 -12t-17 -32q0 -17 11 -28t33 -11q8 0 17 3z" />
    <glyph glyph-name="uni0917094D0930094D" horiz-adv-x="374" 
d="M138 361v198h-168v112h434v-112h-125v-214q0 -72 -40.5 -107t-104.5 -35q-48 0 -89 14v110q22 -12 49 -12q44 0 44 46zM463 363l62 -116l-307 -267h-189z" />
    <glyph glyph-name="uni0918094D0930094D" horiz-adv-x="380" 
d="M487 365l77 -126l-334 -284h-187l140 123q-64 14 -103.5 56t-39.5 103q0 60 42.5 98t114.5 43q-68 2 -105.5 29.5t-37.5 77.5q0 42 30 74h-114v112h440v-112h-183q-31 -26 -31 -61q0 -61 89 -61h40v-118h-48q-44 0 -69.5 -18.5t-25.5 -49.5q0 -32 25.5 -48.5t66.5 -16.5
q125 0 213 179z" />
    <glyph glyph-name="uni091A094D0930094D" horiz-adv-x="419" 
d="M449 671v-112h-479v112h479zM488 338l67 -83l-309 -300h-184l150 145q-57 10 -95 53.5t-38 99.5q0 72 53 106h-112v115h359v-115q-165 0 -165 -86q0 -33 25 -51t68 -18q48 0 95 36t86 98z" />
    <glyph glyph-name="uni091C094D0930094D" horiz-adv-x="488" 
d="M518 671v-112h-548v112h548zM87 -100l452 388l78 -84l-351 -304h-179zM87 463h534v-115h-315q57 -36 57 -105t-59.5 -113.5t-143.5 -44.5q-73 0 -130 21v124q47 -25 101 -25q99 0 99 64q0 79 -143 79v115z" />
    <glyph glyph-name="uni091D094D0930094D" horiz-adv-x="628" 
d="M729 264l76 -93l-306 -289h-188l380 347h-207q8 -23 8 -58q0 -76 -51.5 -122.5t-136.5 -46.5q-65 0 -119 31v-84h-140v242h130l1 -7q18 -36 47.5 -56.5t62.5 -20.5q31 0 49 14.5t18 41.5q0 32 -23 43t-64 11q-207 0 -207 143q0 79 56 117.5t144 38.5h66v43h-355v112h688
v-112h-193v-155h-200q-63 0 -63 -36q0 -32 64 -32h463v-72z" />
    <glyph glyph-name="uni091E094D0930094D" horiz-adv-x="522" 
d="M553 671v-112h-583v112h583zM580 276l65 -90l-339 -286h-191l430 348h-139q-18 -70 -81 -115.5t-147 -45.5q-45 0 -89.5 11t-68.5 26v127q72 -43 147 -43q104 0 104 91q0 81 -92 81q-46 0 -90 -19v119q42 17 103 17q84 0 139 -35.5t73 -101.5h176v-84z" />
    <glyph glyph-name="uni091F094D0930094D" horiz-adv-x="525" 
d="M231 -205h143l145 -176h-168zM454 559v-202q-42 7 -95 7q-84 0 -127.5 -32t-43.5 -87q0 -56 42.5 -85.5t112.5 -29.5q75 0 147 43v-127q-37 -18 -66 -26l125 -160h-170l-80 129l-84 -129h-170l138 176q-66 28 -102 83t-36 131q0 93 68 157.5t191 68.5h10v83h-344v112h585
v-112h-101z" />
    <glyph glyph-name="uni0920094D0930094D" horiz-adv-x="575" 
d="M231 -157h143l145 -176h-168zM291 169q50 0 79 27t29 73q0 49 -29.5 74t-81.5 26q-48 0 -79.5 -24.5t-31.5 -74.5q0 -47 32.5 -74t81.5 -27zM605 559h-223v-91q73 -20 116 -71.5t43 -127.5q0 -65 -33.5 -114t-94.5 -75l135 -172h-170l-82 129l-82 -129h-170l132 168
q-66 24 -103.5 74t-37.5 121q0 90 59 142.5t147 63.5v82h-271v112h635v-112z" />
    <glyph glyph-name="uni0921094D0930094D" horiz-adv-x="539" 
d="M194 -214h143l145 -176h-168zM438 559v-152h-1l1 -3h-209q-51 0 -51 -39q0 -24 27 -30.5t89 -6.5q21 0 30 -1q170 -12 170 -152q-1 -51 -31 -91t-84 -62l134 -171h-170l-82 129l-82 -129h-170l128 163q-52 13 -97 38v130q106 -65 217 -65q47 0 72 14t25 36q0 24 -17.5 33
t-59.5 11h-29q-40 0 -74.5 7t-66 23t-50 47t-18.5 74q0 77 56.5 115.5t134.5 38.5h68v43h-328v112h599v-112h-131z" />
    <glyph glyph-name="uni0922094D0930094D" horiz-adv-x="568" 
d="M234 -205h143l145 -176h-168zM464 559v-192q-47 11 -101 11q-51 0 -91.5 -11t-69.5 -41t-29 -76q0 -51 37 -89.5t96 -38.5q38 0 63.5 15t25.5 43q0 19 -15 30.5t-42 11.5q-42 0 -72 -22v99q44 23 103 23q71 0 115.5 -37t44.5 -102q0 -53 -29.5 -93t-83.5 -61l132 -169
h-170l-82 129l-82 -129h-170l134 171q-69 29 -108.5 88t-39.5 132q0 116 79 174.5t205 60.5h10v73h-354v112h627v-112h-133z" />
    <glyph glyph-name="uni0923094D0930094D" horiz-adv-x="484" 
d="M170 559v-188q0 -66 59 -66q58 0 58 67v187h-117zM426 559v-175q0 -96 -53 -146.5t-147 -50.5q-95 0 -145.5 49t-50.5 145v178h-70v112h554v-112h-88zM612 354l39 -136l-306 -245h-207z" />
    <glyph glyph-name="uni0924094D0930094D" horiz-adv-x="419" 
d="M449 671v-112h-479v112h479zM60 319v127q30 20 79 32.5t93 12.5q108 0 180 -63t98 -181l-358 -220l-71 108l282 170q-51 64 -137 64t-166 -50z" />
    <glyph glyph-name="uni0925094D0930094D" horiz-adv-x="462" 
d="M409 507q0 -147 -227 -218q28 -68 127 -68q134 0 233 169l85 -96l-376 -339h-190l167 155q-82 15 -141.5 86t-66.5 170q141 36 199.5 66.5t58.5 79.5q0 52 -43 52q-45 0 -45 -52q0 -28 12 -55h-134q-11 32 -11 67q0 68 46.5 112.5t131.5 44.5q77 0 125.5 -46t48.5 -128z
" />
    <glyph glyph-name="uni0926094D0930094D" horiz-adv-x="584" 
d="M552 -296h-168l-120 176h143zM-30 671h644v-112h-112v-176h-208q-53 0 -84.5 -28t-31.5 -75q0 -48 27 -74.5t71 -26.5q94 0 110 100h138v-289h-140v125l-161 -170h-181l129 130q-63 24 -99.5 77.5t-36.5 125.5q0 97 65.5 157t187.5 60h71v64h-389v112z" />
    <glyph glyph-name="uni0927094D0930094D" horiz-adv-x="452" 
d="M499 351l96 -71l-330 -325h-191l146 131q-72 0 -123.5 43.5t-51.5 112.5q0 54 41.5 88.5t115.5 37.5q-68 2 -105.5 29.5t-37.5 77.5q0 59 44 84h-133v112h331v-112h-3q-97 0 -97 -71q0 -61 89 -61h40v-118h-48q-44 0 -69.5 -15t-25.5 -42q0 -56 92 -56q154 0 220 155z
" />
    <glyph glyph-name="uni0928094D0930094D" horiz-adv-x="343" 
d="M373 671v-112h-403v112h403zM475 381l34 -53l-327 -302h-177l364 326h-192q-18 0 -26 -9t-8 -36q0 -29 8 -69h-112q-34 57 -34 130q0 45 28 70.5t82 25.5h360v-83z" />
    <glyph glyph-name="uni092A094D0930094D" horiz-adv-x="323" 
d="M396 392l67 -68l-275 -324h-179l168 194q-53 14 -82.5 63.5t-29.5 127.5v174h-95v112h383v-112h-146v-180q0 -86 74 -86q70 0 115 99z" />
    <glyph glyph-name="uni092B094D0930094D" horiz-adv-x="615" 
d="M207 559v-180q0 -86 74 -86q39 0 64 24.5t25 68.5v173h-163zM512 559v-97q48 41 117 41q124 0 180 -120l-110 -72q-9 34 -34.5 57t-63.5 23q-39 0 -64 -24.5t-25 -68.5v-298h-142v222l-182 -222h-179l163 194q-107 38 -107 191v174h-95v112h675v-112h-133z" />
    <glyph glyph-name="uni092C094D0930094D" horiz-adv-x="377" 
d="M407 671v-112h-437v112h437zM362 204l-169 142q-15 -24 -15 -58q0 -47 30 -75.5t77 -28.5q46 0 77 20zM448 310l84 -73l-314 -302h-194l162 154q-65 20 -108 75.5t-43 127.5q0 94 63.5 156.5t168.5 62.5q46 0 81 -8v-122q-30 10 -69 10q-18 0 -35 -5l166 -137
q20 27 38 61z" />
    <glyph glyph-name="uni092D094D0930094D" horiz-adv-x="398" 
d="M245 428h327v-111l-316 -357h-183l345 357h-173v-126h-122l-36 77q-27 57 -27 88q0 52 46 65v93q0 47 -46 47q-26 0 -54 -14v109q38 20 86 20q153 0 153 -145v-103z" />
    <glyph glyph-name="uni092E094D0930094D" horiz-adv-x="427" 
d="M244 428h334v-123l-297 -345h-185l318 345h-170v-119h-119l-36 80q-29 66 -29 91q0 52 45 64v138h-135v112h487v-112h-213v-131z" />
    <glyph glyph-name="uni092F094D0930094D" horiz-adv-x="388" 
d="M418 559h-109q21 -32 21 -86q0 -118 -131 -162q30 -71 117 -71q86 0 163 123l69 -80l-338 -328h-197l185 179q-65 27 -108.5 90t-54.5 157q156 22 156 99q0 50 -29 79h-192v112h448v-112z" />
    <glyph glyph-name="uni0935094D0930094D" horiz-adv-x="375" 
d="M337 497v-122q-34 9 -59 9q-39 0 -65 -24t-26 -64q0 -47 26.5 -72.5t76.5 -25.5q95 0 166 133l73 -83l-300 -313h-187l155 162q-65 15 -109 65.5t-44 129.5q0 92 61.5 152.5t161.5 60.5q40 0 70 -8zM405 559h-435v112h435v-112z" />
    <glyph glyph-name="uni0938094D0930094D" horiz-adv-x="559" 
d="M323 559v-113q60 22 118 22q86 0 136 -29.5t91 -84.5l-60 -82l-120 -162h-164l182 233q-32 10 -65 10q-73 0 -186 -53q-2 -1 -3.5 -1.5t-3.5 -1.5l-4 -2q-23 -14 -53 -20q-2 -1 -5.5 -1t-5.5 -1l163 -273h-160l-163 269v98h71q92 0 92 77v115h-213v112h882v-112h-529z
" />
    <glyph glyph-name="uni0915093C094D0930094D" horiz-adv-x="585" 
d="M315 -56q31 0 53.5 -22t22.5 -54t-22.5 -54t-53.5 -22t-53.5 22t-22.5 54t22.5 54t53.5 22zM491 559v-109q44 39 106 39q98 0 153 -66l-101 -103q-16 57 -78 57q-35 0 -57.5 -25.5t-22.5 -67.5v-284h-142v118l-131 -163h-167l118 135q-58 20 -91 69.5t-33 115.5
q0 93 62 148.5t159 55.5q14 0 23 -1v-113q-6 1 -16 1q-41 0 -63.5 -25t-22.5 -64q0 -36 21 -61.5t61 -25.5q35 0 57.5 25.5t22.5 67.5v276h-379v112h645v-112h-124z" />
    <glyph glyph-name="uni0916093C094D0930094D" horiz-adv-x="597" 
d="M575 -36q31 0 53.5 -22t22.5 -54t-22.5 -54t-53.5 -22t-53.5 22t-22.5 54t22.5 54t53.5 22zM540 322v-94q-26 -8 -51 -8q-60 0 -100 38t-40 100q0 65 50 106.5t125 41.5q107 0 163 -52t56 -135q0 -61 -33 -112t-100 -105l-262 -211h-209l192 156q-200 33 -286 249v110h69
q34 0 47 14.5t13 52.5v86h-204v112h657v-112h-313v-114q0 -62 -22.5 -96.5t-74.5 -46.5l-9 -2q22 -68 79 -102.5t134 -34.5q83 0 141 32.5t58 105.5q0 46 -21.5 73.5t-59.5 27.5q-26 0 -43 -12t-17 -32q0 -17 11 -28t33 -11q8 0 17 3z" />
    <glyph glyph-name="uni0917093C094D0930094D" horiz-adv-x="374" 
d="M138 361v198h-168v112h434v-112h-125v-214q0 -72 -40.5 -107t-104.5 -35q-48 0 -89 14v110q22 -12 49 -12q44 0 44 46zM463 363l62 -116l-307 -267h-189zM425 34q31 0 53.5 -22t22.5 -54t-22.5 -54t-53.5 -22t-53.5 22t-22.5 54t22.5 54t53.5 22z" />
    </font>
</defs>
</svg>
